<mxfile host="Electron" modified="2024-02-05T13:44:02.313Z" agent="Mozilla/5.0 (Macintosh; Intel Mac OS X 10_15_7) AppleWebKit/537.36 (KHTML, like Gecko) draw.io/23.0.2 Chrome/120.0.6099.109 Electron/28.1.0 Safari/537.36" etag="hY6lILpxsM_-A5mQ8rjp" version="23.0.2" type="device">
  <diagram name="Seite-1" id="tPze7qqHfpHIV00xVAUt">
    <mxGraphModel dx="1434" dy="854" grid="1" gridSize="10" guides="1" tooltips="1" connect="1" arrows="1" fold="1" page="1" pageScale="1" pageWidth="827" pageHeight="1169" math="0" shadow="0">
      <root>
        <mxCell id="0" />
        <mxCell id="1" parent="0" />
        <mxCell id="2j_hzL7mZvjbfzJCZ6OL-5" value="" style="group;fontColor=#326CE5;labelPosition=left;verticalLabelPosition=top;align=right;verticalAlign=bottom;movable=1;resizable=1;rotatable=1;deletable=1;editable=1;locked=0;connectable=1;spacing=3;" parent="1" vertex="1" connectable="0">
          <mxGeometry x="26.91" y="60" width="843.09" height="1030" as="geometry" />
        </mxCell>
        <mxCell id="2j_hzL7mZvjbfzJCZ6OL-1" value="&lt;b&gt;&lt;font style=&quot;font-size: 15px;&quot;&gt;Kubernetes Host Cluster (Local: Minikube)&lt;/font&gt;&lt;/b&gt;" style="rounded=1;whiteSpace=wrap;html=1;fillColor=none;strokeWidth=3;strokeColor=#326CE5;fontColor=#FFFFFF;labelPosition=center;verticalLabelPosition=top;align=center;verticalAlign=bottom;movable=1;resizable=1;rotatable=1;deletable=1;editable=1;locked=0;connectable=1;labelBackgroundColor=#007FFF;" parent="2j_hzL7mZvjbfzJCZ6OL-5" vertex="1">
          <mxGeometry x="4" y="10" width="800" height="710" as="geometry" />
        </mxCell>
        <mxCell id="2j_hzL7mZvjbfzJCZ6OL-4" value="" style="editableCssRules=.*;html=1;shape=image;verticalLabelPosition=bottom;labelBackgroundColor=#ffffff;verticalAlign=top;aspect=fixed;imageAspect=0;image=data:image/svg+xml,PHN2ZyB4bWxucz0iaHR0cDovL3d3dy53My5vcmcvMjAwMC9zdmciIHhtbG5zOnY9Imh0dHBzOi8vdmVjdGEuaW8vbmFubyIgd2lkdGg9IjcwMi44NDYzMTM0NzY1NjI1IiBoZWlnaHQ9IjY4MS45NjcxMDIwNTA3ODEyIiB2aWV3Qm94PSIxMC4wMDEwMjYxNTM1NjQ0NTMgMTAuMDAwOTMzNjQ3MTU1NzYyIDcwMi44NDYzMTM0NzY1NjI1IDY4MS45NjcxMDIwNTA3ODEyIj4mI3hhOwk8c3R5bGUgdHlwZT0idGV4dC9jc3MiPiYjeGE7CS5zdDB7ZmlsbDojMzI2Y2U1O30mI3hhOwkuc3Qxe2ZpbGw6I2ZmZjt9JiN4YTsJPC9zdHlsZT4mI3hhOwk8cGF0aCBjbGFzcz0ic3QwIiBkPSJNMzU4Ljk4NyAxMC4wNmMtNi4yMTMuMzEzLTEyLjMwMSAxLjg1NC0xNy45MDYgNC41MzFMOTYuNzM3IDEzMS4zNDJjLTEyLjgxMSA2LjExOC0yMi4xMTYgMTcuNjg5LTI1LjI4MSAzMS40MzhsLTYwLjI4MSAyNjIuMjVjLTIuODEyIDEyLjIwNy0uNTI0IDI1LjAyNCA2LjM0NCAzNS41MzFhNDYuMzUgNDYuMzUgMCAwIDAgMi42NTYgMy42ODhsMTY5LjEyNSAyMTAuMjgxYzguODY4IDExLjAyMiAyMi4zMTMgMTcuNDQgMzYuNTMxIDE3LjQzOGwyNzEuMjE5LS4wNjJjMTQuMjEyLjAxIDI3LjY1Ny02LjM5NiAzNi41MzEtMTcuNDA2bDE2OS4wNjMtMjEwLjMxM2M4Ljg3My0xMS4wMjggMTIuMTk3LTI1LjQ2NCA5LjAzMS0zOS4yMTlsLTYwLjM3NS0yNjIuMjVjLTMuMTY1LTEzLjc0OC0xMi40Ny0yNS4zMTktMjUuMjgxLTMxLjQzN0wzODEuNjQzIDE0LjU5MmMtNy4wNS0zLjM2OC0xNC44NDEtNC45MjYtMjIuNjU2LTQuNTMxeiIvPiYjeGE7CTxwYXRoIGNsYXNzPSJzdDEgc3QyIiBkPSJNMzYxLjQwOCA5OS4zMDhjLTguMDc3LjAwMS0xNC42MjYgNy4yNzYtMTQuNjI1IDE2LjI1IDAgLjEzOC4wMjguMjY5LjAzMS40MDYtLjAxMiAxLjIxOS0uMDcxIDIuNjg4LS4wMzEgMy43NS4xOTMgNS4xNzYgMS4zMjEgOS4xMzcgMiAxMy45MDYgMS4yMyAxMC4yMDcgMi4yNjEgMTguNjY3IDEuNjI1IDI2LjUzMS0uNjE5IDIuOTY1LTIuODAzIDUuNjc3LTQuNzUgNy41NjNsLS4zNDQgNi4xODhjLTguNzc3LjcyNy0xNy42MTIgMi4wNTktMjYuNDM3IDQuMDYzLTM3Ljk3NSA4LjYyMi03MC42NyAyOC4xODMtOTUuNTYyIDU0LjU5NC0xLjYxNS0xLjEwMi00LjQ0MS0zLjEyOS01LjI4MS0zLjc1LTIuNjExLjM1My01LjI1IDEuMTU4LTguNjg3LS44NDQtNi41NDUtNC40MDYtMTIuNTA2LTEwLjQ4Ny0xOS43MTktMTcuODEyLTMuMzA1LTMuNTA0LTUuNjk4LTYuODQxLTkuNjI1LTEwLjIxOS0uODkyLS43NjctMi4yNTMtMS44MDUtMy4yNS0yLjU5NC0zLjA3LTIuNDQ4LTYuNjkxLTMuNzI0LTEwLjE4Ny0zLjg0NC00LjQ5Ni0uMTU0LTguODI0IDEuNjA0LTExLjY1NiA1LjE1Ni01LjAzNSA2LjMxNS0zLjQyMyAxNS45NjggMy41OTQgMjEuNTYzLjA3MS4wNTcuMTQ3LjEwMS4yMTkuMTU2Ljk2NC43ODIgMi4xNDUgMS43ODMgMy4wMzEgMi40MzggNC4xNjcgMy4wNzcgNy45NzMgNC42NTEgMTIuMTI1IDcuMDk0IDguNzQ3IDUuNDAyIDE1Ljk5OCA5Ljg4MSAyMS43NSAxNS4yODEgMi4yNDYgMi4zOTQgMi42MzkgNi42MTMgMi45MzggOC40MzhsNC42ODggNC4xODhjLTI1LjA5MyAzNy43NjQtMzYuNzA3IDg0LjQwOS0yOS44NDQgMTMxLjkzOGwtNi4xMjUgMS43ODFjLTEuNjE0IDIuMDg1LTMuODk1IDUuMzY1LTYuMjgxIDYuMzQ0LTcuNTI1IDIuMzctMTUuOTk0IDMuMjQxLTI2LjIxOSA0LjMxMy00LjguMzk5LTguOTQyLjE2MS0xNC4wMzEgMS4xMjUtMS4xMi4yMTItMi42ODEuNjE5LTMuOTA2LjkwNi0uMDQzLjAwOS0uMDgyLjAyMi0uMTI1LjAzMS0uMDY3LjAxNS0uMTU1LjA0OC0uMjE5LjA2My04LjYyIDIuMDgzLTE0LjE1OCAxMC4wMDYtMTIuMzc1IDE3LjgxM3MxMC4yMDMgMTIuNTU3IDE4Ljg3NSAxMC42ODhjLjA2My0uMDE0LjE1NC0uMDE3LjIxOS0uMDMxLjA5OC0uMDIyLjE4NC0uMDcuMjgxLS4wOTQgMS4yMDktLjI2NSAyLjcyNC0uNTYxIDMuNzgxLS44NDQgNS4wMDMtMS4zNCA4LjYyNy0zLjMwOCAxMy4xMjUtNS4wMzEgOS42NzctMy40NzEgMTcuNjkyLTYuMzcgMjUuNS03LjUgMy4yNjEtLjI1NSA2LjY5NyAyLjAxMiA4LjQwNiAyLjk2OWw2LjM3NS0xLjA5NGMxNC42NyA0NS40ODMgNDUuNDE0IDgyLjI0NSA4NC4zNDQgMTA1LjMxMmwtMi42NTYgNi4zNzVjLjk1NyAyLjQ3NSAyLjAxMyA1LjgyNSAxLjMgOC4yNjktMi44MzkgNy4zNjEtNy43MDEgMTUuMTMxLTEzLjIzOCAyMy43OTMtMi42ODEgNC4wMDItNS40MjUgNy4xMDgtNy44NDQgMTEuNjg4LS41NzkgMS4wOTYtMS4zMTYgMi43NzktMS44NzUgMy45MzgtMy43NTkgOC4wNDItMS4wMDIgMTcuMzA1IDYuMjE5IDIwLjc4MSA3LjI2NiAzLjQ5OCAxNi4yODQtLjE5MSAyMC4xODctOC4yNS4wMDYtLjAxMS4wMjYtLjAyLjAzMS0uMDMxcy0uMDA0LS4wMjMgMC0uMDMxYy41NTYtMS4xNDMgMS4zNDQtMi42NDQgMS44MTMtMy43MTkgMi4wNzItNC43NDcgMi43NjItOC44MTUgNC4yMTktMTMuNDA2IDMuODctOS43MiA1Ljk5Ni0xOS45MTkgMTEuMzIzLTI2LjI3NCAxLjQ1OS0xLjc0IDMuODM3LTIuNDA5IDYuMzAyLTMuMDdsMy4zMTMtNmMzMy45MzggMTMuMDI3IDcxLjkyNyAxNi41MjIgMTA5Ljg3NSA3LjkwNmExODkuNzcgMTg5Ljc3IDAgMCAwIDI1LjA5NC03LjU2MmwzLjEyNSA1LjYyNWMyLjUwNi44MTUgNS4yNCAxLjIzNiA3LjQ2OSA0LjUzMSAzLjk4NSA2LjgwOSA2LjcxMSAxNC44NjQgMTAuMDMxIDI0LjU5NCAxLjQ1NyA0LjU5MSAyLjE3OCA4LjY1OSA0LjI1IDEzLjQwNi40NzIgMS4wODIgMS4yNTYgMi42MDUgMS44MTMgMy43NSAzLjg5NSA4LjA4NSAxMi45NDIgMTEuNzg3IDIwLjIxOSA4LjI4MSA3LjIxOS0zLjQ3OCA5Ljk4LTEyLjc0IDYuMjE5LTIwLjc4MWwtMS45MDYtMy45MzdjLTIuNDE5LTQuNTgtNS4xNjMtNy42NTQtNy44NDQtMTEuNjU2LTUuNTM3LTguNjYyLTEwLjEzLTE1Ljg1OC0xMi45NjktMjMuMjE5LTEuMTg3LTMuNzk3LjItNi4xNTggMS4xMjUtOC42MjUtLjU1NC0uNjM1LTEuNzM5LTQuMjItMi40MzctNS45MDYgNDAuNDU3LTIzLjg4OCA3MC4yOTktNjIuMDIxIDg0LjMxMy0xMDYuMDYyIDEuODkyLjI5NyA1LjE4Mi44NzkgNi4yNSAxLjA5NCAyLjItMS40NTEgNC4yMjItMy4zNDQgOC4xODgtMy4wMzEgNy44MDggMS4xMjkgMTUuODIzIDQuMDMgMjUuNSA3LjUgNC40OTggMS43MjMgOC4xMjIgMy43MjMgMTMuMTI1IDUuMDYzIDEuMDU3LjI4MyAyLjU3Mi41NDcgMy43ODEuODEzLjA5Ny4wMjQuMTgzLjA3MS4yODEuMDk0LjA2NS4wMTUuMTU2LjAxNy4yMTkuMDMxIDguNjcyIDEuODY3IDE3LjA5NC0yLjg3OSAxOC44NzUtMTAuNjg3cy0zLjc1NC0xNS43MzItMTIuMzc1LTE3LjgxMmMtMS4yNTQtLjI4NS0zLjAzMi0uNzY5LTQuMjUtMS01LjA4OS0uOTY0LTkuMjMxLS43MjYtMTQuMDMxLTEuMTI1LTEwLjIyNS0xLjA3MS0xOC42OTMtMS45NDMtMjYuMjE5LTQuMzEyLTMuMDY4LTEuMTktNS4yNTEtNC44NDEtNi4zMTMtNi4zNDRsLTUuOTA2LTEuNzE5YzMuMDYyLTIyLjE1NCAyLjIzNy00NS4yMTEtMy4wNjItNjguMjgxLTUuMzQ4LTIzLjI4NS0xNC44LTQ0LjU4MS0yNy40MDYtNjMuMzQ0bDUuMTg4LTQuNjU2Yy4yMzctMi42MjQuMDMzLTUuMzc2IDIuNzUtOC4yODEgNS43NTEtNS40MDEgMTMuMDAzLTkuODc5IDIxLjc1LTE1LjI4MSA0LjE1Mi0yLjQ0MyA3Ljk5LTQuMDE3IDEyLjE1Ni03LjA5NC45NDItLjY5NiAyLjIyOS0xLjc5OCAzLjIxOS0yLjU5NCA3LjAxNS01LjU5NiA4LjYzMS0xNS4yNDggMy41OTQtMjEuNTYycy0xNC43OTctNi45MDktMjEuODEyLTEuMzEyYy0uOTk5Ljc5MS0yLjM1NCAxLjgyMy0zLjI1IDIuNTk0LTMuOTI3IDMuMzc4LTYuMzUxIDYuNzE0LTkuNjU2IDEwLjIxOS03LjIxMiA3LjMyNi0xMy4xNzQgMTMuNDM4LTE5LjcxOSAxNy44NDQtMi44MzYgMS42NTEtNi45OSAxLjA4LTguODc1Ljk2OWwtNS41NjIgMy45NjljLTMxLjcxOS0zMy4yNjEtNzQuOTA1LTU0LjUyNS0xMjEuNDA2LTU4LjY1NmwtLjM0NC02LjUzMWMtMS45MDQtMS44MjItNC4yMDMtMy4zNzctNC43ODEtNy4zMTItLjYzNi03Ljg2NC40MjYtMTYuMzI1IDEuNjU2LTI2LjUzMS42NzktNC43NjkgMS44MDctOC43MyAyLTEzLjkwNi4wNDQtMS4xNzctLjAyNi0yLjg4NC0uMDMxLTQuMTU2LS4wMDEtOC45NzQtNi41NDgtMTYuMjUxLTE0LjYyNS0xNi4yNXptLTE4LjMxMiAxMTMuNDM4bC00LjM0NCA3Ni43MTktLjMxMi4xNTZjLS4yOTEgNi44NjMtNS45NCAxMi4zNDQtMTIuODc1IDEyLjM0NGExMi44MiAxMi44MiAwIDAgMS03LjU5NC0yLjQ2OWwtLjEyNS4wNjMtNjIuOTA2LTQ0LjU5NGMxOS4zMzQtMTkuMDExIDQ0LjA2My0zMy4wNiA3Mi41NjItMzkuNTMxIDUuMjA2LTEuMTgyIDEwLjQxLTIuMDU5IDE1LjU5NC0yLjY4N3ptMzYuNjU2IDBjMzMuMjczIDQuMDkyIDY0LjA0NSAxOS4xNTkgODcuNjI1IDQyLjI1bC02Mi41IDQ0LjMxMy0uMjE5LS4wOTRhMTIuOTEgMTIuOTEgMCAwIDEtMTcuNjg3LTIuMzc1Yy0xLjc3MS0yLjIyMS0yLjcwMS00LjgzMi0yLjgxMi03LjQ2OWwtLjA2Mi0uMDMxek0yMzIuMTI2IDI4My42Mmw1Ny40MzcgNTEuMzc1LS4wNjIuMzEzYTEyLjg4IDEyLjg4IDAgMCAxIDEuNjI1IDE3Ljc1IDEyLjg5IDEyLjg5IDAgMCAxLTYuNjg3IDQuNDA2bC0uMDYyLjI1LTczLjYyNSAyMS4yNWMtMy43NDctMzQuMjY1IDQuMzI5LTY3LjU3NCAyMS4zNzUtOTUuMzQ0em0yNTguMTU2LjAzMWM4LjUzNCAxMy44MzMgMTQuOTk3IDI5LjI4MiAxOC44NDQgNDYuMDMxIDMuODAxIDE2LjU0OCA0Ljc1NSAzMy4wNjcgMy4xODggNDkuMDMxbC03NC0yMS4zMTItLjA2Mi0uMzEyYy02LjYyNy0xLjgxMS0xMC42OTktOC41NTItOS4xNTYtMTUuMzEyLjYzMi0yLjc3IDIuMTAyLTUuMTEzIDQuMDk0LTYuODQ0bC0uMDMxLS4xNTYgNTcuMTI1LTUxLjEyNXptLTE0MC42NTYgNTUuMzEzaDIzLjUzMWwxNC42MjUgMTguMjgxLTUuMjUgMjIuODEzLTIxLjEyNSAxMC4xNTYtMjEuMTg3LTEwLjE4Ny01LjI1LTIyLjgxMnptNzUuNDM4IDYyLjU2M2ExMi44MyAxMi44MyAwIDAgMSAyLjk2OS4yMTlsLjEyNS0uMTU2IDc2LjE1NiAxMi44NzVjLTExLjE0NiAzMS4zMTMtMzIuNDczIDU4LjQ0LTYwLjk2OSA3Ni41OTRsLTI5LjU2Mi03MS40MDYuMDk0LS4xMjVjLTIuNzE2LTYuMzEuMDAyLTEzLjcxIDYuMjUtMTYuNzE5IDEuNi0uNzcgMy4yNzEtMS4xOTcgNC45MzgtMS4yODF6bS0xMjcuOTA2LjMxM2ExMi45IDEyLjkgMCAwIDEgMTIuMzc1IDEwLjAzMSAxMi43NyAxMi43NyAwIDAgMS0uNzE5IDcuOTM4bC4yMTkuMjgxLTI5LjI1IDcwLjY4OGMtMjcuMzQ3LTE3LjU0OS00OS4xMjktNDMuODI0LTYwLjc4MS03Ni4wNjJsNzUuNS0xMi44MTIuMTI1LjE1NmMuODQ1LS4xNTUgMS43MDEtLjIzIDIuNTMxLS4yMTl6bTYzLjc4MSAzMC45NjljMi4wMjQtLjA3NCA0LjA3OS4zNDEgNi4wMzEgMS4yODEgMi41NiAxLjIzMyA0LjUzNyAzLjE3MyA1Ljc4MSA1LjVoLjI4MWwzNy4yMTkgNjcuMjVjLTQuODMgMS42MTktOS43OTYgMy4wMDMtMTQuODc1IDQuMTU2LTI4LjQ2NSA2LjQ2My01Ni44MzkgNC41MDUtODIuNTMxLTQuMjVsMzcuMTI1LTY3LjEyNWguMDYzYTEyLjkxIDEyLjkxIDAgMCAxIDEwLjkwNi02LjgxMnoiIHN0cm9rZT0ibm9uZSIgc3Ryb2tlLXdpZHRoPSIuMjUiLz4mI3hhOzwvc3ZnPg==;fontColor=default;" parent="2j_hzL7mZvjbfzJCZ6OL-5" vertex="1">
          <mxGeometry x="623.0947860601811" y="-20.00308411214953" width="53.51976125292739" height="50.842078454332544" as="geometry" />
        </mxCell>
        <mxCell id="2j_hzL7mZvjbfzJCZ6OL-11" value="" style="group;movable=0;resizable=0;rotatable=0;deletable=0;editable=0;locked=1;connectable=0;" parent="2j_hzL7mZvjbfzJCZ6OL-5" vertex="1" connectable="0">
          <mxGeometry x="42.11" y="48" width="157.89" height="652" as="geometry" />
        </mxCell>
        <mxCell id="2j_hzL7mZvjbfzJCZ6OL-6" value="Control Plane (Master Node)" style="rounded=1;whiteSpace=wrap;html=1;opacity=70;fillColor=#dae8fc;strokeColor=#6c8ebf;fontStyle=1;fontColor=#4D4D4D;labelPosition=center;verticalLabelPosition=top;align=center;verticalAlign=bottom;" parent="2j_hzL7mZvjbfzJCZ6OL-11" vertex="1">
          <mxGeometry y="22" width="149.36922288181327" height="630" as="geometry" />
        </mxCell>
        <mxCell id="2j_hzL7mZvjbfzJCZ6OL-7" value="" style="aspect=fixed;sketch=0;html=1;dashed=0;whitespace=wrap;fillColor=#2875E2;strokeColor=#ffffff;points=[[0.005,0.63,0],[0.1,0.2,0],[0.9,0.2,0],[0.5,0,0],[0.995,0.63,0],[0.72,0.99,0],[0.5,1,0],[0.28,0.99,0]];shape=mxgraph.kubernetes.icon2;prIcon=api" parent="2j_hzL7mZvjbfzJCZ6OL-11" vertex="1">
          <mxGeometry x="125.11778031466645" width="32.77221968533355" height="31.46133089792021" as="geometry" />
        </mxCell>
        <mxCell id="2j_hzL7mZvjbfzJCZ6OL-14" value="" style="group" parent="2j_hzL7mZvjbfzJCZ6OL-5" vertex="1" connectable="0">
          <mxGeometry x="305.1465163934426" y="53.943925233644855" width="470.3091652078455" height="664.2056074766354" as="geometry" />
        </mxCell>
        <mxCell id="2j_hzL7mZvjbfzJCZ6OL-10" value="Worker Node" style="rounded=1;whiteSpace=wrap;html=1;opacity=70;fillColor=#dae8fc;strokeColor=#6c8ebf;fontStyle=1;fontColor=#4D4D4D;labelPosition=center;verticalLabelPosition=top;align=center;verticalAlign=bottom;movable=0;resizable=0;rotatable=0;deletable=0;editable=0;locked=1;connectable=0;" parent="2j_hzL7mZvjbfzJCZ6OL-14" vertex="1">
          <mxGeometry x="-50" y="10" width="530" height="630" as="geometry" />
        </mxCell>
        <mxCell id="DBhOnroe0UzR9Imo3tEQ-48" value="" style="group" parent="2j_hzL7mZvjbfzJCZ6OL-14" vertex="1" connectable="0">
          <mxGeometry x="123.60425010245902" y="272.7196261682243" width="100.19468145491801" height="96.26168224299066" as="geometry" />
        </mxCell>
        <mxCell id="DBhOnroe0UzR9Imo3tEQ-24" value="Calico" style="shape=image;verticalLabelPosition=middle;labelBackgroundColor=default;verticalAlign=middle;aspect=fixed;imageAspect=0;image=https://www.tigera.io/app/uploads/2021/06/calico-interoperability.png;fontColor=#004C99;fontStyle=1;labelPosition=right;align=left;" parent="DBhOnroe0UzR9Imo3tEQ-48" vertex="1">
          <mxGeometry width="98.2862113319672" height="61.47676399659628" as="geometry" />
        </mxCell>
        <mxCell id="DBhOnroe0UzR9Imo3tEQ-16" value="" style="aspect=fixed;sketch=0;html=1;dashed=0;whitespace=wrap;fillColor=#2875E2;strokeColor=#ffffff;points=[[0.005,0.63,0],[0.1,0.2,0],[0.9,0.2,0],[0.5,0,0],[0.995,0.63,0],[0.72,0.99,0],[0.5,1,0],[0.28,0.99,0]];shape=mxgraph.kubernetes.icon2;kubernetesLabel=1;prIcon=netpol" parent="DBhOnroe0UzR9Imo3tEQ-48" vertex="1">
          <mxGeometry x="69.49306827581337" width="30.1144113942101" height="28.909834938441698" as="geometry" />
        </mxCell>
        <mxCell id="DBhOnroe0UzR9Imo3tEQ-74" value="" style="group" parent="2j_hzL7mZvjbfzJCZ6OL-14" vertex="1" connectable="0">
          <mxGeometry x="175.43355338114756" y="19.065420560747665" width="246.5099302254098" height="283.9719626168224" as="geometry" />
        </mxCell>
        <mxCell id="DBhOnroe0UzR9Imo3tEQ-75" value="&lt;font style=&quot;background-color: rgb(181, 115, 157);&quot;&gt;production&lt;/font&gt;" style="whiteSpace=wrap;html=1;aspect=fixed;fillColor=#f5f5f5;labelPosition=center;verticalLabelPosition=top;align=center;verticalAlign=bottom;fontStyle=1;fontColor=#FFFFFF;strokeWidth=3;strokeColor=#B5739D;" parent="DBhOnroe0UzR9Imo3tEQ-74" vertex="1">
          <mxGeometry x="20.17" y="21.84" width="178.16" height="178.16" as="geometry" />
        </mxCell>
        <mxCell id="DBhOnroe0UzR9Imo3tEQ-76" value="" style="aspect=fixed;sketch=0;html=1;dashed=0;whitespace=wrap;fillColor=#B5739D;strokeColor=#ffffff;points=[[0.005,0.63,0],[0.1,0.2,0],[0.9,0.2,0],[0.5,0,0],[0.995,0.63,0],[0.72,0.99,0],[0.5,1,0],[0.28,0.99,0]];shape=mxgraph.kubernetes.icon2;kubernetesLabel=1;prIcon=ns" parent="DBhOnroe0UzR9Imo3tEQ-74" vertex="1">
          <mxGeometry x="189.16299087881896" y="2.7027318475916604" width="30" height="28.8" as="geometry" />
        </mxCell>
        <mxCell id="DBhOnroe0UzR9Imo3tEQ-77" value="" style="group" parent="DBhOnroe0UzR9Imo3tEQ-74" vertex="1" connectable="0">
          <mxGeometry x="54.47460381915362" y="24.75653007428708" width="148.6198822520088" height="170.77327033721787" as="geometry" />
        </mxCell>
        <mxCell id="DBhOnroe0UzR9Imo3tEQ-78" value="" style="group" parent="DBhOnroe0UzR9Imo3tEQ-77" vertex="1" connectable="0">
          <mxGeometry x="-21.484955754470935" y="9.290797987059662" width="131.02508510882387" height="130" as="geometry" />
        </mxCell>
        <mxCell id="DBhOnroe0UzR9Imo3tEQ-79" value="prod-vcluster" style="rounded=1;whiteSpace=wrap;html=1;dashed=1;fillColor=none;strokeColor=#FF8000;glass=0;strokeWidth=4;fontStyle=1;labelPosition=center;verticalLabelPosition=top;align=center;verticalAlign=bottom;fontColor=#FF8000;direction=south;" parent="DBhOnroe0UzR9Imo3tEQ-78" vertex="1">
          <mxGeometry y="10" width="114.32" height="120" as="geometry" />
        </mxCell>
        <mxCell id="DBhOnroe0UzR9Imo3tEQ-80" value="" style="shape=image;verticalLabelPosition=bottom;labelBackgroundColor=default;verticalAlign=top;aspect=fixed;imageAspect=0;image=data:image/png,iVBORw0KGgoAAAANSUhEUgAAAZAAAAGQCAYAAACAvzbMAAAACXBIWXMAABYlAAAWJQFJUiTwAAAUG0lEQVR4nO3dX3IcRZ4H8O5Qp8aA7RCO4GHezOs+mRPgOcF6LmDgBAiqWvAm3UA+AXgugPcE+ASMT4B9AlxbLcO8SRtlM7tesGx1V3Xnv88nIsOvVmV1Zv0yv5U1mwEAAAAAAAAAAAAAAAAAAAAAAAAAAAAAAAAAAAAAAAAAAAAAAAAAAAAAAAAAAAAAAAAAAAAAAAAAAAAAAFzZb0fvzVdNeLZqw8XarVl0/TI821VbteHxTluz//1VWrcMd9xyQFUujm/NzppwuNHkoV0M16BvwtPY/QiwUxcns1n3zezjjasPbbgG56oPoDqr5sa8b8JDE0HYfDJswnex+xEgTvWhirgYcQ3Ou8Nrt926QFXO2uvz1XL/kQkkbDyB9O3+Sex+BNipi+OPZqtl+MLkETafPJrwtDs8OHDrAlUZFdvVLoalq74Jn8XuR4CdUn2E0ZOg2C5QHbHdMEUFJbYL1EdsN4yfQMR2gdqI7YZpqg+xXaA2qo8wfu9DbBeojY3zMMnGueoDqI7Ybhi9dCW2C1RH9RHEdgHWnjyctnsxycZ5u7jr7qtEdzg7GI5X7o727nXLvc/7ZnGiuQZbuQfa4d9030i2cR7EdnnXZDFMEuHBq6+HLTpHLUzy1KVlHusU2xXb5Q26ZnF3mDB+/7ylgc41iHcPJPxSmepDbJfXKo2zdv9YhWHCTGXC7JvF82Srj+O/zrpm7++xr1HOrRfbLaPa+P3j9tFvKM01yOWlMrHd0ffqecp7W7yDicNgnfKEnfJprGK7Zfcvb2HiiD84avk+nYrtTnL/ng8Jzth9yZp7HKs2nBq8DOCp3wMpP532JzfnZ35HxQYjuKzq8HW06AOjdsWn02W4k+IPWWx3ourjMM1gBG+g6jBwZzVxJfx0KrY7vn/7ZTiN3Y9cQffN7PZZG55EHxA016CAp1Ox3Qkmj8Zpu1nolrM7lqwM3LlN3mK7RbfzVIMRvOZFEz7zMmD0H4tW0NOp2G7ZwQhenzwMXgbv/O6BZJ9OxXan6d9ObDdtJo/og6BW4NPpxcnB7KxdnOjfMoMRmDwM3HlPXulXH/GvUc7tPNWlSf69YR7/JtFcg+KeTsV2y+7f6g1RXWkrk1fGk1eyT6cXx7dnXbv4WwLXKNvWJxyMqN7Lo0m8XR79R6KV+XTqtN1ylybxhrmBO/PJK+WnU7Hdafp3RppWy/B57AFAcw1K/NaH2O4k9/W56iNR9j0M3LlP3ik/nYrtlr00Wb2+CQ9jDwCaa1Di06nY7jTVR5fo0mT1LF0ZuHOfvPs2/DPVH7LYruqjaFJX8QdArcyn04uT/5h1y/CJ/i0zGFE91YfBO/vBLeG1cbHdcpcmUX3EH/y00QNMqk+nYrtlByOqp/owgOc+gaUa2x10h7MPLQ+rPorl5o4/AGrjnk67w4ODWaKctjvy/l4ufojdh1xi1ezdM3gZwDO+B1KP7d5O4Brl3M5TXZrk5QSyeJTATaK5BsWtjYvtlh2MqJ6nIxNX5hNXsl+iE9sd379iu4mzeR59ANQKfToV2x3/cNC34TB2P/IWqzY8NogZxDO9B5JdGxfbnab6iN2PvIXlq+gDoFZg9fFy41xst9hgBL+zfGUAz3USS3lt3Gm7E/Sx2G76nLobfyDUylobd9pu2UuTvOasDU8MYAbx3O6BlNfGxXbLXZrkj987T2Aw0FyDUtbGVR/TPByoPjLQNYu7Bm+Dd4b3wI+zRIntlrs0yR/0X4fDBAYDzTVYa4BJ9elUbHea6iN2P3JFfbN4YPAygWV1DyS8Nq76KHdpkjfwAmECA6K2xtPp4nmy1cfJgdN2C16a5A0ksAzgOU1gqX7rw8Z52UuTXGK1DM9iDwqaa5D72rjYbtlLk1zC4G3wzuQeSHZtXPUxvn/FdjOVwMCguQZZVx82zstdmuQdDF4msAzugfNuGe6k+GMW252m+ojdj2wogcFBcw2yXRtXfZS7NMkVGLxMYInfA8kmc8R2J+lfsd2cSWFFHyC1t1yDfhlOZylvnDeLTh+W93DAFZlADOCpDoApJ3PEdstemuSKvIkef6DU8lobF9st+0QB1tC34aEBzCCe2j2QcjLn16P3571v6IzrX7HdMvTN4iT2YKG5BtlUH8cfDcu+X7hny3w4YE2r5d7nfgwG8KTugYS/gy22W+7DARsY1iGjDxiaa/DaAJPq2rjY7vj7tG/DP2P3IxNbNUEU0SSWxiSWaDJHbLfshwNGkMRKYODUxHZLvwcSfThgJJ+1TeDHpSWbzBHbHX9/iu0WrGsWdw1gBvGY90DKyZwXyw/mqvQyHw6YiH0QE0jECSTZZI7YbtkPB0ykbxYPVCEmkSjVR8LJHLHdch8OmJBlLJNHrOoj1WSO2K7qgzU4nsEksvMJJPnYbnimMi/v4YAtcKyJCUT18YrTdst9OGBLusPZgc10k0jtyRyx3bKXJtkiVYgJZHff+jg4SPHHLLZb7sMBW6YKMYHUnMwR253m4SB2PxKRKsQksu3qI9UfuNhuuQ8H7LAK6dvFk34ZnmmuwcT3wNPuaO9eij9msd2yHw4AtkJsd5qlSRvnQHXEdieYQMR2gdqI7ao+ADZy1l6fr5b7j3aQPiu2ie0C1RHbLfudHoCtEdsdv3EutgtU5+L41uysCYexl39ybmK7QHXEdieZQM67ZbgTuy8Bdkpsd4IJRGwXqI3Y7kTVh9N2gdr897d/GWK7/xV7/yDnJrYLVEdsd4LJQ2wXqNGq2Z/7TO24patVE+7H7keAnZ+2u1qGL2Iv/+TcxHaB6ojtTjKBnHft4tPYfQmw88/U9k34R+wn+Kyb2C5QG7HdiaoPsV2gNv/65prqY+Tk0bf7x7H7EWCnxHaniu1eu+3WBaoitjt+6UpsF6iO2O401UfsfgTYKbHdiTbOxXaB2ojtiu0CrE1sV2wXYCO/ie2OXroS2wWqc3H811nX7P190jewK2tiu0CVxHbHVx9iu0B1xHanqT5i9yPATontTrRxfrT3n25doCpn7fX5qg0PYu8fZN2ctgvURmx3ourDeVdAbcR2x08e/TKcxu5HgJ0S2x1ffYjtwg5cnNzdbTu+vaVWzu0itju++hDbpbo17+Gso2Hp4l87bN3htY932trF37bU7g7fycid2O401UfsfoSd6g5nB6t28XjVLLroyZU82/mLo/DZMBHnSmx3mvtAbJcqDU/RCQzE+baXX5mbHcwytTq5MT9rFyfRr2POTWyXmq3a8Dj6jzDj1jf7JzlWIWK7k/S/2C51U4WMHkSed9/OsvvW9W9H7837Jvwj9gSc+cb5d7H7EaLrm8VpAj/IfFsTvs8plTWkyIYgQPTrlnET24XXN9SbYDN93GdL7+ZyQ4ntjp5AxHbhdb3N1LGDyuMcqhCx3Wmqj9j9CMlVIcMPI/bSQOZxznspb6iL7U7Tz14ahDewoV52rHeoPsR2R/exjXO4jFhvubHe4dQBe10jq0yn7cLlVCGjlziep1qF/HJ8a9Z9HQ4TWO7LsYntwlX0Tfg+gR9svi3hWO+vR+/P+zY8iX6NMmtiu3BFYr3lxnqHiU2VuX5/2jiHNYj1lhvrHU5htte1XvURu88gK2K95cZ6X8Z5D699bENd9QFb0zV792KvPWfdEo71dicHqsyr9OFy8UPsvoJsWeooM9b7qgqZfbhqwvPoE226TWwXxrDhWm6sd/iiYvd1+DyBgTrFJrYLUxDrLTfWa0P9zX0mtgsTEeudYClErDer/urb8KUBBCYi1lturPesvT5fLfcfJTBwJ9HEdmE7sd5nsX/cuVch6W6oi/X+u5+8NAhbYMN15CQi1pt+E9uF7RHrLTvWW3mVKbYL2yTWO3qQEutNdPLwrQ/YAbHecYPVWRtOU91QrzXWK7YLOzJ8VMc5SuOedsV60+qPvt1PdEqHAon1lhvrXTU35n0THtZUfcS+5lAVsd7SY70vz8nqYg/uO2hiuxCDWO/IwUusN4X2o9EDIqlxw3XKJtYb9fqL7UJMYr0lx3qL7l+xXUiBWO8Esd4E90JKjvWK7UIixHrHPw13y3BnNkt0Q30ZPok94E/cxHYhJWK95cZ6+69uzvtm8SCBgX+SJrYLaX4zxOdRS3y5sKxYr9gupEisd4JY70mS++mz4f/VN4uT7KuPNvwU+1oClyhxw3WnA1yip/UOfjt6b575ab1iu5CygmOfu2pivdu6tk34LvbvA3iH1XL/hwQG4mybWO/017RvFs+HtKAfLyROrLfwWO/w+dvMrqfTdiEjYr2jBz2x3smqD6ftQlbEeieoQsR6J6k+Vk24H/v3AKxJrHfk4NeEpxfHt5K87345vjX072Hy1YfYLuRLrHfc03Pf/uUw1Vjvr0fvz/s2PEm6irNxDvkS6x09CIr1bl7Bie1C7oaP9iTwNJptE+td/5qJ7UIhxHpHTyLn3Tez20nHetM6J0tsF0oi1lturPflOVltOudkie1CYcR6q4j1pnAas9gulCiH2GfSLeFY78XxR0nEtvsm/Bz7WgBbItZbbqw3gc/fiu1CycR6Rw+SYr2XV2hiu1A6sd5yvxly1l6fr5b7j1QfwFaI9U6wVCPW+4elvf1EM2rA5FKKfWbaxHr/tyJz2i5URay3/Fjvjj5/K7YLNRLrHTd49m34Z+2xXrFdqNgwCCawHJRrqz3WK7YLNRPrHT2I1hvrFdsFxHrLjfWumhvzvgkPVR/A9mK98ZeDcm6Jx3pfnpM15Wm9YrvA/xHrHT2oVhPrHWK73eFBkst2QARivRNUIbXEeptwP/bfBCRGrHeKKiTVWO80G+peGgQuJdY7dm+g6FjvebcMd2L/HUCixHoLjvUOS1nL8MmIpSun7QJvJ9Zbbqy3/+rmvG8WDzaqPg6vJZk0AxIi1jtBFVJWrFdsF7i6vlmcjt1wrbylHettrh7rFdsF1iLWW26sd/Db0XvzK8Z6nbYLrE+sd4oqJO9Yr9gusLFhAElgOSjXlnusd6iiPo39/wQyJdZbeKz38NrHl/7fxXaBscR6q4z1iu0C44n1TlCFfJtVrFdsF5iOWO/ISWS5/yjVWO8vx7f+X2DiVWzXS4PARMR6y471/nr0/rxvwxOxXWArxHpHTyKPL44/SjrW2zfh59j/F6BQYr3jqpAXR+GzVDfUX+2H+FAUsCViveXGegG2Tqy33FgvwFYNHxUa+RRee0s21guwdWK95cZ6AXYR613nmxJaRrFegK3q26t/U0LLK9YLsHViveXGegG2Sqx3gg11sV6gVmK94yYRsV6gWmK9Yr0AGxPrHTmJNOF7sV6gSmK9o6sQsV6gXmK9oycRsV6g3ipErFesF2AjXbO466XBUXshT8V6gSq9WH4wH5ZiTCJivQAbfdnOBDLy5UKn9QI16r+6Oe+bxQOTiFgvwAafRp196LResV6AtXUnB2K9k8R63XxApVVI34RnlrJGvFx4tHfPab1AnRvqzd49E4hYL8DaxHpHL2M5rReok1jv+AnEN0OAaq2aG/O+CQ8tZYn1AqxFrHeSKsRpvUCdxHonmUTEeoH6iPVOVIWI9QI1EuudYBJxWi9QK7FesV6AjYj1ivUCbEysd/wkctaGU+dkAdUR6xXrBdiYWK9YL8BGxHqnq0Kc1gtU5+L4o1n3dfjcESdivQBrE+sV6wXYiFivWC/AxsR6xXoBRmyoX/t41YTOfojTegHWItYr1guwEbFeLxcCbEysd6LTek8O3IVAfcR6xXoBNiLWK9YLsLGz9vp8tdx/JJE18rTeEzchUBmx3ok21JfhTuy+BNg5sV6xXoCx3wx5binLy4UAaxHrFesF2JhYr1gvwEbEesV6ATYm1jtBIuvw2m23IFAdsd5xk0e/DKex+xAgGrHezSaQfjgbS/UB1Oy1WK9vhqxRfayacD923wFE98vxrVn3dTj0XsjVq4/YfQaQDLHeNTbO28WnsfsLIBlivVf+Lsh3sfsKIDmqELFdgI2I9b4jttvuH7u1AC4h1vu22O6Bb9oCXEasV2wXYGNivX+qPn52OwFckQ11XyAE2IhYr9guwMZUIU7bBRgX653m2xm5NbFdgDFqjfU67wpgpEpjvU7bBZhCbbHevg0/uXMAJvLr0fvzvg1Paqg+fCgKYEKVxHqHpSun7QJMrfRYr8/UAmxJ4bFesV2AbSo11iu2C7BlhcZ6xXYBdqG4WO9y8YM7B2BHCor1iu0C7FIhsV6xXYAYco/1iu0CRJJ5rPe8b8OXbh6ASPqvbs77ZvEgx+rDTQMQUaaxXrFdgBRkF+t13hVAWoZloRyqD6ftAiQmg1jveb8Mp7GvEwBvsGrDjwlMFG9sYrsACRuWh1KtPlZNuB/7+gDwFn2zOE2x+tBpAInrDmcHicV6z7t28Wns6wLAFST1zRCxXYC8JBLrFdsFyE0CsV6fqQXIVcxY76vY7sFB7GsAwAa6ZbgTq/oQ2wXIXIxYb9+En2P/3QDkF+s9HyofHQdQgJ3GesV2AcrSN+HZTqqPw2u3Y/+tAOQV6xXbBSjRi+UH81UbHm9x49x5VwAlujjeahUitgtQsv6rm/O+WTyYvPpow0+x/zYAtuji5GWs98OJY702zgFq0J0cTBnrHZauvov9NwGwwypkilivz9QCVGaiDXWxXYAajY31iu0CVGpkFSK2C1CzjWO9y8UPsf/vAOQX6xXbBWDtWK/YLgDrx3rFdgH484Z6s3fv3bHd8KVLB8BasV6xXQA2ifWK7QJwuVVzY9434eGfJhDnXQGwQaxXbBeAtWO95/0ynLpuAKwT630qtgvAZrHeJtx36QAAAAAAAAAAAAAAAAAAAAAAAAAAAAAAAAAAAAAAAAAAAAAAAAAAAAAAAAAAAAAAAAAAAAAAAAAAAIBZzv4HlNw5e72xAR0AAAAASUVORK5CYII=;" parent="DBhOnroe0UzR9Imo3tEQ-78" vertex="1">
          <mxGeometry x="97.40017019637979" y="-6" width="30.891617981307885" height="30.891617981307885" as="geometry" />
        </mxCell>
        <mxCell id="irkbpjeK_2gSpIbQbNrz-119" value="" style="group" vertex="1" connectable="0" parent="DBhOnroe0UzR9Imo3tEQ-78">
          <mxGeometry x="16.48101139880464" y="21.301737359213917" width="63" height="99.6" as="geometry" />
        </mxCell>
        <mxCell id="irkbpjeK_2gSpIbQbNrz-120" value="" style="group" vertex="1" connectable="0" parent="irkbpjeK_2gSpIbQbNrz-119">
          <mxGeometry width="63" height="99.6" as="geometry" />
        </mxCell>
        <mxCell id="irkbpjeK_2gSpIbQbNrz-121" value="" style="image;sketch=0;aspect=fixed;html=1;points=[];align=center;fontSize=12;image=img/lib/mscae/Chart.svg;movable=1;resizable=1;rotatable=1;deletable=1;editable=1;locked=0;connectable=1;" vertex="1" parent="irkbpjeK_2gSpIbQbNrz-120">
          <mxGeometry x="28" y="66" width="35" height="33.6" as="geometry" />
        </mxCell>
        <mxCell id="irkbpjeK_2gSpIbQbNrz-122" value="" style="sketch=0;pointerEvents=1;shadow=0;dashed=0;html=1;strokeColor=none;fillColor=#505050;labelPosition=center;verticalLabelPosition=bottom;verticalAlign=top;outlineConnect=0;align=center;shape=mxgraph.office.servers.server_generic;movable=1;resizable=1;rotatable=1;deletable=1;editable=1;locked=0;connectable=1;" vertex="1" parent="irkbpjeK_2gSpIbQbNrz-120">
          <mxGeometry width="40" height="72" as="geometry" />
        </mxCell>
        <mxCell id="irkbpjeK_2gSpIbQbNrz-117" value="" style="aspect=fixed;sketch=0;html=1;dashed=0;whitespace=wrap;fillColor=#CDA2BE;strokeColor=#ffffff;points=[[0.005,0.63,0],[0.1,0.2,0],[0.9,0.2,0],[0.5,0,0],[0.995,0.63,0],[0.72,0.99,0],[0.5,1,0],[0.28,0.99,0]];shape=mxgraph.kubernetes.icon2;kubernetesLabel=1;prIcon=quota" vertex="1" parent="DBhOnroe0UzR9Imo3tEQ-78">
          <mxGeometry x="69.52028216072708" y="21.303326144260765" width="34" height="32.64" as="geometry" />
        </mxCell>
        <mxCell id="DBhOnroe0UzR9Imo3tEQ-85" value="" style="aspect=fixed;sketch=0;html=1;dashed=0;whitespace=wrap;fillColor=#CDA2BE;strokeColor=#ffffff;points=[[0.005,0.63,0],[0.1,0.2,0],[0.9,0.2,0],[0.5,0,0],[0.995,0.63,0],[0.72,0.99,0],[0.5,1,0],[0.28,0.99,0]];shape=mxgraph.kubernetes.icon2;kubernetesLabel=1;prIcon=sa;labelPosition=right;verticalLabelPosition=middle;align=left;verticalAlign=middle;fontStyle=1;fontColor=#6666FF;" parent="DBhOnroe0UzR9Imo3tEQ-77" vertex="1">
          <mxGeometry x="-1.9687420363666917" y="142.34449796309607" width="28" height="26.88" as="geometry" />
        </mxCell>
        <mxCell id="irkbpjeK_2gSpIbQbNrz-87" value="" style="aspect=fixed;sketch=0;html=1;dashed=0;whitespace=wrap;fillColor=#CDA2BE;strokeColor=#ffffff;points=[[0.005,0.63,0],[0.1,0.2,0],[0.9,0.2,0],[0.5,0,0],[0.995,0.63,0],[0.72,0.99,0],[0.5,1,0],[0.28,0.99,0]];shape=mxgraph.kubernetes.icon2;kubernetesLabel=1;prIcon=rb" vertex="1" parent="DBhOnroe0UzR9Imo3tEQ-74">
          <mxGeometry x="155.1599302254098" y="76.99065420560748" width="34" height="32.64" as="geometry" />
        </mxCell>
        <mxCell id="irkbpjeK_2gSpIbQbNrz-100" value="" style="aspect=fixed;sketch=0;html=1;dashed=0;whitespace=wrap;fillColor=#CDA2BE;strokeColor=#ffffff;points=[[0.005,0.63,0],[0.1,0.2,0],[0.9,0.2,0],[0.5,0,0],[0.995,0.63,0],[0.72,0.99,0],[0.5,1,0],[0.28,0.99,0]];shape=mxgraph.kubernetes.icon2;prIcon=c_role;strokeWidth=2;" vertex="1" parent="DBhOnroe0UzR9Imo3tEQ-74">
          <mxGeometry x="122.77993022540977" y="215.99065420560748" width="34" height="32.64" as="geometry" />
        </mxCell>
        <mxCell id="irkbpjeK_2gSpIbQbNrz-12" value="" style="aspect=fixed;sketch=0;html=1;dashed=0;whitespace=wrap;fillColor=#CDA2BE;strokeColor=#ffffff;points=[[0.005,0.63,0],[0.1,0.2,0],[0.9,0.2,0],[0.5,0,0],[0.995,0.63,0],[0.72,0.99,0],[0.5,1,0],[0.28,0.99,0]];shape=mxgraph.kubernetes.icon2;kubernetesLabel=1;prIcon=secret" vertex="1" parent="DBhOnroe0UzR9Imo3tEQ-74">
          <mxGeometry x="23.16993022540977" y="168.87065420560748" width="28" height="26.88" as="geometry" />
        </mxCell>
        <mxCell id="irkbpjeK_2gSpIbQbNrz-108" value="" style="rounded=0;orthogonalLoop=1;jettySize=auto;html=1;endArrow=none;endFill=0;strokeWidth=2;" edge="1" parent="DBhOnroe0UzR9Imo3tEQ-74" source="irkbpjeK_2gSpIbQbNrz-86" target="irkbpjeK_2gSpIbQbNrz-87">
          <mxGeometry relative="1" as="geometry" />
        </mxCell>
        <mxCell id="irkbpjeK_2gSpIbQbNrz-86" value="" style="aspect=fixed;sketch=0;html=1;dashed=0;whitespace=wrap;fillColor=#CDA2BE;strokeColor=#ffffff;points=[[0.005,0.63,0],[0.1,0.2,0],[0.9,0.2,0],[0.5,0,0],[0.995,0.63,0],[0.72,0.99,0],[0.5,1,0],[0.28,0.99,0]];shape=mxgraph.kubernetes.icon2;kubernetesLabel=1;prIcon=role" vertex="1" parent="DBhOnroe0UzR9Imo3tEQ-74">
          <mxGeometry x="155.1599302254098" y="159.8906542056075" width="34" height="32.64" as="geometry" />
        </mxCell>
        <mxCell id="irkbpjeK_2gSpIbQbNrz-107" style="rounded=0;orthogonalLoop=1;jettySize=auto;html=1;entryX=0.005;entryY=0.63;entryDx=0;entryDy=0;entryPerimeter=0;endArrow=none;endFill=0;strokeWidth=2;" edge="1" parent="DBhOnroe0UzR9Imo3tEQ-74" source="DBhOnroe0UzR9Imo3tEQ-85" target="irkbpjeK_2gSpIbQbNrz-86">
          <mxGeometry relative="1" as="geometry" />
        </mxCell>
        <mxCell id="DBhOnroe0UzR9Imo3tEQ-60" value="" style="group" parent="2j_hzL7mZvjbfzJCZ6OL-14" vertex="1" connectable="0">
          <mxGeometry x="-43.19108606557377" y="24.065420560747665" width="213.2862212090164" height="312.8504672897196" as="geometry" />
        </mxCell>
        <mxCell id="DBhOnroe0UzR9Imo3tEQ-61" value="&lt;font style=&quot;background-color: rgb(0, 127, 255);&quot;&gt;development&lt;/font&gt;" style="whiteSpace=wrap;html=1;aspect=fixed;fillColor=#f5f5f5;labelPosition=center;verticalLabelPosition=top;align=center;verticalAlign=bottom;fontStyle=1;fontColor=#FFFFFF;strokeWidth=3;strokeColor=#66B2FF;" parent="DBhOnroe0UzR9Imo3tEQ-60" vertex="1">
          <mxGeometry x="19.39" y="24.07" width="175.93" height="175.93" as="geometry" />
        </mxCell>
        <mxCell id="DBhOnroe0UzR9Imo3tEQ-62" value="" style="aspect=fixed;sketch=0;html=1;dashed=0;whitespace=wrap;fillColor=#007FFF;strokeColor=#ffffff;points=[[0.005,0.63,0],[0.1,0.2,0],[0.9,0.2,0],[0.5,0,0],[0.995,0.63,0],[0.72,0.99,0],[0.5,1,0],[0.28,0.99,0]];shape=mxgraph.kubernetes.icon2;kubernetesLabel=1;prIcon=ns" parent="DBhOnroe0UzR9Imo3tEQ-60" vertex="1">
          <mxGeometry x="185.35432238030924" y="5.219626168224297" width="30" height="28.8" as="geometry" />
        </mxCell>
        <mxCell id="DBhOnroe0UzR9Imo3tEQ-63" value="" style="group" parent="DBhOnroe0UzR9Imo3tEQ-60" vertex="1" connectable="0">
          <mxGeometry x="52.354226884851585" y="27.274143302180676" width="149.78034278727958" height="170.00013645222487" as="geometry" />
        </mxCell>
        <mxCell id="DBhOnroe0UzR9Imo3tEQ-64" value="" style="group" parent="DBhOnroe0UzR9Imo3tEQ-63" vertex="1" connectable="0">
          <mxGeometry x="-16.804368943740688" y="1.8457943925233522" width="166.58471173102026" height="135.57" as="geometry" />
        </mxCell>
        <mxCell id="DBhOnroe0UzR9Imo3tEQ-65" value="dev-vcluster" style="rounded=1;whiteSpace=wrap;html=1;dashed=1;fillColor=none;strokeColor=#FF8000;glass=0;strokeWidth=4;fontStyle=1;labelPosition=center;verticalLabelPosition=top;align=center;verticalAlign=bottom;fontColor=#FF8000;direction=south;" parent="DBhOnroe0UzR9Imo3tEQ-64" vertex="1">
          <mxGeometry y="15.24" width="110" height="120.33" as="geometry" />
        </mxCell>
        <mxCell id="DBhOnroe0UzR9Imo3tEQ-66" value="" style="shape=image;verticalLabelPosition=bottom;labelBackgroundColor=default;verticalAlign=top;aspect=fixed;imageAspect=0;image=data:image/png,iVBORw0KGgoAAAANSUhEUgAAAZAAAAGQCAYAAACAvzbMAAAACXBIWXMAABYlAAAWJQFJUiTwAAAUG0lEQVR4nO3dX3IcRZ4H8O5Qp8aA7RCO4GHezOs+mRPgOcF6LmDgBAiqWvAm3UA+AXgugPcE+ASMT4B9AlxbLcO8SRtlM7tesGx1V3Xnv88nIsOvVmV1Zv0yv5U1mwEAAAAAAAAAAAAAAAAAAAAAAAAAAAAAAAAAAAAAAAAAAAAAAAAAAAAAAAAAAAAAAAAAAAAAAAAAAAAAAFzZb0fvzVdNeLZqw8XarVl0/TI821VbteHxTluz//1VWrcMd9xyQFUujm/NzppwuNHkoV0M16BvwtPY/QiwUxcns1n3zezjjasPbbgG56oPoDqr5sa8b8JDE0HYfDJswnex+xEgTvWhirgYcQ3Ou8Nrt926QFXO2uvz1XL/kQkkbDyB9O3+Sex+BNipi+OPZqtl+MLkETafPJrwtDs8OHDrAlUZFdvVLoalq74Jn8XuR4CdUn2E0ZOg2C5QHbHdMEUFJbYL1EdsN4yfQMR2gdqI7YZpqg+xXaA2qo8wfu9DbBeojY3zMMnGueoDqI7Ybhi9dCW2C1RH9RHEdgHWnjyctnsxycZ5u7jr7qtEdzg7GI5X7o727nXLvc/7ZnGiuQZbuQfa4d9030i2cR7EdnnXZDFMEuHBq6+HLTpHLUzy1KVlHusU2xXb5Q26ZnF3mDB+/7ylgc41iHcPJPxSmepDbJfXKo2zdv9YhWHCTGXC7JvF82Srj+O/zrpm7++xr1HOrRfbLaPa+P3j9tFvKM01yOWlMrHd0ffqecp7W7yDicNgnfKEnfJprGK7Zfcvb2HiiD84avk+nYrtTnL/ng8Jzth9yZp7HKs2nBq8DOCp3wMpP532JzfnZ35HxQYjuKzq8HW06AOjdsWn02W4k+IPWWx3ourjMM1gBG+g6jBwZzVxJfx0KrY7vn/7ZTiN3Y9cQffN7PZZG55EHxA016CAp1Ox3Qkmj8Zpu1nolrM7lqwM3LlN3mK7RbfzVIMRvOZFEz7zMmD0H4tW0NOp2G7ZwQhenzwMXgbv/O6BZJ9OxXan6d9ObDdtJo/og6BW4NPpxcnB7KxdnOjfMoMRmDwM3HlPXulXH/GvUc7tPNWlSf69YR7/JtFcg+KeTsV2y+7f6g1RXWkrk1fGk1eyT6cXx7dnXbv4WwLXKNvWJxyMqN7Lo0m8XR79R6KV+XTqtN1ylybxhrmBO/PJK+WnU7Hdafp3RppWy/B57AFAcw1K/NaH2O4k9/W56iNR9j0M3LlP3ik/nYrtlr00Wb2+CQ9jDwCaa1Di06nY7jTVR5fo0mT1LF0ZuHOfvPs2/DPVH7LYruqjaFJX8QdArcyn04uT/5h1y/CJ/i0zGFE91YfBO/vBLeG1cbHdcpcmUX3EH/y00QNMqk+nYrtlByOqp/owgOc+gaUa2x10h7MPLQ+rPorl5o4/AGrjnk67w4ODWaKctjvy/l4ufojdh1xi1ezdM3gZwDO+B1KP7d5O4Brl3M5TXZrk5QSyeJTATaK5BsWtjYvtlh2MqJ6nIxNX5hNXsl+iE9sd379iu4mzeR59ANQKfToV2x3/cNC34TB2P/IWqzY8NogZxDO9B5JdGxfbnab6iN2PvIXlq+gDoFZg9fFy41xst9hgBL+zfGUAz3USS3lt3Gm7E/Sx2G76nLobfyDUylobd9pu2UuTvOasDU8MYAbx3O6BlNfGxXbLXZrkj987T2Aw0FyDUtbGVR/TPByoPjLQNYu7Bm+Dd4b3wI+zRIntlrs0yR/0X4fDBAYDzTVYa4BJ9elUbHea6iN2P3JFfbN4YPAygWV1DyS8Nq76KHdpkjfwAmECA6K2xtPp4nmy1cfJgdN2C16a5A0ksAzgOU1gqX7rw8Z52UuTXGK1DM9iDwqaa5D72rjYbtlLk1zC4G3wzuQeSHZtXPUxvn/FdjOVwMCguQZZVx82zstdmuQdDF4msAzugfNuGe6k+GMW252m+ojdj2wogcFBcw2yXRtXfZS7NMkVGLxMYInfA8kmc8R2J+lfsd2cSWFFHyC1t1yDfhlOZylvnDeLTh+W93DAFZlADOCpDoApJ3PEdstemuSKvIkef6DU8lobF9st+0QB1tC34aEBzCCe2j2QcjLn16P3571v6IzrX7HdMvTN4iT2YKG5BtlUH8cfDcu+X7hny3w4YE2r5d7nfgwG8KTugYS/gy22W+7DARsY1iGjDxiaa/DaAJPq2rjY7vj7tG/DP2P3IxNbNUEU0SSWxiSWaDJHbLfshwNGkMRKYODUxHZLvwcSfThgJJ+1TeDHpSWbzBHbHX9/iu0WrGsWdw1gBvGY90DKyZwXyw/mqvQyHw6YiH0QE0jECSTZZI7YbtkPB0ykbxYPVCEmkSjVR8LJHLHdch8OmJBlLJNHrOoj1WSO2K7qgzU4nsEksvMJJPnYbnimMi/v4YAtcKyJCUT18YrTdst9OGBLusPZgc10k0jtyRyx3bKXJtkiVYgJZHff+jg4SPHHLLZb7sMBW6YKMYHUnMwR253m4SB2PxKRKsQksu3qI9UfuNhuuQ8H7LAK6dvFk34ZnmmuwcT3wNPuaO9eij9msd2yHw4AtkJsd5qlSRvnQHXEdieYQMR2gdqI7ao+ADZy1l6fr5b7j3aQPiu2ie0C1RHbLfudHoCtEdsdv3EutgtU5+L41uysCYexl39ybmK7QHXEdieZQM67ZbgTuy8Bdkpsd4IJRGwXqI3Y7kTVh9N2gdr897d/GWK7/xV7/yDnJrYLVEdsd4LJQ2wXqNGq2Z/7TO24patVE+7H7keAnZ+2u1qGL2Iv/+TcxHaB6ojtTjKBnHft4tPYfQmw88/U9k34R+wn+Kyb2C5QG7HdiaoPsV2gNv/65prqY+Tk0bf7x7H7EWCnxHaniu1eu+3WBaoitjt+6UpsF6iO2O401UfsfgTYKbHdiTbOxXaB2ojtiu0CrE1sV2wXYCO/ie2OXroS2wWqc3H811nX7P190jewK2tiu0CVxHbHVx9iu0B1xHanqT5i9yPATontTrRxfrT3n25doCpn7fX5qg0PYu8fZN2ctgvURmx3ourDeVdAbcR2x08e/TKcxu5HgJ0S2x1ffYjtwg5cnNzdbTu+vaVWzu0itju++hDbpbo17+Gso2Hp4l87bN3htY932trF37bU7g7fycid2O401UfsfoSd6g5nB6t28XjVLLroyZU82/mLo/DZMBHnSmx3mvtAbJcqDU/RCQzE+baXX5mbHcwytTq5MT9rFyfRr2POTWyXmq3a8Dj6jzDj1jf7JzlWIWK7k/S/2C51U4WMHkSed9/OsvvW9W9H7837Jvwj9gSc+cb5d7H7EaLrm8VpAj/IfFsTvs8plTWkyIYgQPTrlnET24XXN9SbYDN93GdL7+ZyQ4ntjp5AxHbhdb3N1LGDyuMcqhCx3Wmqj9j9CMlVIcMPI/bSQOZxznspb6iL7U7Tz14ahDewoV52rHeoPsR2R/exjXO4jFhvubHe4dQBe10jq0yn7cLlVCGjlziep1qF/HJ8a9Z9HQ4TWO7LsYntwlX0Tfg+gR9svi3hWO+vR+/P+zY8iX6NMmtiu3BFYr3lxnqHiU2VuX5/2jiHNYj1lhvrHU5htte1XvURu88gK2K95cZ6X8Z5D699bENd9QFb0zV792KvPWfdEo71dicHqsyr9OFy8UPsvoJsWeooM9b7qgqZfbhqwvPoE226TWwXxrDhWm6sd/iiYvd1+DyBgTrFJrYLUxDrLTfWa0P9zX0mtgsTEeudYClErDer/urb8KUBBCYi1lturPesvT5fLfcfJTBwJ9HEdmE7sd5nsX/cuVch6W6oi/X+u5+8NAhbYMN15CQi1pt+E9uF7RHrLTvWW3mVKbYL2yTWO3qQEutNdPLwrQ/YAbHecYPVWRtOU91QrzXWK7YLOzJ8VMc5SuOedsV60+qPvt1PdEqHAon1lhvrXTU35n0THtZUfcS+5lAVsd7SY70vz8nqYg/uO2hiuxCDWO/IwUusN4X2o9EDIqlxw3XKJtYb9fqL7UJMYr0lx3qL7l+xXUiBWO8Esd4E90JKjvWK7UIixHrHPw13y3BnNkt0Q30ZPok94E/cxHYhJWK95cZ6+69uzvtm8SCBgX+SJrYLaX4zxOdRS3y5sKxYr9gupEisd4JY70mS++mz4f/VN4uT7KuPNvwU+1oClyhxw3WnA1yip/UOfjt6b575ab1iu5CygmOfu2pivdu6tk34LvbvA3iH1XL/hwQG4mybWO/017RvFs+HtKAfLyROrLfwWO/w+dvMrqfTdiEjYr2jBz2x3smqD6ftQlbEeieoQsR6J6k+Vk24H/v3AKxJrHfk4NeEpxfHt5K87345vjX072Hy1YfYLuRLrHfc03Pf/uUw1Vjvr0fvz/s2PEm6irNxDvkS6x09CIr1bl7Bie1C7oaP9iTwNJptE+td/5qJ7UIhxHpHTyLn3Tez20nHetM6J0tsF0oi1lturPflOVltOudkie1CYcR6q4j1pnAas9gulCiH2GfSLeFY78XxR0nEtvsm/Bz7WgBbItZbbqw3gc/fiu1CycR6Rw+SYr2XV2hiu1A6sd5yvxly1l6fr5b7j1QfwFaI9U6wVCPW+4elvf1EM2rA5FKKfWbaxHr/tyJz2i5URay3/Fjvjj5/K7YLNRLrHTd49m34Z+2xXrFdqNgwCCawHJRrqz3WK7YLNRPrHT2I1hvrFdsFxHrLjfWumhvzvgkPVR/A9mK98ZeDcm6Jx3pfnpM15Wm9YrvA/xHrHT2oVhPrHWK73eFBkst2QARivRNUIbXEeptwP/bfBCRGrHeKKiTVWO80G+peGgQuJdY7dm+g6FjvebcMd2L/HUCixHoLjvUOS1nL8MmIpSun7QJvJ9Zbbqy3/+rmvG8WDzaqPg6vJZk0AxIi1jtBFVJWrFdsF7i6vlmcjt1wrbylHettrh7rFdsF1iLWW26sd/Db0XvzK8Z6nbYLrE+sd4oqJO9Yr9gusLFhAElgOSjXlnusd6iiPo39/wQyJdZbeKz38NrHl/7fxXaBscR6q4z1iu0C44n1TlCFfJtVrFdsF5iOWO/ISWS5/yjVWO8vx7f+X2DiVWzXS4PARMR6y471/nr0/rxvwxOxXWArxHpHTyKPL44/SjrW2zfh59j/F6BQYr3jqpAXR+GzVDfUX+2H+FAUsCViveXGegG2Tqy33FgvwFYNHxUa+RRee0s21guwdWK95cZ6AXYR613nmxJaRrFegK3q26t/U0LLK9YLsHViveXGegG2Sqx3gg11sV6gVmK94yYRsV6gWmK9Yr0AGxPrHTmJNOF7sV6gSmK9o6sQsV6gXmK9oycRsV6g3ipErFesF2AjXbO466XBUXshT8V6gSq9WH4wH5ZiTCJivQAbfdnOBDLy5UKn9QI16r+6Oe+bxQOTiFgvwAafRp196LResV6AtXUnB2K9k8R63XxApVVI34RnlrJGvFx4tHfPab1AnRvqzd49E4hYL8DaxHpHL2M5rReok1jv+AnEN0OAaq2aG/O+CQ8tZYn1AqxFrHeSKsRpvUCdxHonmUTEeoH6iPVOVIWI9QI1EuudYBJxWi9QK7FesV6AjYj1ivUCbEysd/wkctaGU+dkAdUR6xXrBdiYWK9YL8BGxHqnq0Kc1gtU5+L4o1n3dfjcESdivQBrE+sV6wXYiFivWC/AxsR6xXoBRmyoX/t41YTOfojTegHWItYr1guwEbFeLxcCbEysd6LTek8O3IVAfcR6xXoBNiLWK9YLsLGz9vp8tdx/JJE18rTeEzchUBmx3ok21JfhTuy+BNg5sV6xXoCx3wx5binLy4UAaxHrFesF2JhYr1gvwEbEesV6ATYm1jtBIuvw2m23IFAdsd5xk0e/DKex+xAgGrHezSaQfjgbS/UB1Oy1WK9vhqxRfayacD923wFE98vxrVn3dTj0XsjVq4/YfQaQDLHeNTbO28WnsfsLIBlivVf+Lsh3sfsKIDmqELFdgI2I9b4jttvuH7u1AC4h1vu22O6Bb9oCXEasV2wXYGNivX+qPn52OwFckQ11XyAE2IhYr9guwMZUIU7bBRgX653m2xm5NbFdgDFqjfU67wpgpEpjvU7bBZhCbbHevg0/uXMAJvLr0fvzvg1Paqg+fCgKYEKVxHqHpSun7QJMrfRYr8/UAmxJ4bFesV2AbSo11iu2C7BlhcZ6xXYBdqG4WO9y8YM7B2BHCor1iu0C7FIhsV6xXYAYco/1iu0CRJJ5rPe8b8OXbh6ASPqvbs77ZvEgx+rDTQMQUaaxXrFdgBRkF+t13hVAWoZloRyqD6ftAiQmg1jveb8Mp7GvEwBvsGrDjwlMFG9sYrsACRuWh1KtPlZNuB/7+gDwFn2zOE2x+tBpAInrDmcHicV6z7t28Wns6wLAFST1zRCxXYC8JBLrFdsFyE0CsV6fqQXIVcxY76vY7sFB7GsAwAa6ZbgTq/oQ2wXIXIxYb9+En2P/3QDkF+s9HyofHQdQgJ3GesV2AcrSN+HZTqqPw2u3Y/+tAOQV6xXbBSjRi+UH81UbHm9x49x5VwAlujjeahUitgtQsv6rm/O+WTyYvPpow0+x/zYAtuji5GWs98OJY702zgFq0J0cTBnrHZauvov9NwGwwypkilivz9QCVGaiDXWxXYAajY31iu0CVGpkFSK2C1CzjWO9y8UPsf/vAOQX6xXbBWDtWK/YLgDrx3rFdgH484Z6s3fv3bHd8KVLB8BasV6xXQA2ifWK7QJwuVVzY9434eGfJhDnXQGwQaxXbBeAtWO95/0ynLpuAKwT630qtgvAZrHeJtx36QAAAAAAAAAAAAAAAAAAAAAAAAAAAAAAAAAAAAAAAAAAAAAAAAAAAAAAAAAAAAAAAAAAAAAAAAAAAIBZzv4HlNw5e72xAR0AAAAASUVORK5CYII=;" parent="DBhOnroe0UzR9Imo3tEQ-64" vertex="1">
          <mxGeometry x="95.608952641735" y="2" width="31.598301406402676" height="31.598301406402676" as="geometry" />
        </mxCell>
        <mxCell id="irkbpjeK_2gSpIbQbNrz-123" value="" style="group" vertex="1" connectable="0" parent="DBhOnroe0UzR9Imo3tEQ-64">
          <mxGeometry x="23.435440969097783" y="24.81912772585659" width="83.14927076192248" height="99.6" as="geometry" />
        </mxCell>
        <mxCell id="irkbpjeK_2gSpIbQbNrz-124" value="" style="group" vertex="1" connectable="0" parent="irkbpjeK_2gSpIbQbNrz-123">
          <mxGeometry width="83.14927076192248" height="99.6" as="geometry" />
        </mxCell>
        <mxCell id="irkbpjeK_2gSpIbQbNrz-125" value="" style="image;sketch=0;aspect=fixed;html=1;points=[];align=center;fontSize=12;image=img/lib/mscae/Chart.svg;movable=1;resizable=1;rotatable=1;deletable=1;editable=1;locked=0;connectable=1;" vertex="1" parent="irkbpjeK_2gSpIbQbNrz-124">
          <mxGeometry x="28" y="66" width="35" height="33.6" as="geometry" />
        </mxCell>
        <mxCell id="irkbpjeK_2gSpIbQbNrz-126" value="" style="sketch=0;pointerEvents=1;shadow=0;dashed=0;html=1;strokeColor=none;fillColor=#505050;labelPosition=center;verticalLabelPosition=bottom;verticalAlign=top;outlineConnect=0;align=center;shape=mxgraph.office.servers.server_generic;movable=1;resizable=1;rotatable=1;deletable=1;editable=1;locked=0;connectable=1;" vertex="1" parent="irkbpjeK_2gSpIbQbNrz-124">
          <mxGeometry width="40" height="72" as="geometry" />
        </mxCell>
        <mxCell id="irkbpjeK_2gSpIbQbNrz-115" value="" style="aspect=fixed;sketch=0;html=1;dashed=0;whitespace=wrap;fillColor=#66B2FF;strokeColor=#ffffff;points=[[0.005,0.63,0],[0.1,0.2,0],[0.9,0.2,0],[0.5,0,0],[0.995,0.63,0],[0.72,0.99,0],[0.5,1,0],[0.28,0.99,0]];shape=mxgraph.kubernetes.icon2;kubernetesLabel=1;prIcon=quota" vertex="1" parent="irkbpjeK_2gSpIbQbNrz-124">
          <mxGeometry x="49.14927076192248" y="-1.9484112149531256" width="34" height="32.64" as="geometry" />
        </mxCell>
        <mxCell id="DBhOnroe0UzR9Imo3tEQ-71" value="" style="aspect=fixed;sketch=0;html=1;dashed=0;whitespace=wrap;fillColor=#66B2FF;strokeColor=#ffffff;points=[[0.005,0.63,0],[0.1,0.2,0],[0.9,0.2,0],[0.5,0,0],[0.995,0.63,0],[0.72,0.99,0],[0.5,1,0],[0.28,0.99,0]];shape=mxgraph.kubernetes.icon2;kubernetesLabel=1;prIcon=sa;labelPosition=right;verticalLabelPosition=middle;align=left;verticalAlign=middle;fontStyle=1;fontColor=#6666FF;" parent="DBhOnroe0UzR9Imo3tEQ-63" vertex="1">
          <mxGeometry x="-2.8499999999999996" y="141" width="28" height="26.88" as="geometry" />
        </mxCell>
        <mxCell id="irkbpjeK_2gSpIbQbNrz-10" value="" style="aspect=fixed;sketch=0;html=1;dashed=0;whitespace=wrap;fillColor=#66B2FF;strokeColor=#ffffff;points=[[0.005,0.63,0],[0.1,0.2,0],[0.9,0.2,0],[0.5,0,0],[0.995,0.63,0],[0.72,0.99,0],[0.5,1,0],[0.28,0.99,0]];shape=mxgraph.kubernetes.icon2;kubernetesLabel=1;prIcon=role" vertex="1" parent="DBhOnroe0UzR9Imo3tEQ-63">
          <mxGeometry x="99.78034278727955" y="133.7165109034268" width="34" height="32.64" as="geometry" />
        </mxCell>
        <mxCell id="irkbpjeK_2gSpIbQbNrz-105" style="rounded=0;orthogonalLoop=1;jettySize=auto;html=1;entryX=0.005;entryY=0.63;entryDx=0;entryDy=0;entryPerimeter=0;endArrow=none;endFill=0;strokeWidth=2;" edge="1" parent="DBhOnroe0UzR9Imo3tEQ-63" source="DBhOnroe0UzR9Imo3tEQ-71" target="irkbpjeK_2gSpIbQbNrz-10">
          <mxGeometry relative="1" as="geometry" />
        </mxCell>
        <mxCell id="irkbpjeK_2gSpIbQbNrz-9" value="" style="aspect=fixed;sketch=0;html=1;dashed=0;whitespace=wrap;fillColor=#66B2FF;strokeColor=#ffffff;points=[[0.005,0.63,0],[0.1,0.2,0],[0.9,0.2,0],[0.5,0,0],[0.995,0.63,0],[0.72,0.99,0],[0.5,1,0],[0.28,0.99,0]];shape=mxgraph.kubernetes.icon2;kubernetesLabel=1;prIcon=secret" vertex="1" parent="DBhOnroe0UzR9Imo3tEQ-60">
          <mxGeometry x="21.134569672131136" y="168.99065420560748" width="28" height="26.88" as="geometry" />
        </mxCell>
        <mxCell id="irkbpjeK_2gSpIbQbNrz-11" value="" style="aspect=fixed;sketch=0;html=1;dashed=0;whitespace=wrap;fillColor=#66B2FF;strokeColor=#ffffff;points=[[0.005,0.63,0],[0.1,0.2,0],[0.9,0.2,0],[0.5,0,0],[0.995,0.63,0],[0.72,0.99,0],[0.5,1,0],[0.28,0.99,0]];shape=mxgraph.kubernetes.icon2;kubernetesLabel=1;prIcon=rb" vertex="1" parent="DBhOnroe0UzR9Imo3tEQ-60">
          <mxGeometry x="152.35456967213113" y="82.99065420560748" width="34" height="32.64" as="geometry" />
        </mxCell>
        <mxCell id="irkbpjeK_2gSpIbQbNrz-92" value="" style="aspect=fixed;sketch=0;html=1;dashed=0;whitespace=wrap;fillColor=#66B2FF;strokeColor=#ffffff;points=[[0.005,0.63,0],[0.1,0.2,0],[0.9,0.2,0],[0.5,0,0],[0.995,0.63,0],[0.72,0.99,0],[0.5,1,0],[0.28,0.99,0]];shape=mxgraph.kubernetes.icon2;prIcon=crb;strokeWidth=2;" vertex="1" parent="DBhOnroe0UzR9Imo3tEQ-60">
          <mxGeometry x="46.134569672131136" y="228.99065420560748" width="34" height="32.64" as="geometry" />
        </mxCell>
        <mxCell id="irkbpjeK_2gSpIbQbNrz-95" style="rounded=0;orthogonalLoop=1;jettySize=auto;html=1;entryX=0.5;entryY=0;entryDx=0;entryDy=0;entryPerimeter=0;endArrow=none;endFill=0;strokeWidth=2;" edge="1" parent="DBhOnroe0UzR9Imo3tEQ-60" source="DBhOnroe0UzR9Imo3tEQ-71" target="irkbpjeK_2gSpIbQbNrz-92">
          <mxGeometry relative="1" as="geometry" />
        </mxCell>
        <mxCell id="irkbpjeK_2gSpIbQbNrz-106" style="rounded=0;orthogonalLoop=1;jettySize=auto;html=1;entryX=0.5;entryY=1;entryDx=0;entryDy=0;entryPerimeter=0;endArrow=none;endFill=0;strokeWidth=2;" edge="1" parent="DBhOnroe0UzR9Imo3tEQ-60" source="irkbpjeK_2gSpIbQbNrz-10" target="irkbpjeK_2gSpIbQbNrz-11">
          <mxGeometry relative="1" as="geometry" />
        </mxCell>
        <mxCell id="2j_hzL7mZvjbfzJCZ6OL-12" value="" style="aspect=fixed;sketch=0;html=1;dashed=0;whitespace=wrap;fillColor=#2875E2;strokeColor=#ffffff;points=[[0.005,0.63,0],[0.1,0.2,0],[0.9,0.2,0],[0.5,0,0],[0.995,0.63,0],[0.72,0.99,0],[0.5,1,0],[0.28,0.99,0]];shape=mxgraph.kubernetes.icon2;prIcon=k_proxy" parent="2j_hzL7mZvjbfzJCZ6OL-14" vertex="1">
          <mxGeometry x="427.94076649590176" y="-0.9999999999999929" width="42.36839871194379" height="40.67366276346604" as="geometry" />
        </mxCell>
        <mxCell id="irkbpjeK_2gSpIbQbNrz-7" value="" style="group" vertex="1" connectable="0" parent="2j_hzL7mZvjbfzJCZ6OL-14">
          <mxGeometry x="63.13672961065574" y="351.35514018691583" width="258.2826946721312" height="312.8504672897195" as="geometry" />
        </mxCell>
        <mxCell id="DBhOnroe0UzR9Imo3tEQ-14" value="" style="group" parent="irkbpjeK_2gSpIbQbNrz-7" vertex="1" connectable="0">
          <mxGeometry width="258.2826946721312" height="312.8504672897196" as="geometry" />
        </mxCell>
        <mxCell id="DBhOnroe0UzR9Imo3tEQ-13" value="&lt;font style=&quot;background-color: rgb(255, 0, 0);&quot;&gt;administration&lt;/font&gt;" style="whiteSpace=wrap;html=1;aspect=fixed;fillColor=#f5f5f5;labelPosition=center;verticalLabelPosition=top;align=center;verticalAlign=bottom;fontStyle=1;fontColor=#FFFFFF;strokeWidth=3;strokeColor=#FF3333;" parent="DBhOnroe0UzR9Imo3tEQ-14" vertex="1">
          <mxGeometry x="23.48" y="24.07" width="195.93" height="195.93" as="geometry" />
        </mxCell>
        <mxCell id="DBhOnroe0UzR9Imo3tEQ-11" value="" style="group" parent="DBhOnroe0UzR9Imo3tEQ-14" vertex="1" connectable="0">
          <mxGeometry x="63.3992703356309" y="27.274143302180676" width="172.9685290309861" height="190.06679127725863" as="geometry" />
        </mxCell>
        <mxCell id="DBhOnroe0UzR9Imo3tEQ-55" value="" style="group" parent="DBhOnroe0UzR9Imo3tEQ-11" vertex="1" connectable="0">
          <mxGeometry x="-20.349545640834574" y="16.84579439252336" width="165.75702930110532" height="135.57" as="geometry" />
        </mxCell>
        <mxCell id="DBhOnroe0UzR9Imo3tEQ-6" value="admin-vcluster" style="rounded=1;whiteSpace=wrap;html=1;dashed=1;fillColor=none;strokeColor=#FF8000;glass=0;strokeWidth=4;fontStyle=1;labelPosition=center;verticalLabelPosition=top;align=center;verticalAlign=bottom;fontColor=#FF8000;direction=south;" parent="DBhOnroe0UzR9Imo3tEQ-55" vertex="1">
          <mxGeometry y="15.24" width="120" height="120.33" as="geometry" />
        </mxCell>
        <mxCell id="DBhOnroe0UzR9Imo3tEQ-7" value="" style="shape=image;verticalLabelPosition=bottom;labelBackgroundColor=default;verticalAlign=top;aspect=fixed;imageAspect=0;image=data:image/png,iVBORw0KGgoAAAANSUhEUgAAAZAAAAGQCAYAAACAvzbMAAAACXBIWXMAABYlAAAWJQFJUiTwAAAUG0lEQVR4nO3dX3IcRZ4H8O5Qp8aA7RCO4GHezOs+mRPgOcF6LmDgBAiqWvAm3UA+AXgugPcE+ASMT4B9AlxbLcO8SRtlM7tesGx1V3Xnv88nIsOvVmV1Zv0yv5U1mwEAAAAAAAAAAAAAAAAAAAAAAAAAAAAAAAAAAAAAAAAAAAAAAAAAAAAAAAAAAAAAAAAAAAAAAAAAAAAAAFzZb0fvzVdNeLZqw8XarVl0/TI821VbteHxTluz//1VWrcMd9xyQFUujm/NzppwuNHkoV0M16BvwtPY/QiwUxcns1n3zezjjasPbbgG56oPoDqr5sa8b8JDE0HYfDJswnex+xEgTvWhirgYcQ3Ou8Nrt926QFXO2uvz1XL/kQkkbDyB9O3+Sex+BNipi+OPZqtl+MLkETafPJrwtDs8OHDrAlUZFdvVLoalq74Jn8XuR4CdUn2E0ZOg2C5QHbHdMEUFJbYL1EdsN4yfQMR2gdqI7YZpqg+xXaA2qo8wfu9DbBeojY3zMMnGueoDqI7Ybhi9dCW2C1RH9RHEdgHWnjyctnsxycZ5u7jr7qtEdzg7GI5X7o727nXLvc/7ZnGiuQZbuQfa4d9030i2cR7EdnnXZDFMEuHBq6+HLTpHLUzy1KVlHusU2xXb5Q26ZnF3mDB+/7ylgc41iHcPJPxSmepDbJfXKo2zdv9YhWHCTGXC7JvF82Srj+O/zrpm7++xr1HOrRfbLaPa+P3j9tFvKM01yOWlMrHd0ffqecp7W7yDicNgnfKEnfJprGK7Zfcvb2HiiD84avk+nYrtTnL/ng8Jzth9yZp7HKs2nBq8DOCp3wMpP532JzfnZ35HxQYjuKzq8HW06AOjdsWn02W4k+IPWWx3ourjMM1gBG+g6jBwZzVxJfx0KrY7vn/7ZTiN3Y9cQffN7PZZG55EHxA016CAp1Ox3Qkmj8Zpu1nolrM7lqwM3LlN3mK7RbfzVIMRvOZFEz7zMmD0H4tW0NOp2G7ZwQhenzwMXgbv/O6BZJ9OxXan6d9ObDdtJo/og6BW4NPpxcnB7KxdnOjfMoMRmDwM3HlPXulXH/GvUc7tPNWlSf69YR7/JtFcg+KeTsV2y+7f6g1RXWkrk1fGk1eyT6cXx7dnXbv4WwLXKNvWJxyMqN7Lo0m8XR79R6KV+XTqtN1ylybxhrmBO/PJK+WnU7Hdafp3RppWy/B57AFAcw1K/NaH2O4k9/W56iNR9j0M3LlP3ik/nYrtlr00Wb2+CQ9jDwCaa1Di06nY7jTVR5fo0mT1LF0ZuHOfvPs2/DPVH7LYruqjaFJX8QdArcyn04uT/5h1y/CJ/i0zGFE91YfBO/vBLeG1cbHdcpcmUX3EH/y00QNMqk+nYrtlByOqp/owgOc+gaUa2x10h7MPLQ+rPorl5o4/AGrjnk67w4ODWaKctjvy/l4ufojdh1xi1ezdM3gZwDO+B1KP7d5O4Brl3M5TXZrk5QSyeJTATaK5BsWtjYvtlh2MqJ6nIxNX5hNXsl+iE9sd379iu4mzeR59ANQKfToV2x3/cNC34TB2P/IWqzY8NogZxDO9B5JdGxfbnab6iN2PvIXlq+gDoFZg9fFy41xst9hgBL+zfGUAz3USS3lt3Gm7E/Sx2G76nLobfyDUylobd9pu2UuTvOasDU8MYAbx3O6BlNfGxXbLXZrkj987T2Aw0FyDUtbGVR/TPByoPjLQNYu7Bm+Dd4b3wI+zRIntlrs0yR/0X4fDBAYDzTVYa4BJ9elUbHea6iN2P3JFfbN4YPAygWV1DyS8Nq76KHdpkjfwAmECA6K2xtPp4nmy1cfJgdN2C16a5A0ksAzgOU1gqX7rw8Z52UuTXGK1DM9iDwqaa5D72rjYbtlLk1zC4G3wzuQeSHZtXPUxvn/FdjOVwMCguQZZVx82zstdmuQdDF4msAzugfNuGe6k+GMW252m+ojdj2wogcFBcw2yXRtXfZS7NMkVGLxMYInfA8kmc8R2J+lfsd2cSWFFHyC1t1yDfhlOZylvnDeLTh+W93DAFZlADOCpDoApJ3PEdstemuSKvIkef6DU8lobF9st+0QB1tC34aEBzCCe2j2QcjLn16P3571v6IzrX7HdMvTN4iT2YKG5BtlUH8cfDcu+X7hny3w4YE2r5d7nfgwG8KTugYS/gy22W+7DARsY1iGjDxiaa/DaAJPq2rjY7vj7tG/DP2P3IxNbNUEU0SSWxiSWaDJHbLfshwNGkMRKYODUxHZLvwcSfThgJJ+1TeDHpSWbzBHbHX9/iu0WrGsWdw1gBvGY90DKyZwXyw/mqvQyHw6YiH0QE0jECSTZZI7YbtkPB0ykbxYPVCEmkSjVR8LJHLHdch8OmJBlLJNHrOoj1WSO2K7qgzU4nsEksvMJJPnYbnimMi/v4YAtcKyJCUT18YrTdst9OGBLusPZgc10k0jtyRyx3bKXJtkiVYgJZHff+jg4SPHHLLZb7sMBW6YKMYHUnMwR253m4SB2PxKRKsQksu3qI9UfuNhuuQ8H7LAK6dvFk34ZnmmuwcT3wNPuaO9eij9msd2yHw4AtkJsd5qlSRvnQHXEdieYQMR2gdqI7ao+ADZy1l6fr5b7j3aQPiu2ie0C1RHbLfudHoCtEdsdv3EutgtU5+L41uysCYexl39ybmK7QHXEdieZQM67ZbgTuy8Bdkpsd4IJRGwXqI3Y7kTVh9N2gdr897d/GWK7/xV7/yDnJrYLVEdsd4LJQ2wXqNGq2Z/7TO24patVE+7H7keAnZ+2u1qGL2Iv/+TcxHaB6ojtTjKBnHft4tPYfQmw88/U9k34R+wn+Kyb2C5QG7HdiaoPsV2gNv/65prqY+Tk0bf7x7H7EWCnxHaniu1eu+3WBaoitjt+6UpsF6iO2O401UfsfgTYKbHdiTbOxXaB2ojtiu0CrE1sV2wXYCO/ie2OXroS2wWqc3H811nX7P190jewK2tiu0CVxHbHVx9iu0B1xHanqT5i9yPATontTrRxfrT3n25doCpn7fX5qg0PYu8fZN2ctgvURmx3ourDeVdAbcR2x08e/TKcxu5HgJ0S2x1ffYjtwg5cnNzdbTu+vaVWzu0itju++hDbpbo17+Gso2Hp4l87bN3htY932trF37bU7g7fycid2O401UfsfoSd6g5nB6t28XjVLLroyZU82/mLo/DZMBHnSmx3mvtAbJcqDU/RCQzE+baXX5mbHcwytTq5MT9rFyfRr2POTWyXmq3a8Dj6jzDj1jf7JzlWIWK7k/S/2C51U4WMHkSed9/OsvvW9W9H7837Jvwj9gSc+cb5d7H7EaLrm8VpAj/IfFsTvs8plTWkyIYgQPTrlnET24XXN9SbYDN93GdL7+ZyQ4ntjp5AxHbhdb3N1LGDyuMcqhCx3Wmqj9j9CMlVIcMPI/bSQOZxznspb6iL7U7Tz14ahDewoV52rHeoPsR2R/exjXO4jFhvubHe4dQBe10jq0yn7cLlVCGjlziep1qF/HJ8a9Z9HQ4TWO7LsYntwlX0Tfg+gR9svi3hWO+vR+/P+zY8iX6NMmtiu3BFYr3lxnqHiU2VuX5/2jiHNYj1lhvrHU5htte1XvURu88gK2K95cZ6X8Z5D699bENd9QFb0zV792KvPWfdEo71dicHqsyr9OFy8UPsvoJsWeooM9b7qgqZfbhqwvPoE226TWwXxrDhWm6sd/iiYvd1+DyBgTrFJrYLUxDrLTfWa0P9zX0mtgsTEeudYClErDer/urb8KUBBCYi1lturPesvT5fLfcfJTBwJ9HEdmE7sd5nsX/cuVch6W6oi/X+u5+8NAhbYMN15CQi1pt+E9uF7RHrLTvWW3mVKbYL2yTWO3qQEutNdPLwrQ/YAbHecYPVWRtOU91QrzXWK7YLOzJ8VMc5SuOedsV60+qPvt1PdEqHAon1lhvrXTU35n0THtZUfcS+5lAVsd7SY70vz8nqYg/uO2hiuxCDWO/IwUusN4X2o9EDIqlxw3XKJtYb9fqL7UJMYr0lx3qL7l+xXUiBWO8Esd4E90JKjvWK7UIixHrHPw13y3BnNkt0Q30ZPok94E/cxHYhJWK95cZ6+69uzvtm8SCBgX+SJrYLaX4zxOdRS3y5sKxYr9gupEisd4JY70mS++mz4f/VN4uT7KuPNvwU+1oClyhxw3WnA1yip/UOfjt6b575ab1iu5CygmOfu2pivdu6tk34LvbvA3iH1XL/hwQG4mybWO/017RvFs+HtKAfLyROrLfwWO/w+dvMrqfTdiEjYr2jBz2x3smqD6ftQlbEeieoQsR6J6k+Vk24H/v3AKxJrHfk4NeEpxfHt5K87345vjX072Hy1YfYLuRLrHfc03Pf/uUw1Vjvr0fvz/s2PEm6irNxDvkS6x09CIr1bl7Bie1C7oaP9iTwNJptE+td/5qJ7UIhxHpHTyLn3Tez20nHetM6J0tsF0oi1lturPflOVltOudkie1CYcR6q4j1pnAas9gulCiH2GfSLeFY78XxR0nEtvsm/Bz7WgBbItZbbqw3gc/fiu1CycR6Rw+SYr2XV2hiu1A6sd5yvxly1l6fr5b7j1QfwFaI9U6wVCPW+4elvf1EM2rA5FKKfWbaxHr/tyJz2i5URay3/Fjvjj5/K7YLNRLrHTd49m34Z+2xXrFdqNgwCCawHJRrqz3WK7YLNRPrHT2I1hvrFdsFxHrLjfWumhvzvgkPVR/A9mK98ZeDcm6Jx3pfnpM15Wm9YrvA/xHrHT2oVhPrHWK73eFBkst2QARivRNUIbXEeptwP/bfBCRGrHeKKiTVWO80G+peGgQuJdY7dm+g6FjvebcMd2L/HUCixHoLjvUOS1nL8MmIpSun7QJvJ9Zbbqy3/+rmvG8WDzaqPg6vJZk0AxIi1jtBFVJWrFdsF7i6vlmcjt1wrbylHettrh7rFdsF1iLWW26sd/Db0XvzK8Z6nbYLrE+sd4oqJO9Yr9gusLFhAElgOSjXlnusd6iiPo39/wQyJdZbeKz38NrHl/7fxXaBscR6q4z1iu0C44n1TlCFfJtVrFdsF5iOWO/ISWS5/yjVWO8vx7f+X2DiVWzXS4PARMR6y471/nr0/rxvwxOxXWArxHpHTyKPL44/SjrW2zfh59j/F6BQYr3jqpAXR+GzVDfUX+2H+FAUsCViveXGegG2Tqy33FgvwFYNHxUa+RRee0s21guwdWK95cZ6AXYR613nmxJaRrFegK3q26t/U0LLK9YLsHViveXGegG2Sqx3gg11sV6gVmK94yYRsV6gWmK9Yr0AGxPrHTmJNOF7sV6gSmK9o6sQsV6gXmK9oycRsV6g3ipErFesF2AjXbO466XBUXshT8V6gSq9WH4wH5ZiTCJivQAbfdnOBDLy5UKn9QI16r+6Oe+bxQOTiFgvwAafRp196LResV6AtXUnB2K9k8R63XxApVVI34RnlrJGvFx4tHfPab1AnRvqzd49E4hYL8DaxHpHL2M5rReok1jv+AnEN0OAaq2aG/O+CQ8tZYn1AqxFrHeSKsRpvUCdxHonmUTEeoH6iPVOVIWI9QI1EuudYBJxWi9QK7FesV6AjYj1ivUCbEysd/wkctaGU+dkAdUR6xXrBdiYWK9YL8BGxHqnq0Kc1gtU5+L4o1n3dfjcESdivQBrE+sV6wXYiFivWC/AxsR6xXoBRmyoX/t41YTOfojTegHWItYr1guwEbFeLxcCbEysd6LTek8O3IVAfcR6xXoBNiLWK9YLsLGz9vp8tdx/JJE18rTeEzchUBmx3ok21JfhTuy+BNg5sV6xXoCx3wx5binLy4UAaxHrFesF2JhYr1gvwEbEesV6ATYm1jtBIuvw2m23IFAdsd5xk0e/DKex+xAgGrHezSaQfjgbS/UB1Oy1WK9vhqxRfayacD923wFE98vxrVn3dTj0XsjVq4/YfQaQDLHeNTbO28WnsfsLIBlivVf+Lsh3sfsKIDmqELFdgI2I9b4jttvuH7u1AC4h1vu22O6Bb9oCXEasV2wXYGNivX+qPn52OwFckQ11XyAE2IhYr9guwMZUIU7bBRgX653m2xm5NbFdgDFqjfU67wpgpEpjvU7bBZhCbbHevg0/uXMAJvLr0fvzvg1Paqg+fCgKYEKVxHqHpSun7QJMrfRYr8/UAmxJ4bFesV2AbSo11iu2C7BlhcZ6xXYBdqG4WO9y8YM7B2BHCor1iu0C7FIhsV6xXYAYco/1iu0CRJJ5rPe8b8OXbh6ASPqvbs77ZvEgx+rDTQMQUaaxXrFdgBRkF+t13hVAWoZloRyqD6ftAiQmg1jveb8Mp7GvEwBvsGrDjwlMFG9sYrsACRuWh1KtPlZNuB/7+gDwFn2zOE2x+tBpAInrDmcHicV6z7t28Wns6wLAFST1zRCxXYC8JBLrFdsFyE0CsV6fqQXIVcxY76vY7sFB7GsAwAa6ZbgTq/oQ2wXIXIxYb9+En2P/3QDkF+s9HyofHQdQgJ3GesV2AcrSN+HZTqqPw2u3Y/+tAOQV6xXbBSjRi+UH81UbHm9x49x5VwAlujjeahUitgtQsv6rm/O+WTyYvPpow0+x/zYAtuji5GWs98OJY702zgFq0J0cTBnrHZauvov9NwGwwypkilivz9QCVGaiDXWxXYAajY31iu0CVGpkFSK2C1CzjWO9y8UPsf/vAOQX6xXbBWDtWK/YLgDrx3rFdgH484Z6s3fv3bHd8KVLB8BasV6xXQA2ifWK7QJwuVVzY9434eGfJhDnXQGwQaxXbBeAtWO95/0ynLpuAKwT630qtgvAZrHeJtx36QAAAAAAAAAAAAAAAAAAAAAAAAAAAAAAAAAAAAAAAAAAAAAAAAAAAAAAAAAAAAAAAAAAAAAAAAAAAIBZzv4HlNw5e72xAR0AAAAASUVORK5CYII=;" parent="DBhOnroe0UzR9Imo3tEQ-55" vertex="1">
          <mxGeometry x="103.35740488387984" y="1" width="35.30699892661985" height="35.30699892661985" as="geometry" />
        </mxCell>
        <mxCell id="DBhOnroe0UzR9Imo3tEQ-58" value="" style="group" parent="DBhOnroe0UzR9Imo3tEQ-55" vertex="1" connectable="0">
          <mxGeometry x="17.217758539182825" y="22.88940809968846" width="63" height="99.6" as="geometry" />
        </mxCell>
        <mxCell id="irkbpjeK_2gSpIbQbNrz-118" value="" style="group" vertex="1" connectable="0" parent="DBhOnroe0UzR9Imo3tEQ-58">
          <mxGeometry width="63" height="99.6" as="geometry" />
        </mxCell>
        <mxCell id="DBhOnroe0UzR9Imo3tEQ-57" value="" style="image;sketch=0;aspect=fixed;html=1;points=[];align=center;fontSize=12;image=img/lib/mscae/Chart.svg;movable=1;resizable=1;rotatable=1;deletable=1;editable=1;locked=0;connectable=1;" parent="irkbpjeK_2gSpIbQbNrz-118" vertex="1">
          <mxGeometry x="28" y="66" width="35" height="33.6" as="geometry" />
        </mxCell>
        <mxCell id="DBhOnroe0UzR9Imo3tEQ-56" value="" style="sketch=0;pointerEvents=1;shadow=0;dashed=0;html=1;strokeColor=none;fillColor=#505050;labelPosition=center;verticalLabelPosition=bottom;verticalAlign=top;outlineConnect=0;align=center;shape=mxgraph.office.servers.server_generic;movable=1;resizable=1;rotatable=1;deletable=1;editable=1;locked=0;connectable=1;" parent="irkbpjeK_2gSpIbQbNrz-118" vertex="1">
          <mxGeometry width="40" height="72" as="geometry" />
        </mxCell>
        <mxCell id="irkbpjeK_2gSpIbQbNrz-116" value="" style="aspect=fixed;sketch=0;html=1;dashed=0;whitespace=wrap;fillColor=#FF0000;strokeColor=#ffffff;points=[[0.005,0.63,0],[0.1,0.2,0],[0.9,0.2,0],[0.5,0,0],[0.995,0.63,0],[0.72,0.99,0],[0.5,1,0],[0.28,0.99,0]];shape=mxgraph.kubernetes.icon2;kubernetesLabel=1;prIcon=quota" vertex="1" parent="DBhOnroe0UzR9Imo3tEQ-55">
          <mxGeometry x="69.35702930110531" y="22.890996884735273" width="34" height="32.64" as="geometry" />
        </mxCell>
        <mxCell id="DBhOnroe0UzR9Imo3tEQ-15" value="" style="aspect=fixed;sketch=0;html=1;dashed=0;whitespace=wrap;fillColor=#FF0000;strokeColor=#ffffff;points=[[0.005,0.63,0],[0.1,0.2,0],[0.9,0.2,0],[0.5,0,0],[0.995,0.63,0],[0.72,0.99,0],[0.5,1,0],[0.28,0.99,0]];shape=mxgraph.kubernetes.icon2;kubernetesLabel=1;prIcon=sa;labelPosition=right;verticalLabelPosition=middle;align=left;verticalAlign=middle;fontStyle=1;fontColor=#6666FF;" parent="DBhOnroe0UzR9Imo3tEQ-14" vertex="1">
          <mxGeometry x="53.05" y="188" width="28" height="26.88" as="geometry" />
        </mxCell>
        <mxCell id="irkbpjeK_2gSpIbQbNrz-90" value="" style="aspect=fixed;sketch=0;html=1;dashed=0;whitespace=wrap;fillColor=#FF0000;strokeColor=#ffffff;points=[[0.005,0.63,0],[0.1,0.2,0],[0.9,0.2,0],[0.5,0,0],[0.995,0.63,0],[0.72,0.99,0],[0.5,1,0],[0.28,0.99,0]];shape=mxgraph.kubernetes.icon2;kubernetesLabel=1;prIcon=secret" vertex="1" parent="DBhOnroe0UzR9Imo3tEQ-14">
          <mxGeometry x="24.47675399590166" y="188.00093457943927" width="28" height="26.88" as="geometry" />
        </mxCell>
        <mxCell id="irkbpjeK_2gSpIbQbNrz-88" value="" style="aspect=fixed;sketch=0;html=1;dashed=0;whitespace=wrap;fillColor=#FF0000;strokeColor=#ffffff;points=[[0.005,0.63,0],[0.1,0.2,0],[0.9,0.2,0],[0.5,0,0],[0.995,0.63,0],[0.72,0.99,0],[0.5,1,0],[0.28,0.99,0]];shape=mxgraph.kubernetes.icon2;kubernetesLabel=1;prIcon=rb" vertex="1" parent="DBhOnroe0UzR9Imo3tEQ-14">
          <mxGeometry x="170.80675399590166" y="94.70093457943926" width="34" height="32.64" as="geometry" />
        </mxCell>
        <mxCell id="irkbpjeK_2gSpIbQbNrz-89" value="" style="aspect=fixed;sketch=0;html=1;dashed=0;whitespace=wrap;fillColor=#FF0000;strokeColor=#ffffff;points=[[0.005,0.63,0],[0.1,0.2,0],[0.9,0.2,0],[0.5,0,0],[0.995,0.63,0],[0.72,0.99,0],[0.5,1,0],[0.28,0.99,0]];shape=mxgraph.kubernetes.icon2;kubernetesLabel=1;prIcon=role" vertex="1" parent="DBhOnroe0UzR9Imo3tEQ-14">
          <mxGeometry x="170.80675399590166" y="181.2409345794393" width="34" height="32.64" as="geometry" />
        </mxCell>
        <mxCell id="irkbpjeK_2gSpIbQbNrz-111" style="rounded=0;orthogonalLoop=1;jettySize=auto;html=1;entryX=0.005;entryY=0.63;entryDx=0;entryDy=0;entryPerimeter=0;endArrow=none;endFill=0;strokeWidth=2;" edge="1" parent="DBhOnroe0UzR9Imo3tEQ-14" source="DBhOnroe0UzR9Imo3tEQ-15" target="irkbpjeK_2gSpIbQbNrz-89">
          <mxGeometry relative="1" as="geometry" />
        </mxCell>
        <mxCell id="irkbpjeK_2gSpIbQbNrz-112" style="rounded=0;orthogonalLoop=1;jettySize=auto;html=1;entryX=0.5;entryY=1;entryDx=0;entryDy=0;entryPerimeter=0;endArrow=none;endFill=0;strokeWidth=2;" edge="1" parent="DBhOnroe0UzR9Imo3tEQ-14" source="irkbpjeK_2gSpIbQbNrz-89" target="irkbpjeK_2gSpIbQbNrz-88">
          <mxGeometry relative="1" as="geometry" />
        </mxCell>
        <mxCell id="DBhOnroe0UzR9Imo3tEQ-12" value="" style="aspect=fixed;sketch=0;html=1;dashed=0;whitespace=wrap;fillColor=#FF0000;strokeColor=#ffffff;points=[[0.005,0.63,0],[0.1,0.2,0],[0.9,0.2,0],[0.5,0,0],[0.995,0.63,0],[0.72,0.99,0],[0.5,1,0],[0.28,0.99,0]];shape=mxgraph.kubernetes.icon2;kubernetesLabel=1;prIcon=ns" parent="irkbpjeK_2gSpIbQbNrz-7" vertex="1">
          <mxGeometry x="210.80876187593148" y="4.629158878504654" width="30" height="28.8" as="geometry" />
        </mxCell>
        <mxCell id="irkbpjeK_2gSpIbQbNrz-93" value="" style="aspect=fixed;sketch=0;html=1;dashed=0;whitespace=wrap;fillColor=#66B2FF;strokeColor=#ffffff;points=[[0.005,0.63,0],[0.1,0.2,0],[0.9,0.2,0],[0.5,0,0],[0.995,0.63,0],[0.72,0.99,0],[0.5,1,0],[0.28,0.99,0]];shape=mxgraph.kubernetes.icon2;prIcon=c_role;strokeWidth=2;" vertex="1" parent="2j_hzL7mZvjbfzJCZ6OL-14">
          <mxGeometry x="68.13348360655738" y="253.05607476635515" width="34" height="32.64" as="geometry" />
        </mxCell>
        <mxCell id="irkbpjeK_2gSpIbQbNrz-96" style="rounded=0;orthogonalLoop=1;jettySize=auto;html=1;exitX=0.995;exitY=0.63;exitDx=0;exitDy=0;exitPerimeter=0;entryX=0.005;entryY=0.63;entryDx=0;entryDy=0;entryPerimeter=0;endArrow=none;endFill=0;strokeWidth=2;" edge="1" parent="2j_hzL7mZvjbfzJCZ6OL-14" source="irkbpjeK_2gSpIbQbNrz-92" target="irkbpjeK_2gSpIbQbNrz-93">
          <mxGeometry relative="1" as="geometry" />
        </mxCell>
        <mxCell id="irkbpjeK_2gSpIbQbNrz-97" value="" style="aspect=fixed;sketch=0;html=1;dashed=0;whitespace=wrap;fillColor=#CDA2BE;strokeColor=#ffffff;points=[[0.005,0.63,0],[0.1,0.2,0],[0.9,0.2,0],[0.5,0,0],[0.995,0.63,0],[0.72,0.99,0],[0.5,1,0],[0.28,0.99,0]];shape=mxgraph.kubernetes.icon2;prIcon=crb;strokeWidth=2;" vertex="1" parent="2j_hzL7mZvjbfzJCZ6OL-14">
          <mxGeometry x="224.94348360655738" y="239.07607476635513" width="34" height="32.64" as="geometry" />
        </mxCell>
        <mxCell id="irkbpjeK_2gSpIbQbNrz-98" value="" style="aspect=fixed;sketch=0;html=1;dashed=0;whitespace=wrap;fillColor=#FF0000;strokeColor=#ffffff;points=[[0.005,0.63,0],[0.1,0.2,0],[0.9,0.2,0],[0.5,0,0],[0.995,0.63,0],[0.72,0.99,0],[0.5,1,0],[0.28,0.99,0]];shape=mxgraph.kubernetes.icon2;prIcon=crb;strokeWidth=2;" vertex="1" parent="2j_hzL7mZvjbfzJCZ6OL-14">
          <mxGeometry x="112.13348360655738" y="596.0560747663551" width="34" height="32.64" as="geometry" />
        </mxCell>
        <mxCell id="irkbpjeK_2gSpIbQbNrz-99" value="" style="aspect=fixed;sketch=0;html=1;dashed=0;whitespace=wrap;fillColor=#FF0000;strokeColor=#ffffff;points=[[0.005,0.63,0],[0.1,0.2,0],[0.9,0.2,0],[0.5,0,0],[0.995,0.63,0],[0.72,0.99,0],[0.5,1,0],[0.28,0.99,0]];shape=mxgraph.kubernetes.icon2;prIcon=c_role;strokeWidth=2;" vertex="1" parent="2j_hzL7mZvjbfzJCZ6OL-14">
          <mxGeometry x="178.09348360655736" y="592.0560747663551" width="34" height="32.64" as="geometry" />
        </mxCell>
        <mxCell id="irkbpjeK_2gSpIbQbNrz-101" style="rounded=0;orthogonalLoop=1;jettySize=auto;html=1;entryX=0.5;entryY=0;entryDx=0;entryDy=0;entryPerimeter=0;endArrow=none;endFill=0;strokeWidth=2;" edge="1" parent="2j_hzL7mZvjbfzJCZ6OL-14" source="DBhOnroe0UzR9Imo3tEQ-85" target="irkbpjeK_2gSpIbQbNrz-97">
          <mxGeometry relative="1" as="geometry" />
        </mxCell>
        <mxCell id="irkbpjeK_2gSpIbQbNrz-103" style="rounded=0;orthogonalLoop=1;jettySize=auto;html=1;entryX=0.005;entryY=0.63;entryDx=0;entryDy=0;entryPerimeter=0;strokeWidth=2;endArrow=none;endFill=0;" edge="1" parent="2j_hzL7mZvjbfzJCZ6OL-14" source="irkbpjeK_2gSpIbQbNrz-97" target="irkbpjeK_2gSpIbQbNrz-100">
          <mxGeometry relative="1" as="geometry" />
        </mxCell>
        <mxCell id="irkbpjeK_2gSpIbQbNrz-109" style="rounded=0;orthogonalLoop=1;jettySize=auto;html=1;entryX=0.5;entryY=1;entryDx=0;entryDy=0;entryPerimeter=0;endArrow=none;endFill=0;strokeWidth=2;" edge="1" parent="2j_hzL7mZvjbfzJCZ6OL-14" source="irkbpjeK_2gSpIbQbNrz-98" target="DBhOnroe0UzR9Imo3tEQ-15">
          <mxGeometry relative="1" as="geometry" />
        </mxCell>
        <mxCell id="irkbpjeK_2gSpIbQbNrz-110" style="rounded=0;orthogonalLoop=1;jettySize=auto;html=1;entryX=0.005;entryY=0.63;entryDx=0;entryDy=0;entryPerimeter=0;endArrow=none;endFill=0;strokeWidth=2;" edge="1" parent="2j_hzL7mZvjbfzJCZ6OL-14" source="irkbpjeK_2gSpIbQbNrz-98" target="irkbpjeK_2gSpIbQbNrz-99">
          <mxGeometry relative="1" as="geometry" />
        </mxCell>
        <mxCell id="DBhOnroe0UzR9Imo3tEQ-26" value="" style="group;fontColor=#FF8000;" parent="2j_hzL7mZvjbfzJCZ6OL-5" vertex="1" connectable="0">
          <mxGeometry x="179.87727459016395" y="769.9998130841121" width="276.4229508196721" height="346.5420560747664" as="geometry" />
        </mxCell>
        <mxCell id="DBhOnroe0UzR9Imo3tEQ-41" value="" style="group" parent="DBhOnroe0UzR9Imo3tEQ-26" vertex="1" connectable="0">
          <mxGeometry y="7.997124370956147" width="247.8230106833671" height="285.2307692307692" as="geometry" />
        </mxCell>
        <mxCell id="DBhOnroe0UzR9Imo3tEQ-27" value="&lt;div style=&quot;&quot;&gt;&lt;pre style=&quot;&quot;&gt;&lt;font color=&quot;#ffffff&quot; style=&quot;background-color: rgb(255, 128, 0);&quot; face=&quot;Helvetica&quot;&gt;monitoring&lt;/font&gt;&lt;/pre&gt;&lt;/div&gt;" style="whiteSpace=wrap;html=1;aspect=fixed;fillColor=#ffe6cc;labelPosition=center;verticalLabelPosition=bottom;align=center;verticalAlign=top;fontStyle=1;strokeWidth=3;strokeColor=#FF8000;" parent="DBhOnroe0UzR9Imo3tEQ-41" vertex="1">
          <mxGeometry x="7" y="9.77" width="220.23" height="220.23" as="geometry" />
        </mxCell>
        <mxCell id="DBhOnroe0UzR9Imo3tEQ-28" value="" style="aspect=fixed;sketch=0;html=1;dashed=0;whitespace=wrap;fillColor=#FF8000;strokeColor=#ffffff;points=[[0.005,0.63,0],[0.1,0.2,0],[0.9,0.2,0],[0.5,0,0],[0.995,0.63,0],[0.72,0.99,0],[0.5,1,0],[0.28,0.99,0]];shape=mxgraph.kubernetes.icon2;kubernetesLabel=1;prIcon=ns" parent="DBhOnroe0UzR9Imo3tEQ-41" vertex="1">
          <mxGeometry x="215.47013722600846" width="31.736628248647033" height="30.46716311870116" as="geometry" />
        </mxCell>
        <mxCell id="DBhOnroe0UzR9Imo3tEQ-38" value="" style="shape=image;verticalLabelPosition=bottom;labelBackgroundColor=default;verticalAlign=top;aspect=fixed;imageAspect=0;image=data:image/svg+xml,PHN2ZyB4bWxucz0iaHR0cDovL3d3dy53My5vcmcvMjAwMC9zdmciIHdpZHRoPSIyNTYiIHZpZXdCb3g9IjAgMC42NjY5OTIxODc1IDI1NiAyNTUuOTk1NDgzMzk4NDM3NSIgcHJlc2VydmVBc3BlY3RSYXRpbz0ieE1pZFlNaWQiIGhlaWdodD0iMjU1Ljk5NTQ4MzM5ODQzNzUiPjxwYXRoIGZpbGw9IiNkYTRlMzEiIGQ9Im0xMjguMDAxMTI5LjY2N2MtNzAuNjkwMDg5OCAwLTEyOC4wMDExMjkgNTcuMzA0MjYyNy0xMjguMDAxMTI5IDEyNy45OTY2MTIgMCA3MC42OTAwOSA1Ny4zMTEwMzkyIDEyNy45OTg4NyAxMjguMDAxMTI5IDEyNy45OTg4NyA3MC42OTAwOTEgMCAxMjcuOTk4ODcxLTU3LjMwODc4IDEyNy45OTg4NzEtMTI3Ljk5ODg3IDAtNzAuNjkyMzQ5My01Ny4zMTEwMzktMTI3Ljk5NjYxMi0xMjcuOTk4ODcxLTEyNy45OTY2MTJ6bTAgMjM5LjU2MDIzNGMtMjAuMTEyNjIzIDAtMzYuNDE5MTE4NS0xMy40MzU1MjItMzYuNDE5MTE4NS0zMC4wMDQwNDFoNzIuODM4MjM3NWMwIDE2LjU2NjI2LTE2LjMwNjQ5NSAzMC4wMDQwNDEtMzYuNDE5MTE5IDMwLjAwNDA0MXptNjAuMTUyNjQ4LTM5Ljk0MDYzNWgtMTIwLjMxMjA3MTZ2LTIxLjgxNTc4MmgxMjAuMzE0MzMwNnYyMS44MTU3ODJ6bS0uNDMxNDM3LTMzLjA0NDQyN2gtMTE5LjUzNzI5MjRjLS4zOTc1NTQxLS40NTg1NDItLjgwNDE0MzUtLjkxMDMwOC0xLjE4ODE0NDctMS4zNzU2MjctMTIuMzE1MTQyMS0xNC45NTM0NTYtMTUuMjE1NDgtMjIuNzU5OTczLTE4LjAzMjI0MTItMzAuNzE1NTczLS4wNDc0MzU1LS4yNjIwMjQgMTQuOTMzMTI2MiAzLjA2MDcxNSAyNS41NTY0MDQ1IDUuNDUwNTU3IDAgMCA1LjQ2NjM2OTEgMS4yNjQ5NDUgMTMuNDU4MTEwMiAyLjcyMTg5MS03LjY3MzI0NjEtOC45OTQ2NjItMTIuMjI5MzA2NS0yMC40Mjg4NjEtMTIuMjI5MzA2NS0zMi4xMTYwNDggMC0yNS42NTgwNTE4IDE5LjY3ODkyODQtNDguMDc5MjAwMSAxMi41Nzk0MjUyLTY2LjIwMTc5NDUgNi45MDk3NjE1LjU2MjQ0ODcgMTQuMzAwNjUzOSAxNC41ODMwMDc2IDE0Ljc5OTg1NDkgMzYuNTA0OTU0NCA3LjM0NTcxNi0xMC4xNTExODI4IDEwLjQxOTk4NC0yOC42ODk0MDIgMTAuNDE5OTg0LTQwLjA1NTgzNTUgMC0xMS43Njg1MDUyIDcuNzU0NTY0LTI1LjQzODk0NTQgMTUuNTExMzg3LTI1LjkwNjUyMzItNi45MTQyNzkgMTEuMzk1Nzk4MiAxLjc5MTI1MiAyMS4xNjUyMzg3IDkuNTMwMDA0IDQ1LjQwMDIyNzYgMi45MDI1OTcgOS4xMDMwODU2IDIuNTMyMTQ5IDI0LjQyMjQ3MTkgNC43NzI5MDggMzQuMTM3NzAwNC43NDMxNTYtMjAuMTc4MTI5OSA0LjIxMjcxOS00OS42MTk3MjI0IDE3LjAxMzUwOS01OS43ODQ0NTgyLTUuNjQ3MDc1IDEyLjgwMDc5MDYuODM1NzY3IDI4LjgxODE1NTQgNS4yNjk4NTEgMzYuNTE4NTA3NSA3LjE1MzcxNSAxMi40MjM1NjU5IDExLjQ5MDY2OSAyMS44MzYxMTEyIDExLjQ5MDY2OSAzOS42Mzc5NTE1IDAgMTEuOTM1NjU5LTQuNDA2OTc3IDIzLjE3MzMzOS0xMS44NDA3ODggMzEuOTU3OTMgOC40NTI1NDMtMS41ODU2OTkgMTQuMjg5MzYtMy4wMTU1MzkgMTQuMjg5MzYtMy4wMTU1MzlsMjcuNDQ5MzA0LTUuMzU1Njg2Yy4wMDIyNTktLjAwMjI1OS0zLjk4NjgzNSAxNi40MDEzNjYtMTkuMzEyOTk4IDMyLjE5NzM2NXoiLz48L3N2Zz4=;" parent="DBhOnroe0UzR9Imo3tEQ-41" vertex="1">
          <mxGeometry x="81.53021169874746" y="15.084651329978431" width="65" height="65" as="geometry" />
        </mxCell>
        <mxCell id="DBhOnroe0UzR9Imo3tEQ-39" value="" style="shape=image;verticalLabelPosition=bottom;labelBackgroundColor=default;verticalAlign=top;aspect=fixed;imageAspect=0;image=data:image/svg+xml,PHN2ZyB4bWxuczp4bGluaz0iaHR0cDovL3d3dy53My5vcmcvMTk5OS94bGluayIgeG1sbnM9Imh0dHA6Ly93d3cudzMub3JnLzIwMDAvc3ZnIiB3aWR0aD0iMjU2IiB2aWV3Qm94PSIwLjAwMDAwMzgxNDY5NzI2NTYyNSAtMC4wMDAwMDc2MjkzOTQ1MzEyNSAyNTYgMjc4LjE5ODQ4NjMyODEyNSIgcHJlc2VydmVBc3BlY3RSYXRpbz0ieE1pZFlNaWQiIGhlaWdodD0iMjc4LjE5ODQ4NjMyODEyNSI+PGxpbmVhckdyYWRpZW50IHkyPSIzMS4xMzkwMDglIiB5MT0iMTIyLjQ1MDM1OCUiIHgyPSI0OS45OTQ3ODQlIiB4MT0iNDkuOTk0Nzg0JSIgaWQ9ImEiPjxzdG9wIHN0b3AtY29sb3I9IiNmZmYxMDAiIG9mZnNldD0iMCIvPjxzdG9wIHN0b3AtY29sb3I9IiNmMDVhMjgiIG9mZnNldD0iMSIvPjwvbGluZWFyR3JhZGllbnQ+PHBhdGggZmlsbD0idXJsKCNhKSIgZD0ibTI1NS41OTAxIDEyMi43NzUyMTVjLS40NTk4MzItNC42NzQ5NjItMS4yMjYyMTktMTAuMDM5NjcyLTIuNzU4OTkzLTE2LjAxNzQ5MS0xLjUzMjc3NS01LjkwMTE4MS0zLjgzMTkzNi0xMi40MTU0NzExLTcuMjA0MDM5LTE5LjE1OTY3NzctMy4zNzIxMDMtNi43NDQyMDY1LTcuNzQwNTEtMTMuNzE4MzI5Mi0xMy40MTE3NzUtMjAuNTM5MTc0NC0yLjIyMjUyMi0yLjY4MjM1NDktNC42NzQ5NjEtNS4yODgwNzExLTcuMjgwNjc3LTcuODE3MTQ4NSAzLjkwODU3NC0xNS41NTc2NTgzLTQuNzUxNi0yOS4wNDYwNzE0LTQuNzUxNi0yOS4wNDYwNzE0LTE0Ljk0NDU0OS0uOTE5NjY0NS0yNC40NDc3NDkgNC42NzQ5NjE0LTI3Ljk3MzEzIDcuMjA0MDM4OC0uNjEzMTA5LS4yMjk5MTYxLTEuMTQ5NTgtLjUzNjQ3MDktMS43NjI2OS0uNzY2Mzg3MS0yLjUyOTA3Ny0uOTk2MzAzMi01LjEzNDc5NC0xLjk5MjYwNjUtNy44OTM3ODctMi44MzU2MzIzLTIuNjgyMzU1LS44NDMwMjU4LTUuNDQxMzQ5LTEuNjA5NDEyOS04LjI3Njk4MS0yLjI5OTE2MTNzLTUuNjcxMjY0LTEuMjI2MjE5NC04LjU4MzUzNS0xLjY4NjA1MTZjLS41MzY0NzEtLjA3NjYzODctLjk5NjMwNC0uMTUzMjc3NS0xLjUzMjc3NS0uMjI5OTE2Mi02LjUxNDI5LTIwLjg0NTcyOTI4LTI1LjIxNDEzNS0yOS41ODI1NDIzLTI1LjIxNDEzNS0yOS41ODI1NDIzLTIwLjkyMjM2OSAxMy4yNTg0OTctMjQuODMwOTQzIDMxLjgwNTA2NDktMjQuODMwOTQzIDMxLjgwNTA2NDlzLS4wNzY2MzguMzgzMTkzNi0uMjI5OTE2IDEuMDcyOTQyYy0xLjE0OTU4MS4zMDY1NTQ4LTIuMjk5MTYxLjY4OTc0ODQtMy40NDg3NDIuOTk2MzAzMi0xLjYwOTQxMy40NTk4MzIzLTMuMjE4ODI2IDEuMDcyOTQyLTQuNzUxNiAxLjY4NjA1MTctMS42MDk0MTMuNjEzMTA5Ny0zLjE0MjE4NyAxLjIyNjIxOTMtNC43NTE2IDEuOTE1OTY3Ny0zLjE0MjE4NzEgMS4zNzk0OTY4LTYuMjg0Mzc0MyAyLjkxMjI3MS05LjM0OTkyMjcgNC41OTgzMjI3LTIuOTg4OTA5NyAxLjY4NjA1MTYtNS45MDExODA3IDMuNTI1MzgwNy04LjczNjgxMyA1LjQ0MTM0ODQtLjM4MzE5MzYtLjE1MzI3NzQtLjc2NjM4NzEtLjMwNjU1NDgtLjc2NjM4NzEtLjMwNjU1NDgtMjguOTY5NDMyNy0xMS4wMzU5NzQzLTU0LjY0MzQwMDggMi4yMjI1MjI2LTU0LjY0MzQwMDggMi4yMjI1MjI2LTIuMzc1OCAzMC44MDg3NjE3IDExLjU3MjQ0NTQgNTAuMTk4MzU1NSAxNC4zMzE0Mzg5IDUzLjcyMzczNjYtLjY4OTc0ODQgMS45MTU5NjctMS4zMDI4NTggMy44MzE5MzUtMS45MTU5Njc3IDUuNzQ3OTAzLTIuMTQ1ODgzOSA2Ljk3NDEyMy0zLjc1NTI5NjkgMTQuMTAxNTIzLTQuNzUxNjAwMSAyMS41MzU0NzgtLjE1MzI3NzQgMS4wNzI5NDItLjMwNjU1NDggMi4xNDU4ODQtLjM4MzE5MzUgMy4yMTg4MjUtMjYuODIzNTQ4OCAxMy4yNTg0OTctMzQuNzE3MzM2IDQwLjMxMTk2Mi0zNC43MTczMzYgNDAuMzExOTYyIDIyLjMwMTg2NDggMjUuNjczOTY4IDQ4LjM1OTAyNjUgMjcuMjgzMzgxIDQ4LjM1OTAyNjUgMjcuMjgzMzgxcy4wNzY2Mzg3LS4wNzY2MzguMDc2NjM4Ny0uMDc2NjM4YzMuMjk1NDY0NSA1LjkwMTE4IDcuMTI3NDAwMSAxMS40OTU4MDYgMTEuNDE5MTY3OSAxNi43ODM4NzcgMS44MzkzMjkgMi4yMjI1MjMgMy42Nzg2NTgxIDQuMjkxNzY4IDUuNjcxMjY0NiA2LjM2MTAxMy04LjEyMzcwMzQgMjMuMjk4MTY4IDEuMTQ5NTgwNiA0Mi42MTExMjMgMS4xNDk1ODA2IDQyLjYxMTEyMyAyNC44MzA5NDIzLjkxOTY2NSA0MS4xNTQ5ODc3LTEwLjg4MjY5NyA0NC42MDM3Mjk3LTEzLjU2NTA1MSAyLjQ1MjQzOS44NDMwMjUgNC45ODE1MTYgMS42MDk0MTMgNy41MTA1OTQgMi4yMjI1MjIgNy42NjM4NzEgMS45OTI2MDcgMTUuNDgxMDE5IDMuMTQyMTg3IDIzLjI5ODE2OCAzLjQ0ODc0MiAxLjkxNTk2Ny4wNzY2MzkgMy45MDg1NzQuMTUzMjc4IDUuODI0NTQyLjA3NjYzOWguOTE5NjY0LjYxMzExIDEuMjI2MjE5bDEuMjI2MjItLjA3NjYzOXYuMDc2NjM5YzExLjcyNTcyMiAxNi43MDcyMzkgMzIuMjY0ODk3IDE5LjA4MzAzOSAzMi4yNjQ4OTcgMTkuMDgzMDM5IDE0LjYzNzk5NC0xNS40MDQzODEgMTUuNDgxMDE5LTMwLjczMjEyMyAxNS40ODEwMTktMzQuMDI3NTg4IDAgMCAwLS4wNzY2MzggMC0uMjI5OTE2IDAtLjMwNjU1NSAwLS40NTk4MzIgMC0uNDU5ODMyIDAtLjIyOTkxNiAwLS40NTk4MzIgMC0uNjg5NzQ4IDMuMDY1NTQ5LTIuMTQ1ODg0IDUuOTc3ODItNC40NDUwNDYgOC43MzY4MTMtNi45NzQxMjMgNS44MjQ1NDItNS4yODgwNzEgMTAuOTU5MzM2LTExLjM0MjUyOSAxNS4yNTExMDQtMTcuODU2ODIuMzgzMTkzLS42MTMxMDkuNzY2Mzg3LTEuMjI2MjE5IDEuMTQ5NTgxLTEuODM5MzI5IDE2LjU1Mzk2MS45MTk2NjUgMjguMjc5Njg0LTEwLjI2OTU4NyAyOC4yNzk2ODQtMTAuMjY5NTg3LTIuNzU4OTk0LTE3LjI0MzcxLTEyLjU2ODc0OS0yNS42NzM5NjgtMTQuNjM3OTk0LTI3LjI4MzM4MSAwIDAtLjA3NjYzOS0uMDc2NjM5LS4yMjk5MTYtLjE1MzI3Ny0uMTUzMjc4LS4wNzY2MzktLjE1MzI3OC0uMTUzMjc4LS4xNTMyNzgtLjE1MzI3OC0uMDc2NjM4LS4wNzY2MzktLjIyOTkxNi0uMTUzMjc3LS4zODMxOTMtLjIyOTkxNi4wNzY2MzktMS4wNzI5NDIuMTUzMjc3LTIuMDY5MjQ1LjIyOTkxNi0zLjE0MjE4Ny4xNTMyNzctMS44MzkzMjkuMTUzMjc3LTMuNzU1Mjk3LjE1MzI3Ny01LjU5NDYyNnYtMS4zNzk0OTctLjY4OTc0OC0uMzgzMTk0YzAtLjQ1OTgzMiAwLS4zMDY1NTUgMC0uNDU5ODMybC0uMDc2NjM4LTEuMTQ5NTgxLS4wNzY2MzktMS41MzI3NzRjMC0uNTM2NDcxLS4wNzY2MzktLjk5NjMwMy0uMTUzMjc3LTEuNDU2MTM1LS4wNzY2MzktLjQ1OTgzMy0uMDc2NjM5LS45OTYzMDQtLjE1MzI3OC0xLjQ1NjEzNmwtLjE1MzI3Ny0xLjQ1NjEzNS0uMjI5OTE2LTEuNDU2MTM2Yy0uMzA2NTU1LTEuOTE1OTY4LS42MTMxMS0zLjc1NTI5Ny0xLjA3Mjk0Mi01LjY3MTI2NS0xLjc2MjY5MS03LjQzMzk1NC00LjY3NDk2Mi0xNC40ODQ3MTYtOC40MzAyNTgtMjAuODQ1NzI5LTMuODMxOTM2LTYuMzYxMDEzLTguNTgzNTM2LTExLjk1NTYzOS0xNC4wMjQ4ODUtMTYuNzA3MjM5LTUuMzY0NzA5LTQuNzUxNi0xMS40MTkxNjctOC41ODM1MzUtMTcuNzAzNTQyLTExLjQxOTE2OC02LjM2MTAxMy0yLjgzNTYzMi0xMi45NTE5NDItNC42NzQ5NjEtMTkuNTQyODcxLTUuNTE3OTg2OC0zLjI5NTQ2NS0uNDU5ODMyMy02LjU5MDkyOS0uNjEzMTA5Ny05Ljg4NjM5NC0uNTM2NDcxaC0xLjIyNjIxOS0uMzA2NTU1Yy0uMDc2NjM5IDAtLjQ1OTgzMiAwLS4zODMxOTMgMGgtLjUzNjQ3MWwtMS4yMjYyMi4wNzY2Mzg3Yy0uNDU5ODMyIDAtLjkxOTY2NC4wNzY2Mzg3LTEuMzAyODU4LjA3NjYzODctMS42ODYwNTEuMTUzMjc3NC0zLjM3MjEwMy4zODMxOTM2LTQuOTgxNTE2LjY4OTc0ODQtNi41OTA5MjkgMS4yMjYyMTk0LTEyLjc5ODY2NSAzLjYwMjAxOS0xOC4yNDAwMTMgNi44OTc0ODQtNS40NDEzNDkgMy4yOTU0NjUtMTAuMTkyOTQ5IDcuMzU3MzE2LTE0LjAyNDg4NCAxMS45NTU2MzktMy44MzE5MzYgNC41OTgzMjItNi44MjA4NDUgOS43MzMxMTYtOC44OTAwOTEgMTUuMDIxMTg3LTIuMDY5MjQ1IDUuMjg4MDcxLTMuMjE4ODI2IDEwLjgwNjA1OC0zLjUyNTM4IDE2LjA5NDEyOS0uMDc2NjM5IDEuMzAyODU4LS4wNzY2MzkgMi42ODIzNTUtLjA3NjYzOSAzLjk4NTIxM3YuOTk2MzA0bC4wNzY2MzkgMS4wNzI5NDJjLjA3NjYzOC42MTMxMDkuMDc2NjM4IDEuMzAyODU4LjE1MzI3NyAxLjkxNTk2Ny4yMjk5MTYgMi42ODIzNTUuNzY2Mzg3IDUuMjg4MDcxIDEuNDU2MTM2IDcuNzQwNTEgMS40NTYxMzUgNC45ODE1MTYgMy43NTUyOTYgOS41MDMyIDYuNTkwOTI5IDEzLjMzNTEzNiAyLjgzNTYzMiAzLjgzMTkzNSA2LjI4NDM3NCA2Ljk3NDEyMiA5Ljg4NjM5MyA5LjUwMzIgMy42MDIwMiAyLjQ1MjQzOSA3LjUxMDU5NCA0LjIxNTEyOSAxMS4zNDI1MyA1LjM2NDcxIDMuODMxOTM1IDEuMTQ5NTggNy42NjM4NzEgMS42MDk0MTMgMTEuMjY1ODkgMS42MDk0MTNoMS4zMDI4NTguNjg5NzQ4Yy4yMjk5MTcgMCAuNDU5ODMzIDAgLjY4OTc0OS0uMDc2NjM5LjM4MzE5MyAwIC43NjYzODctLjA3NjYzOSAxLjE0OTU4MS0uMDc2NjM5LjA3NjYzOCAwIC4yMjk5MTYgMCAuMzA2NTU0LS4wNzY2MzlsLjM4MzE5NC0uMDc2NjM4Yy4yMjk5MTYgMCAuNDU5ODMyLS4wNzY2MzkuNjg5NzQ4LS4wNzY2MzkuNDU5ODMzLS4wNzY2MzkuODQzMDI2LS4xNTMyNzcgMS4zMDI4NTgtLjIyOTkxNi40NTk4MzMtLjA3NjYzOS44NDMwMjYtLjE1MzI3OCAxLjIyNjIyLS4zMDY1NTUuODQzMDI2LS4xNTMyNzcgMS42MDk0MTMtLjQ1OTgzMiAyLjM3NTgtLjY4OTc0OCAxLjUzMjc3NC0uNTM2NDcxIDMuMDY1NTQ4LTEuMTQ5NTgxIDQuMzY4NDA2LTEuODM5MzI5IDEuMzc5NDk3LS42ODk3NDkgMi42MDU3MTctMS41MzI3NzUgMy44MzE5MzYtMi4yOTkxNjIuMzA2NTU1LS4yMjk5MTYuNjg5NzQ4LS40NTk4MzIuOTk2MzAzLS43NjYzODcgMS4yMjYyMTktLjk5NjMwMyAxLjQ1NjEzNi0yLjgzNTYzMi40NTk4MzItNC4wNjE4NTItLjg0MzAyNS0xLjA3Mjk0MS0yLjM3NTgtMS4zNzk0OTYtMy42MDIwMTktLjY4OTc0OC0uMzA2NTU1LjE1MzI3Ny0uNjEzMTEuMzA2NTU1LS45MTk2NjUuNDU5ODMyLTEuMDcyOTQxLjUzNjQ3MS0yLjE0NTg4My45OTYzMDQtMy4yOTU0NjQgMS4zNzk0OTctMS4xNDk1ODEuMzgzMTk0LTIuMzc1OC42ODk3NDktMy42MDIwMi45MTk2NjUtLjYxMzEwOS4wNzY2MzgtMS4yMjYyMTkuMTUzMjc3LTEuOTE1OTY3LjIyOTkxNi0uMzA2NTU1IDAtLjYxMzExLjA3NjYzOC0uOTk2MzA0LjA3NjYzOC0uMzA2NTU0IDAtLjY4OTc0OCAwLS45MTk2NjQgMC0uMzA2NTU1IDAtLjYxMzExIDAtLjkxOTY2NSAwLS4zODMxOTMgMC0uNzY2Mzg3IDAtMS4xNDk1OC0uMDc2NjM4aC0uMDc2NjM5LS4xNTMyNzctLjIyOTkxN2MtLjE1MzI3NyAwLS4zODMxOTMgMC0uNTM2NDctLjA3NjYzOS0uMzgzMTk0LS4wNzY2MzktLjY4OTc0OS0uMDc2NjM5LTEuMDcyOTQyLS4xNTMyNzctMi44MzU2MzMtLjM4MzE5NC01LjY3MTI2NS0xLjIyNjIyLTguMzUzNjItMi40NTI0MzktMi43NTg5OTMtMS4yMjYyMTktNS4zNjQ3MS0yLjkxMjI3MS03Ljc0MDUxLTUuMDU4MTU1cy00LjQ0NTA0NS00LjY3NDk2MS02LjA1NDQ1OC03LjU4NzIzMi0yLjc1ODk5My02LjEzMTA5Ny0zLjI5NTQ2NC05LjUwMzJjLS4yMjk5MTctMS42ODYwNTItLjM4MzE5NC0zLjQ0ODc0Mi0uMzA2NTU1LTUuMTM0Nzk0IDAtLjQ1OTgzMi4wNzY2MzgtLjkxOTY2NS4wNzY2MzgtMS4zNzk0OTd2LS4wNzY2MzktLjE1MzI3Ny0uMzgzMTk0YzAtLjIyOTkxNi4wNzY2MzktLjQ1OTgzMi4wNzY2MzktLjY4OTc0OC4wNzY2MzktLjkxOTY2NS4yMjk5MTYtMS44MzkzMjkuMzgzMTk0LTIuNzU4OTk0IDEuMzAyODU4LTcuMzU3MzE2IDQuOTgxNTE2LTE0LjU2MTM1NSAxMC42NTI3ODEtMjAuMDAyNzAzIDEuNDU2MTM1LTEuMzc5NDk3IDIuOTg4OTA5LTIuNjA1NzE2IDQuNTk4MzIyLTMuNzU1Mjk3czMuMzcyMTAzLTIuMTQ1ODg0IDUuMjExNDMzLTIuOTg4OTFjMS44MzkzMjktLjg0MzAyNSAzLjY3ODY1OC0xLjUzMjc3NCA1LjY3MTI2NC0yLjA2OTI0NSAxLjkxNTk2OC0uNTM2NDcxIDMuOTA4NTc0LS44NDMwMjYgNS45Nzc4Mi0xLjA3Mjk0Mi45OTYzMDMtLjA3NjYzOCAxLjk5MjYwNi0uMTUzMjc3IDMuMDY1NTQ4LS4xNTMyNzdoLjY4OTc0OC44NDMwMjYuNTM2NDcxLjA3NjYzOS4yMjk5MTZsLjg0MzAyNi4wNzY2MzljMi4yMjI1MjIuMTUzMjc3IDQuMzY4NDA2LjQ1OTgzMiA2LjUxNDI5Ljk5NjMwMyA0LjI5MTc2OC45MTk2NjQgOC41MDY4OTcgMi41MjkwNzcgMTIuNDE1NDcxIDQuNjc0OTYxIDcuODE3MTQ5IDQuMzY4NDA3IDE0LjQ4NDcxNyAxMS4xMTI2MTMgMTguNTQ2NTY4IDE5LjIzNjMxNyAyLjA2OTI0NiA0LjA2MTg1MSAzLjUyNTM4MSA4LjQzMDI1OCA0LjIxNTEyOSAxMi45NTE5NDIuMTUzMjc4IDEuMTQ5NTguMzA2NTU1IDIuMjk5MTYxLjM4MzE5NCAzLjQ0ODc0MmwuMDc2NjM5Ljg0MzAyNS4wNzY2MzguODQzMDI2di44NDMwMjYuODQzMDI2Ljc2NjM4Ny44NDMwMjZjMCAuNTM2NDcxLS4wNzY2MzggMS40NTYxMzUtLjA3NjYzOCAxLjk5MjYwNi0uMDc2NjM5IDEuMjI2MjItLjIyOTkxNiAyLjUyOTA3OC0uMzgzMTk0IDMuNzU1Mjk3LS4xNTMyNzcgMS4yMjYyMTktLjM4MzE5MyAyLjQ1MjQzOS0uNjEzMTEgMy42Nzg2NTgtLjIyOTkxNiAxLjIyNjIyLS41MzY0NzEgMi40NTI0MzktLjg0MzAyNSAzLjYwMjAyLS42MTMxMSAyLjM3NTgtMS4zNzk0OTcgNC43NTE2LTIuMjk5MTYyIDcuMTI3NC0xLjgzOTMyOSA0LjU5ODMyMi00LjI5MTc2NyA5LjA0MzM2OC03LjIwNDAzOCAxMy4xMDUyMTktNS45MDExODEgOC4xMjM3MDQtMTMuOTQ4MjQ2IDE0LjcxNDYzMy0yMy4xNDQ4OTEgMTguOTI5NzYyLTQuNTk4MzIzIDIuMDY5MjQ1LTkuNDI2NTYyIDMuNjAyMDE5LTE0LjQwODA3OCA0LjM2ODQwNi0yLjQ1MjQzOC40NTk4MzMtNC45ODE1MTYuNjg5NzQ5LTcuNTEwNTkzLjc2NjM4N2gtLjQ1OTgzMy0uMzgzMTkzLS44NDMwMjYtMS4yMjYyMTktLjYxMzExLS4wNzY2MzktLjIyOTkxNmMtMS4zNzk0OTcgMC0yLjY4MjM1NS0uMDc2NjM4LTQuMDYxODUyLS4yMjk5MTYtNS4zNjQ3MDktLjM4MzE5My0xMC42NTI3OC0xLjM3OTQ5Ni0xNS44NjQyMTMtMi44MzU2MzItNS4xMzQ3OTMtMS40NTYxMzYtMTAuMTE2MzEtMy41MjUzODEtMTQuODY3OTEtNS45Nzc4MTktOS40MjY1NjEtNS4wNTgxNTUtMTcuOTMzNDU3OS0xMS45NTU2MzktMjQuNTI0Mzg3LTIwLjMwOTI1OS0zLjI5NTQ2NDYtNC4xMzg0OS02LjIwNzczNTYtOC42NjAxNzQtOC41ODM1MzU2LTEzLjMzNTEzNS0yLjM3NTgtNC42NzQ5NjItNC4yOTE3Njc4LTkuNjU2NDc4LTUuNjcxMjY0Ni0xNC42Mzc5OTQtMS4zNzk0OTY4LTUuMDU4MTU1LTIuMjIyNTIyNi0xMC4xOTI5NDktMi42MDU3MTYyLTE1LjQwNDM4MWwtLjA3NjYzODctLjk5NjMwM3YtLjIyOTkxNi0uMjI5OTE3LS40NTk4MzItLjg0MzAyNi0uMjI5OTE2LS4zMDY1NTUtLjYxMzEwOS0xLjIyNjIyLS4yMjk5MTZzMCAuMDc2NjM5IDAtLjA3NjYzOHYtLjQ1OTgzM2MwLS42MTMxMDkgMC0xLjMwMjg1OCAwLTEuOTE1OTY4LjA3NjYzODctMi41MjkwNzcuMzA2NTU0OS01LjIxMTQzMi42MTMxMDk3LTcuODE3MTQ4LjMwNjU1NDktMi42MDU3MTYuNzY2Mzg3MS01LjI4ODA3MSAxLjMwMjg1ODEtNy44OTM3ODdzMS4xNDk1ODA3LTUuMjExNDMzIDEuOTE1OTY3OC03LjgxNzE0OWMxLjQ1NjEzNTUtNS4xMzQ3OTMgMy4yOTU0NjQ1LTEwLjExNjMxIDUuNDQxMzQ4NC0xNC43OTEyNzEgNC4zNjg0MDY1LTkuMzQ5OTIyNiAxMC4wMzk2NzExLTE3LjcwMzU0MjEgMTYuODYwNTE2NC0yNC4zNzExMDk5IDEuNjg2MDUxNi0xLjY4NjA1MTYgMy40NDg3NDE3LTMuMjE4ODI1OCA1LjI4ODA3MDctNC43NTE2MDAxIDEuODM5MzI5LTEuNDU2MTM1NSAzLjc1NTI5Ny0yLjgzNTYzMjIgNS43NDc5MDQtNC4xMzg0OTAzIDEuOTE1OTY3LTEuMzAyODU4MSAzLjk4NTIxMy0yLjQ1MjQzODggNi4wNTQ0NTgtMy41MjUzODA3Ljk5NjMwMy0uNTM2NDcxIDIuMDY5MjQ1LTEuMDcyOTQyIDMuMTQyMTg3LTEuNTMyNzc0Mi41MzY0NzEtLjIyOTkxNjIgMS4wNzI5NDItLjQ1OTgzMjMgMS42MDk0MTMtLjY4OTc0ODQuNTM2NDcxLS4yMjk5MTYyIDEuMDcyOTQyLS40NTk4MzIzIDEuNjA5NDEzLS42ODk3NDg0IDIuMTQ1ODg0LS45MTk2NjQ2IDQuMzY4NDA2LTEuNjg2MDUxNyA2LjY2NzU2OC0yLjM3NTgwMDEuNTM2NDcxLS4xNTMyNzc0IDEuMTQ5NTgtLjMwNjU1NDggMS42ODYwNTEtLjUzNjQ3MDkuNTM2NDcxLS4xNTMyNzc1IDEuMTQ5NTgxLS4zMDY1NTQ5IDEuNjg2MDUyLS40NTk4MzIzIDEuMTQ5NTgxLS4zMDY1NTQ4IDIuMjk5MTYxLS42MTMxMDk3IDMuNDQ4NzQyLS44NDMwMjU4LjUzNjQ3MS0uMTUzMjc3NCAxLjE0OTU4MS0uMjI5OTE2MiAxLjc2MjY5LS4zODMxOTM2LjYxMzExLS4xNTMyNzc0IDEuMTQ5NTgxLS4yMjk5MTYxIDEuNzYyNjkxLS4zODMxOTM1LjYxMzEwOS0uMDc2NjM4NyAxLjE0OTU4LS4yMjk5MTYyIDEuNzYyNjktLjMwNjU1NDlsLjg0MzAyNi0uMTUzMjc3NC45MTk2NjQtLjE1MzI3NzRjLjYxMzExLS4wNzY2Mzg3IDEuMTQ5NTgxLS4xNTMyNzc0IDEuNzYyNjkxLS4yMjk5MTYxLjY4OTc0OC0uMDc2NjM4OCAxLjMwMjg1OC0uMTUzMjc3NSAxLjk5MjYwNi0uMjI5OTE2Mi41MzY0NzEtLjA3NjYzODcgMS40NTYxMzYtLjE1MzI3NzQgMS45OTI2MDctLjIyOTkxNjEuMzgzMTkzLS4wNzY2Mzg3Ljg0MzAyNS0uMDc2NjM4NyAxLjIyNjIxOS0uMTUzMjc3NGwuODQzMDI2LS4wNzY2Mzg3LjM4MzE5My0uMDc2NjM4OGguNDU5ODMzYy42ODk3NDgtLjA3NjYzODcgMS4zMDI4NTgtLjA3NjYzODcgMS45OTI2MDYtLjE1MzI3NzRsLjk5NjMwMy0uMDc2NjM4N3MuMzgzMTk0IDAgLjA3NjYzOSAwaC4yMjk5MTYuNDU5ODMyYy41MzY0NzEgMCAxLjE0OTU4MS0uMDc2NjM4NyAxLjY4NjA1Mi0uMDc2NjM4NyAyLjIyMjUyMy0uMDc2NjM4NyA0LjUyMTY4NC0uMDc2NjM4NyA2Ljc0NDIwNyAwIDQuNDQ1MDQ1LjE1MzI3NzQgOC44MTM0NTEuNjg5NzQ4NCAxMy4wMjg1OCAxLjQ1NjEzNTUgOC41MDY4OTcgMS42MDk0MTI5IDE2LjQ3NzMyMyA0LjI5MTc2NzggMjMuNzU4MDAxIDcuODkzNzg3MiA3LjI4MDY3NyAzLjUyNTM4MDcgMTMuNzE4MzI5IDcuODkzNzg3MiAxOS4zODk1OTMgMTIuNjQ1Mzg3My4zODMxOTQuMzA2NTU0OC42ODk3NDkuNjEzMTA5NyAxLjA3Mjk0Mi45MTk2NjQ1LjMwNjU1NS4zMDY1NTQ5LjY4OTc0OS42MTMxMDk3Ljk5NjMwNC45MTk2NjQ1LjY4OTc0OC42MTMxMDk3IDEuMzAyODU4IDEuMjI2MjE5NCAxLjk5MjYwNiAxLjgzOTMyOTEuNjg5NzQ5LjYxMzEwOTcgMS4zMDI4NTggMS4yMjYyMTk0IDEuOTE1OTY4IDEuODM5MzI5MS42MTMxMS42MTMxMDk2IDEuMjI2MjE5IDEuMjI2MjE5MyAxLjgzOTMyOSAxLjkxNTk2NzcgMi4zNzU4IDIuNTI5MDc3NSA0LjU5ODMyMyA1LjA1ODE1NDkgNi41OTA5MjkgNy42NjM4NzExIDMuOTg1MjEzIDUuMTM0Nzk0IDcuMjA0MDM5IDEwLjM0NjIyNiA5LjczMzExNiAxNS4yNTExMDMuMTUzMjc4LjMwNjU1NS4zMDY1NTUuNjEzMTEuNDU5ODMzLjkxOTY2NS4xNTMyNzcuMzA2NTU1LjMwNjU1NC42MTMxMS40NTk4MzIuOTE5NjY0LjMwNjU1NS42MTMxMS42MTMxMSAxLjIyNjIyLjg0MzAyNiAxLjgzOTMzLjMwNjU1NS42MTMxMDkuNTM2NDcxIDEuMTQ5NTguODQzMDI2IDEuNzYyNjkuMjI5OTE2LjYxMzExLjUzNjQ3MSAxLjE0OTU4MS43NjYzODcgMS43NjI2OS45MTk2NjQgMi4yOTkxNjIgMS44MzkzMjkgNC41MjE2ODQgMi41MjkwNzcgNi41OTA5MjkgMS4xNDk1ODEgMy4zNzIxMDQgMS45OTI2MDcgNi4zNjEwMTMgMi42ODIzNTUgOC45NjY3My4yMjk5MTYgMS4wNzI5NDEgMS4yMjYyMTkgMS43NjI2OSAyLjI5OTE2MSAxLjYwOTQxMiAxLjE0OTU4MS0uMDc2NjM4IDEuOTkyNjA3LS45OTYzMDMgMS45OTI2MDctMi4xNDU4ODMuMDc2NjM4LTIuNzU4OTk0IDAtNi4wNTQ0NTktLjM4MzE5NC05LjgwOTc1NXoiLz48L3N2Zz4=;" parent="DBhOnroe0UzR9Imo3tEQ-41" vertex="1">
          <mxGeometry x="81.60855310830722" y="139.7916247304098" width="65" height="70.55" as="geometry" />
        </mxCell>
        <mxCell id="DBhOnroe0UzR9Imo3tEQ-40" value="" style="edgeStyle=orthogonalEdgeStyle;rounded=0;orthogonalLoop=1;jettySize=auto;html=1;entryX=0.5;entryY=0;entryDx=0;entryDy=0;strokeWidth=2;startArrow=classic;startFill=1;" parent="DBhOnroe0UzR9Imo3tEQ-41" source="DBhOnroe0UzR9Imo3tEQ-38" target="DBhOnroe0UzR9Imo3tEQ-39" edge="1">
          <mxGeometry relative="1" as="geometry" />
        </mxCell>
        <mxCell id="DBhOnroe0UzR9Imo3tEQ-44" style="edgeStyle=orthogonalEdgeStyle;rounded=1;orthogonalLoop=1;jettySize=auto;html=1;exitX=0.983;exitY=0.8;exitDx=0;exitDy=0;exitPerimeter=0;curved=0;" parent="2j_hzL7mZvjbfzJCZ6OL-5" source="DBhOnroe0UzR9Imo3tEQ-42" target="2j_hzL7mZvjbfzJCZ6OL-10" edge="1">
          <mxGeometry relative="1" as="geometry" />
        </mxCell>
        <mxCell id="DBhOnroe0UzR9Imo3tEQ-42" value="&lt;b&gt;&lt;font color=&quot;#3333ff&quot;&gt;Pull-Metriken&lt;/font&gt;&lt;/b&gt;" style="image;aspect=fixed;html=1;points=[];align=center;fontSize=12;image=img/lib/azure2/management_governance/Metrics.svg;labelPosition=center;verticalLabelPosition=top;verticalAlign=bottom;" parent="2j_hzL7mZvjbfzJCZ6OL-5" vertex="1">
          <mxGeometry x="272.9676639344262" y="715.2242990654205" width="37.54687493852459" height="40.67366276346604" as="geometry" />
        </mxCell>
        <mxCell id="DBhOnroe0UzR9Imo3tEQ-43" style="edgeStyle=orthogonalEdgeStyle;rounded=1;orthogonalLoop=1;jettySize=auto;html=1;entryX=-0.017;entryY=0.754;entryDx=0;entryDy=0;entryPerimeter=0;endArrow=none;endFill=0;startArrow=block;startFill=1;curved=0;" parent="2j_hzL7mZvjbfzJCZ6OL-5" source="2j_hzL7mZvjbfzJCZ6OL-6" target="DBhOnroe0UzR9Imo3tEQ-42" edge="1">
          <mxGeometry relative="1" as="geometry">
            <Array as="points">
              <mxPoint x="101.06714139344263" y="750.8411214953271" />
              <mxPoint x="244.46154713114754" y="750.8411214953271" />
              <mxPoint x="244.46154713114754" y="749.8785046728972" />
            </Array>
          </mxGeometry>
        </mxCell>
        <mxCell id="DBhOnroe0UzR9Imo3tEQ-45" style="edgeStyle=orthogonalEdgeStyle;rounded=0;orthogonalLoop=1;jettySize=auto;html=1;entryX=0.477;entryY=-0.002;entryDx=0;entryDy=0;entryPerimeter=0;endArrow=none;endFill=0;strokeWidth=3;" parent="2j_hzL7mZvjbfzJCZ6OL-5" source="DBhOnroe0UzR9Imo3tEQ-42" target="DBhOnroe0UzR9Imo3tEQ-27" edge="1">
          <mxGeometry relative="1" as="geometry" />
        </mxCell>
        <mxCell id="DBhOnroe0UzR9Imo3tEQ-52" style="rounded=0;orthogonalLoop=1;jettySize=auto;html=1;entryX=-0.004;entryY=0.511;entryDx=0;entryDy=0;entryPerimeter=0;startArrow=classic;startFill=1;strokeWidth=3;" parent="2j_hzL7mZvjbfzJCZ6OL-5" source="2j_hzL7mZvjbfzJCZ6OL-6" target="2j_hzL7mZvjbfzJCZ6OL-10" edge="1">
          <mxGeometry relative="1" as="geometry" />
        </mxCell>
        <mxCell id="irkbpjeK_2gSpIbQbNrz-91" value="" style="editableCssRules=.*;html=1;shape=image;verticalLabelPosition=bottom;labelBackgroundColor=#ffffff;verticalAlign=top;aspect=fixed;imageAspect=0;image=data:image/svg+xml,PHN2ZyB4bWxucz0iaHR0cDovL3d3dy53My5vcmcvMjAwMC9zdmciIHhtbG5zOnY9Imh0dHBzOi8vdmVjdGEuaW8vbmFubyIgd2lkdGg9IjcwMi44NDYzMTM0NzY1NjI1IiBoZWlnaHQ9IjY4MS45NjcxMDIwNTA3ODEyIiB2aWV3Qm94PSIxMC4wMDEwMjYxNTM1NjQ0NTMgMTAuMDAwOTMzNjQ3MTU1NzYyIDcwMi44NDYzMTM0NzY1NjI1IDY4MS45NjcxMDIwNTA3ODEyIj4mI3hhOwk8c3R5bGUgdHlwZT0idGV4dC9jc3MiPiYjeGE7CS5zdDB7ZmlsbDojMzI2Y2U1O30mI3hhOwkuc3Qxe2ZpbGw6I2ZmZjt9JiN4YTsJPC9zdHlsZT4mI3hhOwk8cGF0aCBjbGFzcz0ic3QwIiBkPSJNMzU4Ljk4NyAxMC4wNmMtNi4yMTMuMzEzLTEyLjMwMSAxLjg1NC0xNy45MDYgNC41MzFMOTYuNzM3IDEzMS4zNDJjLTEyLjgxMSA2LjExOC0yMi4xMTYgMTcuNjg5LTI1LjI4MSAzMS40MzhsLTYwLjI4MSAyNjIuMjVjLTIuODEyIDEyLjIwNy0uNTI0IDI1LjAyNCA2LjM0NCAzNS41MzFhNDYuMzUgNDYuMzUgMCAwIDAgMi42NTYgMy42ODhsMTY5LjEyNSAyMTAuMjgxYzguODY4IDExLjAyMiAyMi4zMTMgMTcuNDQgMzYuNTMxIDE3LjQzOGwyNzEuMjE5LS4wNjJjMTQuMjEyLjAxIDI3LjY1Ny02LjM5NiAzNi41MzEtMTcuNDA2bDE2OS4wNjMtMjEwLjMxM2M4Ljg3My0xMS4wMjggMTIuMTk3LTI1LjQ2NCA5LjAzMS0zOS4yMTlsLTYwLjM3NS0yNjIuMjVjLTMuMTY1LTEzLjc0OC0xMi40Ny0yNS4zMTktMjUuMjgxLTMxLjQzN0wzODEuNjQzIDE0LjU5MmMtNy4wNS0zLjM2OC0xNC44NDEtNC45MjYtMjIuNjU2LTQuNTMxeiIvPiYjeGE7CTxwYXRoIGNsYXNzPSJzdDEgc3QyIiBkPSJNMzYxLjQwOCA5OS4zMDhjLTguMDc3LjAwMS0xNC42MjYgNy4yNzYtMTQuNjI1IDE2LjI1IDAgLjEzOC4wMjguMjY5LjAzMS40MDYtLjAxMiAxLjIxOS0uMDcxIDIuNjg4LS4wMzEgMy43NS4xOTMgNS4xNzYgMS4zMjEgOS4xMzcgMiAxMy45MDYgMS4yMyAxMC4yMDcgMi4yNjEgMTguNjY3IDEuNjI1IDI2LjUzMS0uNjE5IDIuOTY1LTIuODAzIDUuNjc3LTQuNzUgNy41NjNsLS4zNDQgNi4xODhjLTguNzc3LjcyNy0xNy42MTIgMi4wNTktMjYuNDM3IDQuMDYzLTM3Ljk3NSA4LjYyMi03MC42NyAyOC4xODMtOTUuNTYyIDU0LjU5NC0xLjYxNS0xLjEwMi00LjQ0MS0zLjEyOS01LjI4MS0zLjc1LTIuNjExLjM1My01LjI1IDEuMTU4LTguNjg3LS44NDQtNi41NDUtNC40MDYtMTIuNTA2LTEwLjQ4Ny0xOS43MTktMTcuODEyLTMuMzA1LTMuNTA0LTUuNjk4LTYuODQxLTkuNjI1LTEwLjIxOS0uODkyLS43NjctMi4yNTMtMS44MDUtMy4yNS0yLjU5NC0zLjA3LTIuNDQ4LTYuNjkxLTMuNzI0LTEwLjE4Ny0zLjg0NC00LjQ5Ni0uMTU0LTguODI0IDEuNjA0LTExLjY1NiA1LjE1Ni01LjAzNSA2LjMxNS0zLjQyMyAxNS45NjggMy41OTQgMjEuNTYzLjA3MS4wNTcuMTQ3LjEwMS4yMTkuMTU2Ljk2NC43ODIgMi4xNDUgMS43ODMgMy4wMzEgMi40MzggNC4xNjcgMy4wNzcgNy45NzMgNC42NTEgMTIuMTI1IDcuMDk0IDguNzQ3IDUuNDAyIDE1Ljk5OCA5Ljg4MSAyMS43NSAxNS4yODEgMi4yNDYgMi4zOTQgMi42MzkgNi42MTMgMi45MzggOC40MzhsNC42ODggNC4xODhjLTI1LjA5MyAzNy43NjQtMzYuNzA3IDg0LjQwOS0yOS44NDQgMTMxLjkzOGwtNi4xMjUgMS43ODFjLTEuNjE0IDIuMDg1LTMuODk1IDUuMzY1LTYuMjgxIDYuMzQ0LTcuNTI1IDIuMzctMTUuOTk0IDMuMjQxLTI2LjIxOSA0LjMxMy00LjguMzk5LTguOTQyLjE2MS0xNC4wMzEgMS4xMjUtMS4xMi4yMTItMi42ODEuNjE5LTMuOTA2LjkwNi0uMDQzLjAwOS0uMDgyLjAyMi0uMTI1LjAzMS0uMDY3LjAxNS0uMTU1LjA0OC0uMjE5LjA2My04LjYyIDIuMDgzLTE0LjE1OCAxMC4wMDYtMTIuMzc1IDE3LjgxM3MxMC4yMDMgMTIuNTU3IDE4Ljg3NSAxMC42ODhjLjA2My0uMDE0LjE1NC0uMDE3LjIxOS0uMDMxLjA5OC0uMDIyLjE4NC0uMDcuMjgxLS4wOTQgMS4yMDktLjI2NSAyLjcyNC0uNTYxIDMuNzgxLS44NDQgNS4wMDMtMS4zNCA4LjYyNy0zLjMwOCAxMy4xMjUtNS4wMzEgOS42NzctMy40NzEgMTcuNjkyLTYuMzcgMjUuNS03LjUgMy4yNjEtLjI1NSA2LjY5NyAyLjAxMiA4LjQwNiAyLjk2OWw2LjM3NS0xLjA5NGMxNC42NyA0NS40ODMgNDUuNDE0IDgyLjI0NSA4NC4zNDQgMTA1LjMxMmwtMi42NTYgNi4zNzVjLjk1NyAyLjQ3NSAyLjAxMyA1LjgyNSAxLjMgOC4yNjktMi44MzkgNy4zNjEtNy43MDEgMTUuMTMxLTEzLjIzOCAyMy43OTMtMi42ODEgNC4wMDItNS40MjUgNy4xMDgtNy44NDQgMTEuNjg4LS41NzkgMS4wOTYtMS4zMTYgMi43NzktMS44NzUgMy45MzgtMy43NTkgOC4wNDItMS4wMDIgMTcuMzA1IDYuMjE5IDIwLjc4MSA3LjI2NiAzLjQ5OCAxNi4yODQtLjE5MSAyMC4xODctOC4yNS4wMDYtLjAxMS4wMjYtLjAyLjAzMS0uMDMxcy0uMDA0LS4wMjMgMC0uMDMxYy41NTYtMS4xNDMgMS4zNDQtMi42NDQgMS44MTMtMy43MTkgMi4wNzItNC43NDcgMi43NjItOC44MTUgNC4yMTktMTMuNDA2IDMuODctOS43MiA1Ljk5Ni0xOS45MTkgMTEuMzIzLTI2LjI3NCAxLjQ1OS0xLjc0IDMuODM3LTIuNDA5IDYuMzAyLTMuMDdsMy4zMTMtNmMzMy45MzggMTMuMDI3IDcxLjkyNyAxNi41MjIgMTA5Ljg3NSA3LjkwNmExODkuNzcgMTg5Ljc3IDAgMCAwIDI1LjA5NC03LjU2MmwzLjEyNSA1LjYyNWMyLjUwNi44MTUgNS4yNCAxLjIzNiA3LjQ2OSA0LjUzMSAzLjk4NSA2LjgwOSA2LjcxMSAxNC44NjQgMTAuMDMxIDI0LjU5NCAxLjQ1NyA0LjU5MSAyLjE3OCA4LjY1OSA0LjI1IDEzLjQwNi40NzIgMS4wODIgMS4yNTYgMi42MDUgMS44MTMgMy43NSAzLjg5NSA4LjA4NSAxMi45NDIgMTEuNzg3IDIwLjIxOSA4LjI4MSA3LjIxOS0zLjQ3OCA5Ljk4LTEyLjc0IDYuMjE5LTIwLjc4MWwtMS45MDYtMy45MzdjLTIuNDE5LTQuNTgtNS4xNjMtNy42NTQtNy44NDQtMTEuNjU2LTUuNTM3LTguNjYyLTEwLjEzLTE1Ljg1OC0xMi45NjktMjMuMjE5LTEuMTg3LTMuNzk3LjItNi4xNTggMS4xMjUtOC42MjUtLjU1NC0uNjM1LTEuNzM5LTQuMjItMi40MzctNS45MDYgNDAuNDU3LTIzLjg4OCA3MC4yOTktNjIuMDIxIDg0LjMxMy0xMDYuMDYyIDEuODkyLjI5NyA1LjE4Mi44NzkgNi4yNSAxLjA5NCAyLjItMS40NTEgNC4yMjItMy4zNDQgOC4xODgtMy4wMzEgNy44MDggMS4xMjkgMTUuODIzIDQuMDMgMjUuNSA3LjUgNC40OTggMS43MjMgOC4xMjIgMy43MjMgMTMuMTI1IDUuMDYzIDEuMDU3LjI4MyAyLjU3Mi41NDcgMy43ODEuODEzLjA5Ny4wMjQuMTgzLjA3MS4yODEuMDk0LjA2NS4wMTUuMTU2LjAxNy4yMTkuMDMxIDguNjcyIDEuODY3IDE3LjA5NC0yLjg3OSAxOC44NzUtMTAuNjg3cy0zLjc1NC0xNS43MzItMTIuMzc1LTE3LjgxMmMtMS4yNTQtLjI4NS0zLjAzMi0uNzY5LTQuMjUtMS01LjA4OS0uOTY0LTkuMjMxLS43MjYtMTQuMDMxLTEuMTI1LTEwLjIyNS0xLjA3MS0xOC42OTMtMS45NDMtMjYuMjE5LTQuMzEyLTMuMDY4LTEuMTktNS4yNTEtNC44NDEtNi4zMTMtNi4zNDRsLTUuOTA2LTEuNzE5YzMuMDYyLTIyLjE1NCAyLjIzNy00NS4yMTEtMy4wNjItNjguMjgxLTUuMzQ4LTIzLjI4NS0xNC44LTQ0LjU4MS0yNy40MDYtNjMuMzQ0bDUuMTg4LTQuNjU2Yy4yMzctMi42MjQuMDMzLTUuMzc2IDIuNzUtOC4yODEgNS43NTEtNS40MDEgMTMuMDAzLTkuODc5IDIxLjc1LTE1LjI4MSA0LjE1Mi0yLjQ0MyA3Ljk5LTQuMDE3IDEyLjE1Ni03LjA5NC45NDItLjY5NiAyLjIyOS0xLjc5OCAzLjIxOS0yLjU5NCA3LjAxNS01LjU5NiA4LjYzMS0xNS4yNDggMy41OTQtMjEuNTYycy0xNC43OTctNi45MDktMjEuODEyLTEuMzEyYy0uOTk5Ljc5MS0yLjM1NCAxLjgyMy0zLjI1IDIuNTk0LTMuOTI3IDMuMzc4LTYuMzUxIDYuNzE0LTkuNjU2IDEwLjIxOS03LjIxMiA3LjMyNi0xMy4xNzQgMTMuNDM4LTE5LjcxOSAxNy44NDQtMi44MzYgMS42NTEtNi45OSAxLjA4LTguODc1Ljk2OWwtNS41NjIgMy45NjljLTMxLjcxOS0zMy4yNjEtNzQuOTA1LTU0LjUyNS0xMjEuNDA2LTU4LjY1NmwtLjM0NC02LjUzMWMtMS45MDQtMS44MjItNC4yMDMtMy4zNzctNC43ODEtNy4zMTItLjYzNi03Ljg2NC40MjYtMTYuMzI1IDEuNjU2LTI2LjUzMS42NzktNC43NjkgMS44MDctOC43MyAyLTEzLjkwNi4wNDQtMS4xNzctLjAyNi0yLjg4NC0uMDMxLTQuMTU2LS4wMDEtOC45NzQtNi41NDgtMTYuMjUxLTE0LjYyNS0xNi4yNXptLTE4LjMxMiAxMTMuNDM4bC00LjM0NCA3Ni43MTktLjMxMi4xNTZjLS4yOTEgNi44NjMtNS45NCAxMi4zNDQtMTIuODc1IDEyLjM0NGExMi44MiAxMi44MiAwIDAgMS03LjU5NC0yLjQ2OWwtLjEyNS4wNjMtNjIuOTA2LTQ0LjU5NGMxOS4zMzQtMTkuMDExIDQ0LjA2My0zMy4wNiA3Mi41NjItMzkuNTMxIDUuMjA2LTEuMTgyIDEwLjQxLTIuMDU5IDE1LjU5NC0yLjY4N3ptMzYuNjU2IDBjMzMuMjczIDQuMDkyIDY0LjA0NSAxOS4xNTkgODcuNjI1IDQyLjI1bC02Mi41IDQ0LjMxMy0uMjE5LS4wOTRhMTIuOTEgMTIuOTEgMCAwIDEtMTcuNjg3LTIuMzc1Yy0xLjc3MS0yLjIyMS0yLjcwMS00LjgzMi0yLjgxMi03LjQ2OWwtLjA2Mi0uMDMxek0yMzIuMTI2IDI4My42Mmw1Ny40MzcgNTEuMzc1LS4wNjIuMzEzYTEyLjg4IDEyLjg4IDAgMCAxIDEuNjI1IDE3Ljc1IDEyLjg5IDEyLjg5IDAgMCAxLTYuNjg3IDQuNDA2bC0uMDYyLjI1LTczLjYyNSAyMS4yNWMtMy43NDctMzQuMjY1IDQuMzI5LTY3LjU3NCAyMS4zNzUtOTUuMzQ0em0yNTguMTU2LjAzMWM4LjUzNCAxMy44MzMgMTQuOTk3IDI5LjI4MiAxOC44NDQgNDYuMDMxIDMuODAxIDE2LjU0OCA0Ljc1NSAzMy4wNjcgMy4xODggNDkuMDMxbC03NC0yMS4zMTItLjA2Mi0uMzEyYy02LjYyNy0xLjgxMS0xMC42OTktOC41NTItOS4xNTYtMTUuMzEyLjYzMi0yLjc3IDIuMTAyLTUuMTEzIDQuMDk0LTYuODQ0bC0uMDMxLS4xNTYgNTcuMTI1LTUxLjEyNXptLTE0MC42NTYgNTUuMzEzaDIzLjUzMWwxNC42MjUgMTguMjgxLTUuMjUgMjIuODEzLTIxLjEyNSAxMC4xNTYtMjEuMTg3LTEwLjE4Ny01LjI1LTIyLjgxMnptNzUuNDM4IDYyLjU2M2ExMi44MyAxMi44MyAwIDAgMSAyLjk2OS4yMTlsLjEyNS0uMTU2IDc2LjE1NiAxMi44NzVjLTExLjE0NiAzMS4zMTMtMzIuNDczIDU4LjQ0LTYwLjk2OSA3Ni41OTRsLTI5LjU2Mi03MS40MDYuMDk0LS4xMjVjLTIuNzE2LTYuMzEuMDAyLTEzLjcxIDYuMjUtMTYuNzE5IDEuNi0uNzcgMy4yNzEtMS4xOTcgNC45MzgtMS4yODF6bS0xMjcuOTA2LjMxM2ExMi45IDEyLjkgMCAwIDEgMTIuMzc1IDEwLjAzMSAxMi43NyAxMi43NyAwIDAgMS0uNzE5IDcuOTM4bC4yMTkuMjgxLTI5LjI1IDcwLjY4OGMtMjcuMzQ3LTE3LjU0OS00OS4xMjktNDMuODI0LTYwLjc4MS03Ni4wNjJsNzUuNS0xMi44MTIuMTI1LjE1NmMuODQ1LS4xNTUgMS43MDEtLjIzIDIuNTMxLS4yMTl6bTYzLjc4MSAzMC45NjljMi4wMjQtLjA3NCA0LjA3OS4zNDEgNi4wMzEgMS4yODEgMi41NiAxLjIzMyA0LjUzNyAzLjE3MyA1Ljc4MSA1LjVoLjI4MWwzNy4yMTkgNjcuMjVjLTQuODMgMS42MTktOS43OTYgMy4wMDMtMTQuODc1IDQuMTU2LTI4LjQ2NSA2LjQ2My01Ni44MzkgNC41MDUtODIuNTMxLTQuMjVsMzcuMTI1LTY3LjEyNWguMDYzYTEyLjkxIDEyLjkxIDAgMCAxIDEwLjkwNi02LjgxMnoiIHN0cm9rZT0ibm9uZSIgc3Ryb2tlLXdpZHRoPSIuMjUiLz4mI3hhOzwvc3ZnPg==;fontColor=default;" vertex="1" parent="2j_hzL7mZvjbfzJCZ6OL-5">
          <mxGeometry x="133.09478606018112" y="-20.00308411214953" width="53.51976125292739" height="50.842078454332544" as="geometry" />
        </mxCell>
        <mxCell id="irkbpjeK_2gSpIbQbNrz-134" value="" style="group" vertex="1" connectable="0" parent="2j_hzL7mZvjbfzJCZ6OL-5">
          <mxGeometry x="443.09" y="770" width="356.91" height="240" as="geometry" />
        </mxCell>
        <mxCell id="irkbpjeK_2gSpIbQbNrz-1" value="Legende" style="rounded=1;whiteSpace=wrap;html=1;labelPosition=center;verticalLabelPosition=bottom;align=center;verticalAlign=top;fontStyle=1;strokeWidth=3;fontColor=#FFFFFF;labelBackgroundColor=#333333;" vertex="1" parent="irkbpjeK_2gSpIbQbNrz-134">
          <mxGeometry width="356.91" height="240" as="geometry" />
        </mxCell>
        <mxCell id="irkbpjeK_2gSpIbQbNrz-2" value="Network Policies&#xa;" style="aspect=fixed;sketch=0;html=1;dashed=0;whitespace=wrap;fillColor=#2875E2;strokeColor=#ffffff;points=[[0.005,0.63,0],[0.1,0.2,0],[0.9,0.2,0],[0.5,0,0],[0.995,0.63,0],[0.72,0.99,0],[0.5,1,0],[0.28,0.99,0]];shape=mxgraph.kubernetes.icon2;kubernetesLabel=1;prIcon=netpol;labelPosition=right;verticalLabelPosition=middle;align=left;verticalAlign=middle;fontStyle=1;fontSize=10;" vertex="1" parent="irkbpjeK_2gSpIbQbNrz-134">
          <mxGeometry x="13.210000000000036" y="12" width="28" height="26.88" as="geometry" />
        </mxCell>
        <mxCell id="irkbpjeK_2gSpIbQbNrz-3" value="Namespace" style="aspect=fixed;sketch=0;html=1;dashed=0;whitespace=wrap;fillColor=#2875E2;strokeColor=#ffffff;points=[[0.005,0.63,0],[0.1,0.2,0],[0.9,0.2,0],[0.5,0,0],[0.995,0.63,0],[0.72,0.99,0],[0.5,1,0],[0.28,0.99,0]];shape=mxgraph.kubernetes.icon2;kubernetesLabel=1;prIcon=ns;labelPosition=right;verticalLabelPosition=middle;align=left;verticalAlign=middle;fontStyle=1;fontSize=10;" vertex="1" parent="irkbpjeK_2gSpIbQbNrz-134">
          <mxGeometry x="12.400000000000034" y="44" width="28" height="26.88" as="geometry" />
        </mxCell>
        <mxCell id="irkbpjeK_2gSpIbQbNrz-4" value="Service Account" style="aspect=fixed;sketch=0;html=1;dashed=0;whitespace=wrap;fillColor=#2875E2;strokeColor=#ffffff;points=[[0.005,0.63,0],[0.1,0.2,0],[0.9,0.2,0],[0.5,0,0],[0.995,0.63,0],[0.72,0.99,0],[0.5,1,0],[0.28,0.99,0]];shape=mxgraph.kubernetes.icon2;kubernetesLabel=1;prIcon=sa;labelPosition=right;verticalLabelPosition=middle;align=left;verticalAlign=middle;fontStyle=1;fontSize=10;" vertex="1" parent="irkbpjeK_2gSpIbQbNrz-134">
          <mxGeometry x="12.61000000000007" y="74" width="28" height="26.88" as="geometry" />
        </mxCell>
        <mxCell id="irkbpjeK_2gSpIbQbNrz-5" value="Role" style="aspect=fixed;sketch=0;html=1;dashed=0;whitespace=wrap;fillColor=#2875E2;strokeColor=#ffffff;points=[[0.005,0.63,0],[0.1,0.2,0],[0.9,0.2,0],[0.5,0,0],[0.995,0.63,0],[0.72,0.99,0],[0.5,1,0],[0.28,0.99,0]];shape=mxgraph.kubernetes.icon2;kubernetesLabel=1;prIcon=role;fontSize=10;fontStyle=1;labelPosition=right;verticalLabelPosition=middle;align=left;verticalAlign=middle;" vertex="1" parent="irkbpjeK_2gSpIbQbNrz-134">
          <mxGeometry x="13" y="105" width="28" height="26.88" as="geometry" />
        </mxCell>
        <mxCell id="irkbpjeK_2gSpIbQbNrz-6" value="Role Binding" style="aspect=fixed;sketch=0;html=1;dashed=0;whitespace=wrap;fillColor=#2875E2;strokeColor=#ffffff;points=[[0.005,0.63,0],[0.1,0.2,0],[0.9,0.2,0],[0.5,0,0],[0.995,0.63,0],[0.72,0.99,0],[0.5,1,0],[0.28,0.99,0]];shape=mxgraph.kubernetes.icon2;kubernetesLabel=1;prIcon=rb;labelPosition=right;verticalLabelPosition=middle;align=left;verticalAlign=middle;fontStyle=1;fontSize=10;" vertex="1" parent="irkbpjeK_2gSpIbQbNrz-134">
          <mxGeometry x="13" y="138" width="28" height="26.88" as="geometry" />
        </mxCell>
        <mxCell id="irkbpjeK_2gSpIbQbNrz-113" value="Cluster Role Binding" style="aspect=fixed;sketch=0;html=1;dashed=0;whitespace=wrap;fillColor=#2875E2;strokeColor=#ffffff;points=[[0.005,0.63,0],[0.1,0.2,0],[0.9,0.2,0],[0.5,0,0],[0.995,0.63,0],[0.72,0.99,0],[0.5,1,0],[0.28,0.99,0]];shape=mxgraph.kubernetes.icon2;prIcon=crb;fontSize=10;labelPosition=right;verticalLabelPosition=middle;align=left;verticalAlign=middle;fontStyle=1" vertex="1" parent="irkbpjeK_2gSpIbQbNrz-134">
          <mxGeometry x="13" y="202" width="28" height="26.88" as="geometry" />
        </mxCell>
        <mxCell id="irkbpjeK_2gSpIbQbNrz-114" value="Cluster Role" style="aspect=fixed;sketch=0;html=1;dashed=0;whitespace=wrap;fillColor=#2875E2;strokeColor=#ffffff;points=[[0.005,0.63,0],[0.1,0.2,0],[0.9,0.2,0],[0.5,0,0],[0.995,0.63,0],[0.72,0.99,0],[0.5,1,0],[0.28,0.99,0]];shape=mxgraph.kubernetes.icon2;prIcon=c_role;labelPosition=right;verticalLabelPosition=middle;align=left;verticalAlign=middle;fontStyle=1;fontSize=10;" vertex="1" parent="irkbpjeK_2gSpIbQbNrz-134">
          <mxGeometry x="13.400000000000034" y="171.83000000000004" width="28" height="26.88" as="geometry" />
        </mxCell>
        <mxCell id="irkbpjeK_2gSpIbQbNrz-127" value="" style="group" vertex="1" connectable="0" parent="irkbpjeK_2gSpIbQbNrz-134">
          <mxGeometry x="230.00072923807767" y="9.998411214953194" width="40" height="50" as="geometry" />
        </mxCell>
        <mxCell id="irkbpjeK_2gSpIbQbNrz-128" value="Metric Server" style="group;labelPosition=right;verticalLabelPosition=middle;align=left;verticalAlign=middle;fontStyle=1" vertex="1" connectable="0" parent="irkbpjeK_2gSpIbQbNrz-127">
          <mxGeometry width="40" height="50" as="geometry" />
        </mxCell>
        <mxCell id="irkbpjeK_2gSpIbQbNrz-129" value="" style="image;sketch=0;aspect=fixed;html=1;points=[];align=center;fontSize=12;image=img/lib/mscae/Chart.svg;movable=1;resizable=1;rotatable=1;deletable=1;editable=1;locked=0;connectable=1;" vertex="1" parent="irkbpjeK_2gSpIbQbNrz-128">
          <mxGeometry x="17.777777777777764" y="33.13253012048193" width="11.155734047300307" height="10.709504685408298" as="geometry" />
        </mxCell>
        <mxCell id="irkbpjeK_2gSpIbQbNrz-130" value="" style="sketch=0;pointerEvents=1;shadow=0;dashed=0;html=1;strokeColor=none;fillColor=#505050;labelPosition=right;verticalLabelPosition=middle;verticalAlign=middle;outlineConnect=0;align=left;shape=mxgraph.office.servers.server_generic;movable=1;resizable=1;rotatable=1;deletable=1;editable=1;locked=0;connectable=1;" vertex="1" parent="irkbpjeK_2gSpIbQbNrz-128">
          <mxGeometry width="24" height="36.144578313253" as="geometry" />
        </mxCell>
        <mxCell id="irkbpjeK_2gSpIbQbNrz-131" value="&lt;b&gt;Metrics&lt;/b&gt;" style="image;aspect=fixed;html=1;points=[];align=left;fontSize=12;image=img/lib/azure2/management_governance/Metrics.svg;labelPosition=right;verticalLabelPosition=middle;verticalAlign=middle;fontColor=#000000;spacing=16;" vertex="1" parent="irkbpjeK_2gSpIbQbNrz-134">
          <mxGeometry x="228.4576639344262" y="56.884299065420464" width="28" height="30.36" as="geometry" />
        </mxCell>
        <mxCell id="irkbpjeK_2gSpIbQbNrz-132" value="Prometheus" style="shape=image;verticalLabelPosition=middle;labelBackgroundColor=default;verticalAlign=middle;aspect=fixed;imageAspect=0;image=data:image/svg+xml,PHN2ZyB4bWxucz0iaHR0cDovL3d3dy53My5vcmcvMjAwMC9zdmciIHdpZHRoPSIyNTYiIHZpZXdCb3g9IjAgMC42NjY5OTIxODc1IDI1NiAyNTUuOTk1NDgzMzk4NDM3NSIgcHJlc2VydmVBc3BlY3RSYXRpbz0ieE1pZFlNaWQiIGhlaWdodD0iMjU1Ljk5NTQ4MzM5ODQzNzUiPjxwYXRoIGZpbGw9IiNkYTRlMzEiIGQ9Im0xMjguMDAxMTI5LjY2N2MtNzAuNjkwMDg5OCAwLTEyOC4wMDExMjkgNTcuMzA0MjYyNy0xMjguMDAxMTI5IDEyNy45OTY2MTIgMCA3MC42OTAwOSA1Ny4zMTEwMzkyIDEyNy45OTg4NyAxMjguMDAxMTI5IDEyNy45OTg4NyA3MC42OTAwOTEgMCAxMjcuOTk4ODcxLTU3LjMwODc4IDEyNy45OTg4NzEtMTI3Ljk5ODg3IDAtNzAuNjkyMzQ5My01Ny4zMTEwMzktMTI3Ljk5NjYxMi0xMjcuOTk4ODcxLTEyNy45OTY2MTJ6bTAgMjM5LjU2MDIzNGMtMjAuMTEyNjIzIDAtMzYuNDE5MTE4NS0xMy40MzU1MjItMzYuNDE5MTE4NS0zMC4wMDQwNDFoNzIuODM4MjM3NWMwIDE2LjU2NjI2LTE2LjMwNjQ5NSAzMC4wMDQwNDEtMzYuNDE5MTE5IDMwLjAwNDA0MXptNjAuMTUyNjQ4LTM5Ljk0MDYzNWgtMTIwLjMxMjA3MTZ2LTIxLjgxNTc4MmgxMjAuMzE0MzMwNnYyMS44MTU3ODJ6bS0uNDMxNDM3LTMzLjA0NDQyN2gtMTE5LjUzNzI5MjRjLS4zOTc1NTQxLS40NTg1NDItLjgwNDE0MzUtLjkxMDMwOC0xLjE4ODE0NDctMS4zNzU2MjctMTIuMzE1MTQyMS0xNC45NTM0NTYtMTUuMjE1NDgtMjIuNzU5OTczLTE4LjAzMjI0MTItMzAuNzE1NTczLS4wNDc0MzU1LS4yNjIwMjQgMTQuOTMzMTI2MiAzLjA2MDcxNSAyNS41NTY0MDQ1IDUuNDUwNTU3IDAgMCA1LjQ2NjM2OTEgMS4yNjQ5NDUgMTMuNDU4MTEwMiAyLjcyMTg5MS03LjY3MzI0NjEtOC45OTQ2NjItMTIuMjI5MzA2NS0yMC40Mjg4NjEtMTIuMjI5MzA2NS0zMi4xMTYwNDggMC0yNS42NTgwNTE4IDE5LjY3ODkyODQtNDguMDc5MjAwMSAxMi41Nzk0MjUyLTY2LjIwMTc5NDUgNi45MDk3NjE1LjU2MjQ0ODcgMTQuMzAwNjUzOSAxNC41ODMwMDc2IDE0Ljc5OTg1NDkgMzYuNTA0OTU0NCA3LjM0NTcxNi0xMC4xNTExODI4IDEwLjQxOTk4NC0yOC42ODk0MDIgMTAuNDE5OTg0LTQwLjA1NTgzNTUgMC0xMS43Njg1MDUyIDcuNzU0NTY0LTI1LjQzODk0NTQgMTUuNTExMzg3LTI1LjkwNjUyMzItNi45MTQyNzkgMTEuMzk1Nzk4MiAxLjc5MTI1MiAyMS4xNjUyMzg3IDkuNTMwMDA0IDQ1LjQwMDIyNzYgMi45MDI1OTcgOS4xMDMwODU2IDIuNTMyMTQ5IDI0LjQyMjQ3MTkgNC43NzI5MDggMzQuMTM3NzAwNC43NDMxNTYtMjAuMTc4MTI5OSA0LjIxMjcxOS00OS42MTk3MjI0IDE3LjAxMzUwOS01OS43ODQ0NTgyLTUuNjQ3MDc1IDEyLjgwMDc5MDYuODM1NzY3IDI4LjgxODE1NTQgNS4yNjk4NTEgMzYuNTE4NTA3NSA3LjE1MzcxNSAxMi40MjM1NjU5IDExLjQ5MDY2OSAyMS44MzYxMTEyIDExLjQ5MDY2OSAzOS42Mzc5NTE1IDAgMTEuOTM1NjU5LTQuNDA2OTc3IDIzLjE3MzMzOS0xMS44NDA3ODggMzEuOTU3OTMgOC40NTI1NDMtMS41ODU2OTkgMTQuMjg5MzYtMy4wMTU1MzkgMTQuMjg5MzYtMy4wMTU1MzlsMjcuNDQ5MzA0LTUuMzU1Njg2Yy4wMDIyNTktLjAwMjI1OS0zLjk4NjgzNSAxNi40MDEzNjYtMTkuMzEyOTk4IDMyLjE5NzM2NXoiLz48L3N2Zz4=;labelPosition=right;align=left;fontStyle=1;spacing=15;" vertex="1" parent="irkbpjeK_2gSpIbQbNrz-134">
          <mxGeometry x="227.95748628891153" y="95.50158878504669" width="28" height="28" as="geometry" />
        </mxCell>
        <mxCell id="irkbpjeK_2gSpIbQbNrz-133" value="Grafana" style="shape=image;verticalLabelPosition=middle;labelBackgroundColor=default;verticalAlign=middle;aspect=fixed;imageAspect=0;image=data:image/svg+xml,PHN2ZyB4bWxuczp4bGluaz0iaHR0cDovL3d3dy53My5vcmcvMTk5OS94bGluayIgeG1sbnM9Imh0dHA6Ly93d3cudzMub3JnLzIwMDAvc3ZnIiB3aWR0aD0iMjU2IiB2aWV3Qm94PSIwLjAwMDAwMzgxNDY5NzI2NTYyNSAtMC4wMDAwMDc2MjkzOTQ1MzEyNSAyNTYgMjc4LjE5ODQ4NjMyODEyNSIgcHJlc2VydmVBc3BlY3RSYXRpbz0ieE1pZFlNaWQiIGhlaWdodD0iMjc4LjE5ODQ4NjMyODEyNSI+PGxpbmVhckdyYWRpZW50IHkyPSIzMS4xMzkwMDglIiB5MT0iMTIyLjQ1MDM1OCUiIHgyPSI0OS45OTQ3ODQlIiB4MT0iNDkuOTk0Nzg0JSIgaWQ9ImEiPjxzdG9wIHN0b3AtY29sb3I9IiNmZmYxMDAiIG9mZnNldD0iMCIvPjxzdG9wIHN0b3AtY29sb3I9IiNmMDVhMjgiIG9mZnNldD0iMSIvPjwvbGluZWFyR3JhZGllbnQ+PHBhdGggZmlsbD0idXJsKCNhKSIgZD0ibTI1NS41OTAxIDEyMi43NzUyMTVjLS40NTk4MzItNC42NzQ5NjItMS4yMjYyMTktMTAuMDM5NjcyLTIuNzU4OTkzLTE2LjAxNzQ5MS0xLjUzMjc3NS01LjkwMTE4MS0zLjgzMTkzNi0xMi40MTU0NzExLTcuMjA0MDM5LTE5LjE1OTY3NzctMy4zNzIxMDMtNi43NDQyMDY1LTcuNzQwNTEtMTMuNzE4MzI5Mi0xMy40MTE3NzUtMjAuNTM5MTc0NC0yLjIyMjUyMi0yLjY4MjM1NDktNC42NzQ5NjEtNS4yODgwNzExLTcuMjgwNjc3LTcuODE3MTQ4NSAzLjkwODU3NC0xNS41NTc2NTgzLTQuNzUxNi0yOS4wNDYwNzE0LTQuNzUxNi0yOS4wNDYwNzE0LTE0Ljk0NDU0OS0uOTE5NjY0NS0yNC40NDc3NDkgNC42NzQ5NjE0LTI3Ljk3MzEzIDcuMjA0MDM4OC0uNjEzMTA5LS4yMjk5MTYxLTEuMTQ5NTgtLjUzNjQ3MDktMS43NjI2OS0uNzY2Mzg3MS0yLjUyOTA3Ny0uOTk2MzAzMi01LjEzNDc5NC0xLjk5MjYwNjUtNy44OTM3ODctMi44MzU2MzIzLTIuNjgyMzU1LS44NDMwMjU4LTUuNDQxMzQ5LTEuNjA5NDEyOS04LjI3Njk4MS0yLjI5OTE2MTNzLTUuNjcxMjY0LTEuMjI2MjE5NC04LjU4MzUzNS0xLjY4NjA1MTZjLS41MzY0NzEtLjA3NjYzODctLjk5NjMwNC0uMTUzMjc3NS0xLjUzMjc3NS0uMjI5OTE2Mi02LjUxNDI5LTIwLjg0NTcyOTI4LTI1LjIxNDEzNS0yOS41ODI1NDIzLTI1LjIxNDEzNS0yOS41ODI1NDIzLTIwLjkyMjM2OSAxMy4yNTg0OTctMjQuODMwOTQzIDMxLjgwNTA2NDktMjQuODMwOTQzIDMxLjgwNTA2NDlzLS4wNzY2MzguMzgzMTkzNi0uMjI5OTE2IDEuMDcyOTQyYy0xLjE0OTU4MS4zMDY1NTQ4LTIuMjk5MTYxLjY4OTc0ODQtMy40NDg3NDIuOTk2MzAzMi0xLjYwOTQxMy40NTk4MzIzLTMuMjE4ODI2IDEuMDcyOTQyLTQuNzUxNiAxLjY4NjA1MTctMS42MDk0MTMuNjEzMTA5Ny0zLjE0MjE4NyAxLjIyNjIxOTMtNC43NTE2IDEuOTE1OTY3Ny0zLjE0MjE4NzEgMS4zNzk0OTY4LTYuMjg0Mzc0MyAyLjkxMjI3MS05LjM0OTkyMjcgNC41OTgzMjI3LTIuOTg4OTA5NyAxLjY4NjA1MTYtNS45MDExODA3IDMuNTI1MzgwNy04LjczNjgxMyA1LjQ0MTM0ODQtLjM4MzE5MzYtLjE1MzI3NzQtLjc2NjM4NzEtLjMwNjU1NDgtLjc2NjM4NzEtLjMwNjU1NDgtMjguOTY5NDMyNy0xMS4wMzU5NzQzLTU0LjY0MzQwMDggMi4yMjI1MjI2LTU0LjY0MzQwMDggMi4yMjI1MjI2LTIuMzc1OCAzMC44MDg3NjE3IDExLjU3MjQ0NTQgNTAuMTk4MzU1NSAxNC4zMzE0Mzg5IDUzLjcyMzczNjYtLjY4OTc0ODQgMS45MTU5NjctMS4zMDI4NTggMy44MzE5MzUtMS45MTU5Njc3IDUuNzQ3OTAzLTIuMTQ1ODgzOSA2Ljk3NDEyMy0zLjc1NTI5NjkgMTQuMTAxNTIzLTQuNzUxNjAwMSAyMS41MzU0NzgtLjE1MzI3NzQgMS4wNzI5NDItLjMwNjU1NDggMi4xNDU4ODQtLjM4MzE5MzUgMy4yMTg4MjUtMjYuODIzNTQ4OCAxMy4yNTg0OTctMzQuNzE3MzM2IDQwLjMxMTk2Mi0zNC43MTczMzYgNDAuMzExOTYyIDIyLjMwMTg2NDggMjUuNjczOTY4IDQ4LjM1OTAyNjUgMjcuMjgzMzgxIDQ4LjM1OTAyNjUgMjcuMjgzMzgxcy4wNzY2Mzg3LS4wNzY2MzguMDc2NjM4Ny0uMDc2NjM4YzMuMjk1NDY0NSA1LjkwMTE4IDcuMTI3NDAwMSAxMS40OTU4MDYgMTEuNDE5MTY3OSAxNi43ODM4NzcgMS44MzkzMjkgMi4yMjI1MjMgMy42Nzg2NTgxIDQuMjkxNzY4IDUuNjcxMjY0NiA2LjM2MTAxMy04LjEyMzcwMzQgMjMuMjk4MTY4IDEuMTQ5NTgwNiA0Mi42MTExMjMgMS4xNDk1ODA2IDQyLjYxMTEyMyAyNC44MzA5NDIzLjkxOTY2NSA0MS4xNTQ5ODc3LTEwLjg4MjY5NyA0NC42MDM3Mjk3LTEzLjU2NTA1MSAyLjQ1MjQzOS44NDMwMjUgNC45ODE1MTYgMS42MDk0MTMgNy41MTA1OTQgMi4yMjI1MjIgNy42NjM4NzEgMS45OTI2MDcgMTUuNDgxMDE5IDMuMTQyMTg3IDIzLjI5ODE2OCAzLjQ0ODc0MiAxLjkxNTk2Ny4wNzY2MzkgMy45MDg1NzQuMTUzMjc4IDUuODI0NTQyLjA3NjYzOWguOTE5NjY0LjYxMzExIDEuMjI2MjE5bDEuMjI2MjItLjA3NjYzOXYuMDc2NjM5YzExLjcyNTcyMiAxNi43MDcyMzkgMzIuMjY0ODk3IDE5LjA4MzAzOSAzMi4yNjQ4OTcgMTkuMDgzMDM5IDE0LjYzNzk5NC0xNS40MDQzODEgMTUuNDgxMDE5LTMwLjczMjEyMyAxNS40ODEwMTktMzQuMDI3NTg4IDAgMCAwLS4wNzY2MzggMC0uMjI5OTE2IDAtLjMwNjU1NSAwLS40NTk4MzIgMC0uNDU5ODMyIDAtLjIyOTkxNiAwLS40NTk4MzIgMC0uNjg5NzQ4IDMuMDY1NTQ5LTIuMTQ1ODg0IDUuOTc3ODItNC40NDUwNDYgOC43MzY4MTMtNi45NzQxMjMgNS44MjQ1NDItNS4yODgwNzEgMTAuOTU5MzM2LTExLjM0MjUyOSAxNS4yNTExMDQtMTcuODU2ODIuMzgzMTkzLS42MTMxMDkuNzY2Mzg3LTEuMjI2MjE5IDEuMTQ5NTgxLTEuODM5MzI5IDE2LjU1Mzk2MS45MTk2NjUgMjguMjc5Njg0LTEwLjI2OTU4NyAyOC4yNzk2ODQtMTAuMjY5NTg3LTIuNzU4OTk0LTE3LjI0MzcxLTEyLjU2ODc0OS0yNS42NzM5NjgtMTQuNjM3OTk0LTI3LjI4MzM4MSAwIDAtLjA3NjYzOS0uMDc2NjM5LS4yMjk5MTYtLjE1MzI3Ny0uMTUzMjc4LS4wNzY2MzktLjE1MzI3OC0uMTUzMjc4LS4xNTMyNzgtLjE1MzI3OC0uMDc2NjM4LS4wNzY2MzktLjIyOTkxNi0uMTUzMjc3LS4zODMxOTMtLjIyOTkxNi4wNzY2MzktMS4wNzI5NDIuMTUzMjc3LTIuMDY5MjQ1LjIyOTkxNi0zLjE0MjE4Ny4xNTMyNzctMS44MzkzMjkuMTUzMjc3LTMuNzU1Mjk3LjE1MzI3Ny01LjU5NDYyNnYtMS4zNzk0OTctLjY4OTc0OC0uMzgzMTk0YzAtLjQ1OTgzMiAwLS4zMDY1NTUgMC0uNDU5ODMybC0uMDc2NjM4LTEuMTQ5NTgxLS4wNzY2MzktMS41MzI3NzRjMC0uNTM2NDcxLS4wNzY2MzktLjk5NjMwMy0uMTUzMjc3LTEuNDU2MTM1LS4wNzY2MzktLjQ1OTgzMy0uMDc2NjM5LS45OTYzMDQtLjE1MzI3OC0xLjQ1NjEzNmwtLjE1MzI3Ny0xLjQ1NjEzNS0uMjI5OTE2LTEuNDU2MTM2Yy0uMzA2NTU1LTEuOTE1OTY4LS42MTMxMS0zLjc1NTI5Ny0xLjA3Mjk0Mi01LjY3MTI2NS0xLjc2MjY5MS03LjQzMzk1NC00LjY3NDk2Mi0xNC40ODQ3MTYtOC40MzAyNTgtMjAuODQ1NzI5LTMuODMxOTM2LTYuMzYxMDEzLTguNTgzNTM2LTExLjk1NTYzOS0xNC4wMjQ4ODUtMTYuNzA3MjM5LTUuMzY0NzA5LTQuNzUxNi0xMS40MTkxNjctOC41ODM1MzUtMTcuNzAzNTQyLTExLjQxOTE2OC02LjM2MTAxMy0yLjgzNTYzMi0xMi45NTE5NDItNC42NzQ5NjEtMTkuNTQyODcxLTUuNTE3OTg2OC0zLjI5NTQ2NS0uNDU5ODMyMy02LjU5MDkyOS0uNjEzMTA5Ny05Ljg4NjM5NC0uNTM2NDcxaC0xLjIyNjIxOS0uMzA2NTU1Yy0uMDc2NjM5IDAtLjQ1OTgzMiAwLS4zODMxOTMgMGgtLjUzNjQ3MWwtMS4yMjYyMi4wNzY2Mzg3Yy0uNDU5ODMyIDAtLjkxOTY2NC4wNzY2Mzg3LTEuMzAyODU4LjA3NjYzODctMS42ODYwNTEuMTUzMjc3NC0zLjM3MjEwMy4zODMxOTM2LTQuOTgxNTE2LjY4OTc0ODQtNi41OTA5MjkgMS4yMjYyMTk0LTEyLjc5ODY2NSAzLjYwMjAxOS0xOC4yNDAwMTMgNi44OTc0ODQtNS40NDEzNDkgMy4yOTU0NjUtMTAuMTkyOTQ5IDcuMzU3MzE2LTE0LjAyNDg4NCAxMS45NTU2MzktMy44MzE5MzYgNC41OTgzMjItNi44MjA4NDUgOS43MzMxMTYtOC44OTAwOTEgMTUuMDIxMTg3LTIuMDY5MjQ1IDUuMjg4MDcxLTMuMjE4ODI2IDEwLjgwNjA1OC0zLjUyNTM4IDE2LjA5NDEyOS0uMDc2NjM5IDEuMzAyODU4LS4wNzY2MzkgMi42ODIzNTUtLjA3NjYzOSAzLjk4NTIxM3YuOTk2MzA0bC4wNzY2MzkgMS4wNzI5NDJjLjA3NjYzOC42MTMxMDkuMDc2NjM4IDEuMzAyODU4LjE1MzI3NyAxLjkxNTk2Ny4yMjk5MTYgMi42ODIzNTUuNzY2Mzg3IDUuMjg4MDcxIDEuNDU2MTM2IDcuNzQwNTEgMS40NTYxMzUgNC45ODE1MTYgMy43NTUyOTYgOS41MDMyIDYuNTkwOTI5IDEzLjMzNTEzNiAyLjgzNTYzMiAzLjgzMTkzNSA2LjI4NDM3NCA2Ljk3NDEyMiA5Ljg4NjM5MyA5LjUwMzIgMy42MDIwMiAyLjQ1MjQzOSA3LjUxMDU5NCA0LjIxNTEyOSAxMS4zNDI1MyA1LjM2NDcxIDMuODMxOTM1IDEuMTQ5NTggNy42NjM4NzEgMS42MDk0MTMgMTEuMjY1ODkgMS42MDk0MTNoMS4zMDI4NTguNjg5NzQ4Yy4yMjk5MTcgMCAuNDU5ODMzIDAgLjY4OTc0OS0uMDc2NjM5LjM4MzE5MyAwIC43NjYzODctLjA3NjYzOSAxLjE0OTU4MS0uMDc2NjM5LjA3NjYzOCAwIC4yMjk5MTYgMCAuMzA2NTU0LS4wNzY2MzlsLjM4MzE5NC0uMDc2NjM4Yy4yMjk5MTYgMCAuNDU5ODMyLS4wNzY2MzkuNjg5NzQ4LS4wNzY2MzkuNDU5ODMzLS4wNzY2MzkuODQzMDI2LS4xNTMyNzcgMS4zMDI4NTgtLjIyOTkxNi40NTk4MzMtLjA3NjYzOS44NDMwMjYtLjE1MzI3OCAxLjIyNjIyLS4zMDY1NTUuODQzMDI2LS4xNTMyNzcgMS42MDk0MTMtLjQ1OTgzMiAyLjM3NTgtLjY4OTc0OCAxLjUzMjc3NC0uNTM2NDcxIDMuMDY1NTQ4LTEuMTQ5NTgxIDQuMzY4NDA2LTEuODM5MzI5IDEuMzc5NDk3LS42ODk3NDkgMi42MDU3MTctMS41MzI3NzUgMy44MzE5MzYtMi4yOTkxNjIuMzA2NTU1LS4yMjk5MTYuNjg5NzQ4LS40NTk4MzIuOTk2MzAzLS43NjYzODcgMS4yMjYyMTktLjk5NjMwMyAxLjQ1NjEzNi0yLjgzNTYzMi40NTk4MzItNC4wNjE4NTItLjg0MzAyNS0xLjA3Mjk0MS0yLjM3NTgtMS4zNzk0OTYtMy42MDIwMTktLjY4OTc0OC0uMzA2NTU1LjE1MzI3Ny0uNjEzMTEuMzA2NTU1LS45MTk2NjUuNDU5ODMyLTEuMDcyOTQxLjUzNjQ3MS0yLjE0NTg4My45OTYzMDQtMy4yOTU0NjQgMS4zNzk0OTctMS4xNDk1ODEuMzgzMTk0LTIuMzc1OC42ODk3NDktMy42MDIwMi45MTk2NjUtLjYxMzEwOS4wNzY2MzgtMS4yMjYyMTkuMTUzMjc3LTEuOTE1OTY3LjIyOTkxNi0uMzA2NTU1IDAtLjYxMzExLjA3NjYzOC0uOTk2MzA0LjA3NjYzOC0uMzA2NTU0IDAtLjY4OTc0OCAwLS45MTk2NjQgMC0uMzA2NTU1IDAtLjYxMzExIDAtLjkxOTY2NSAwLS4zODMxOTMgMC0uNzY2Mzg3IDAtMS4xNDk1OC0uMDc2NjM4aC0uMDc2NjM5LS4xNTMyNzctLjIyOTkxN2MtLjE1MzI3NyAwLS4zODMxOTMgMC0uNTM2NDctLjA3NjYzOS0uMzgzMTk0LS4wNzY2MzktLjY4OTc0OS0uMDc2NjM5LTEuMDcyOTQyLS4xNTMyNzctMi44MzU2MzMtLjM4MzE5NC01LjY3MTI2NS0xLjIyNjIyLTguMzUzNjItMi40NTI0MzktMi43NTg5OTMtMS4yMjYyMTktNS4zNjQ3MS0yLjkxMjI3MS03Ljc0MDUxLTUuMDU4MTU1cy00LjQ0NTA0NS00LjY3NDk2MS02LjA1NDQ1OC03LjU4NzIzMi0yLjc1ODk5My02LjEzMTA5Ny0zLjI5NTQ2NC05LjUwMzJjLS4yMjk5MTctMS42ODYwNTItLjM4MzE5NC0zLjQ0ODc0Mi0uMzA2NTU1LTUuMTM0Nzk0IDAtLjQ1OTgzMi4wNzY2MzgtLjkxOTY2NS4wNzY2MzgtMS4zNzk0OTd2LS4wNzY2MzktLjE1MzI3Ny0uMzgzMTk0YzAtLjIyOTkxNi4wNzY2MzktLjQ1OTgzMi4wNzY2MzktLjY4OTc0OC4wNzY2MzktLjkxOTY2NS4yMjk5MTYtMS44MzkzMjkuMzgzMTk0LTIuNzU4OTk0IDEuMzAyODU4LTcuMzU3MzE2IDQuOTgxNTE2LTE0LjU2MTM1NSAxMC42NTI3ODEtMjAuMDAyNzAzIDEuNDU2MTM1LTEuMzc5NDk3IDIuOTg4OTA5LTIuNjA1NzE2IDQuNTk4MzIyLTMuNzU1Mjk3czMuMzcyMTAzLTIuMTQ1ODg0IDUuMjExNDMzLTIuOTg4OTFjMS44MzkzMjktLjg0MzAyNSAzLjY3ODY1OC0xLjUzMjc3NCA1LjY3MTI2NC0yLjA2OTI0NSAxLjkxNTk2OC0uNTM2NDcxIDMuOTA4NTc0LS44NDMwMjYgNS45Nzc4Mi0xLjA3Mjk0Mi45OTYzMDMtLjA3NjYzOCAxLjk5MjYwNi0uMTUzMjc3IDMuMDY1NTQ4LS4xNTMyNzdoLjY4OTc0OC44NDMwMjYuNTM2NDcxLjA3NjYzOS4yMjk5MTZsLjg0MzAyNi4wNzY2MzljMi4yMjI1MjIuMTUzMjc3IDQuMzY4NDA2LjQ1OTgzMiA2LjUxNDI5Ljk5NjMwMyA0LjI5MTc2OC45MTk2NjQgOC41MDY4OTcgMi41MjkwNzcgMTIuNDE1NDcxIDQuNjc0OTYxIDcuODE3MTQ5IDQuMzY4NDA3IDE0LjQ4NDcxNyAxMS4xMTI2MTMgMTguNTQ2NTY4IDE5LjIzNjMxNyAyLjA2OTI0NiA0LjA2MTg1MSAzLjUyNTM4MSA4LjQzMDI1OCA0LjIxNTEyOSAxMi45NTE5NDIuMTUzMjc4IDEuMTQ5NTguMzA2NTU1IDIuMjk5MTYxLjM4MzE5NCAzLjQ0ODc0MmwuMDc2NjM5Ljg0MzAyNS4wNzY2MzguODQzMDI2di44NDMwMjYuODQzMDI2Ljc2NjM4Ny44NDMwMjZjMCAuNTM2NDcxLS4wNzY2MzggMS40NTYxMzUtLjA3NjYzOCAxLjk5MjYwNi0uMDc2NjM5IDEuMjI2MjItLjIyOTkxNiAyLjUyOTA3OC0uMzgzMTk0IDMuNzU1Mjk3LS4xNTMyNzcgMS4yMjYyMTktLjM4MzE5MyAyLjQ1MjQzOS0uNjEzMTEgMy42Nzg2NTgtLjIyOTkxNiAxLjIyNjIyLS41MzY0NzEgMi40NTI0MzktLjg0MzAyNSAzLjYwMjAyLS42MTMxMSAyLjM3NTgtMS4zNzk0OTcgNC43NTE2LTIuMjk5MTYyIDcuMTI3NC0xLjgzOTMyOSA0LjU5ODMyMi00LjI5MTc2NyA5LjA0MzM2OC03LjIwNDAzOCAxMy4xMDUyMTktNS45MDExODEgOC4xMjM3MDQtMTMuOTQ4MjQ2IDE0LjcxNDYzMy0yMy4xNDQ4OTEgMTguOTI5NzYyLTQuNTk4MzIzIDIuMDY5MjQ1LTkuNDI2NTYyIDMuNjAyMDE5LTE0LjQwODA3OCA0LjM2ODQwNi0yLjQ1MjQzOC40NTk4MzMtNC45ODE1MTYuNjg5NzQ5LTcuNTEwNTkzLjc2NjM4N2gtLjQ1OTgzMy0uMzgzMTkzLS44NDMwMjYtMS4yMjYyMTktLjYxMzExLS4wNzY2MzktLjIyOTkxNmMtMS4zNzk0OTcgMC0yLjY4MjM1NS0uMDc2NjM4LTQuMDYxODUyLS4yMjk5MTYtNS4zNjQ3MDktLjM4MzE5My0xMC42NTI3OC0xLjM3OTQ5Ni0xNS44NjQyMTMtMi44MzU2MzItNS4xMzQ3OTMtMS40NTYxMzYtMTAuMTE2MzEtMy41MjUzODEtMTQuODY3OTEtNS45Nzc4MTktOS40MjY1NjEtNS4wNTgxNTUtMTcuOTMzNDU3OS0xMS45NTU2MzktMjQuNTI0Mzg3LTIwLjMwOTI1OS0zLjI5NTQ2NDYtNC4xMzg0OS02LjIwNzczNTYtOC42NjAxNzQtOC41ODM1MzU2LTEzLjMzNTEzNS0yLjM3NTgtNC42NzQ5NjItNC4yOTE3Njc4LTkuNjU2NDc4LTUuNjcxMjY0Ni0xNC42Mzc5OTQtMS4zNzk0OTY4LTUuMDU4MTU1LTIuMjIyNTIyNi0xMC4xOTI5NDktMi42MDU3MTYyLTE1LjQwNDM4MWwtLjA3NjYzODctLjk5NjMwM3YtLjIyOTkxNi0uMjI5OTE3LS40NTk4MzItLjg0MzAyNi0uMjI5OTE2LS4zMDY1NTUtLjYxMzEwOS0xLjIyNjIyLS4yMjk5MTZzMCAuMDc2NjM5IDAtLjA3NjYzOHYtLjQ1OTgzM2MwLS42MTMxMDkgMC0xLjMwMjg1OCAwLTEuOTE1OTY4LjA3NjYzODctMi41MjkwNzcuMzA2NTU0OS01LjIxMTQzMi42MTMxMDk3LTcuODE3MTQ4LjMwNjU1NDktMi42MDU3MTYuNzY2Mzg3MS01LjI4ODA3MSAxLjMwMjg1ODEtNy44OTM3ODdzMS4xNDk1ODA3LTUuMjExNDMzIDEuOTE1OTY3OC03LjgxNzE0OWMxLjQ1NjEzNTUtNS4xMzQ3OTMgMy4yOTU0NjQ1LTEwLjExNjMxIDUuNDQxMzQ4NC0xNC43OTEyNzEgNC4zNjg0MDY1LTkuMzQ5OTIyNiAxMC4wMzk2NzExLTE3LjcwMzU0MjEgMTYuODYwNTE2NC0yNC4zNzExMDk5IDEuNjg2MDUxNi0xLjY4NjA1MTYgMy40NDg3NDE3LTMuMjE4ODI1OCA1LjI4ODA3MDctNC43NTE2MDAxIDEuODM5MzI5LTEuNDU2MTM1NSAzLjc1NTI5Ny0yLjgzNTYzMjIgNS43NDc5MDQtNC4xMzg0OTAzIDEuOTE1OTY3LTEuMzAyODU4MSAzLjk4NTIxMy0yLjQ1MjQzODggNi4wNTQ0NTgtMy41MjUzODA3Ljk5NjMwMy0uNTM2NDcxIDIuMDY5MjQ1LTEuMDcyOTQyIDMuMTQyMTg3LTEuNTMyNzc0Mi41MzY0NzEtLjIyOTkxNjIgMS4wNzI5NDItLjQ1OTgzMjMgMS42MDk0MTMtLjY4OTc0ODQuNTM2NDcxLS4yMjk5MTYyIDEuMDcyOTQyLS40NTk4MzIzIDEuNjA5NDEzLS42ODk3NDg0IDIuMTQ1ODg0LS45MTk2NjQ2IDQuMzY4NDA2LTEuNjg2MDUxNyA2LjY2NzU2OC0yLjM3NTgwMDEuNTM2NDcxLS4xNTMyNzc0IDEuMTQ5NTgtLjMwNjU1NDggMS42ODYwNTEtLjUzNjQ3MDkuNTM2NDcxLS4xNTMyNzc1IDEuMTQ5NTgxLS4zMDY1NTQ5IDEuNjg2MDUyLS40NTk4MzIzIDEuMTQ5NTgxLS4zMDY1NTQ4IDIuMjk5MTYxLS42MTMxMDk3IDMuNDQ4NzQyLS44NDMwMjU4LjUzNjQ3MS0uMTUzMjc3NCAxLjE0OTU4MS0uMjI5OTE2MiAxLjc2MjY5LS4zODMxOTM2LjYxMzExLS4xNTMyNzc0IDEuMTQ5NTgxLS4yMjk5MTYxIDEuNzYyNjkxLS4zODMxOTM1LjYxMzEwOS0uMDc2NjM4NyAxLjE0OTU4LS4yMjk5MTYyIDEuNzYyNjktLjMwNjU1NDlsLjg0MzAyNi0uMTUzMjc3NC45MTk2NjQtLjE1MzI3NzRjLjYxMzExLS4wNzY2Mzg3IDEuMTQ5NTgxLS4xNTMyNzc0IDEuNzYyNjkxLS4yMjk5MTYxLjY4OTc0OC0uMDc2NjM4OCAxLjMwMjg1OC0uMTUzMjc3NSAxLjk5MjYwNi0uMjI5OTE2Mi41MzY0NzEtLjA3NjYzODcgMS40NTYxMzYtLjE1MzI3NzQgMS45OTI2MDctLjIyOTkxNjEuMzgzMTkzLS4wNzY2Mzg3Ljg0MzAyNS0uMDc2NjM4NyAxLjIyNjIxOS0uMTUzMjc3NGwuODQzMDI2LS4wNzY2Mzg3LjM4MzE5My0uMDc2NjM4OGguNDU5ODMzYy42ODk3NDgtLjA3NjYzODcgMS4zMDI4NTgtLjA3NjYzODcgMS45OTI2MDYtLjE1MzI3NzRsLjk5NjMwMy0uMDc2NjM4N3MuMzgzMTk0IDAgLjA3NjYzOSAwaC4yMjk5MTYuNDU5ODMyYy41MzY0NzEgMCAxLjE0OTU4MS0uMDc2NjM4NyAxLjY4NjA1Mi0uMDc2NjM4NyAyLjIyMjUyMy0uMDc2NjM4NyA0LjUyMTY4NC0uMDc2NjM4NyA2Ljc0NDIwNyAwIDQuNDQ1MDQ1LjE1MzI3NzQgOC44MTM0NTEuNjg5NzQ4NCAxMy4wMjg1OCAxLjQ1NjEzNTUgOC41MDY4OTcgMS42MDk0MTI5IDE2LjQ3NzMyMyA0LjI5MTc2NzggMjMuNzU4MDAxIDcuODkzNzg3MiA3LjI4MDY3NyAzLjUyNTM4MDcgMTMuNzE4MzI5IDcuODkzNzg3MiAxOS4zODk1OTMgMTIuNjQ1Mzg3My4zODMxOTQuMzA2NTU0OC42ODk3NDkuNjEzMTA5NyAxLjA3Mjk0Mi45MTk2NjQ1LjMwNjU1NS4zMDY1NTQ5LjY4OTc0OS42MTMxMDk3Ljk5NjMwNC45MTk2NjQ1LjY4OTc0OC42MTMxMDk3IDEuMzAyODU4IDEuMjI2MjE5NCAxLjk5MjYwNiAxLjgzOTMyOTEuNjg5NzQ5LjYxMzEwOTcgMS4zMDI4NTggMS4yMjYyMTk0IDEuOTE1OTY4IDEuODM5MzI5MS42MTMxMS42MTMxMDk2IDEuMjI2MjE5IDEuMjI2MjE5MyAxLjgzOTMyOSAxLjkxNTk2NzcgMi4zNzU4IDIuNTI5MDc3NSA0LjU5ODMyMyA1LjA1ODE1NDkgNi41OTA5MjkgNy42NjM4NzExIDMuOTg1MjEzIDUuMTM0Nzk0IDcuMjA0MDM5IDEwLjM0NjIyNiA5LjczMzExNiAxNS4yNTExMDMuMTUzMjc4LjMwNjU1NS4zMDY1NTUuNjEzMTEuNDU5ODMzLjkxOTY2NS4xNTMyNzcuMzA2NTU1LjMwNjU1NC42MTMxMS40NTk4MzIuOTE5NjY0LjMwNjU1NS42MTMxMS42MTMxMSAxLjIyNjIyLjg0MzAyNiAxLjgzOTMzLjMwNjU1NS42MTMxMDkuNTM2NDcxIDEuMTQ5NTguODQzMDI2IDEuNzYyNjkuMjI5OTE2LjYxMzExLjUzNjQ3MSAxLjE0OTU4MS43NjYzODcgMS43NjI2OS45MTk2NjQgMi4yOTkxNjIgMS44MzkzMjkgNC41MjE2ODQgMi41MjkwNzcgNi41OTA5MjkgMS4xNDk1ODEgMy4zNzIxMDQgMS45OTI2MDcgNi4zNjEwMTMgMi42ODIzNTUgOC45NjY3My4yMjk5MTYgMS4wNzI5NDEgMS4yMjYyMTkgMS43NjI2OSAyLjI5OTE2MSAxLjYwOTQxMiAxLjE0OTU4MS0uMDc2NjM4IDEuOTkyNjA3LS45OTYzMDMgMS45OTI2MDctMi4xNDU4ODMuMDc2NjM4LTIuNzU4OTk0IDAtNi4wNTQ0NTktLjM4MzE5NC05LjgwOTc1NXoiLz48L3N2Zz4=;labelPosition=right;align=left;fontStyle=1;spacing=16;" vertex="1" parent="irkbpjeK_2gSpIbQbNrz-134">
          <mxGeometry x="228.4558276984713" y="133.87856218547813" width="28" height="30.39" as="geometry" />
        </mxCell>
      </root>
    </mxGraphModel>
  </diagram>
</mxfile>
